<svg width="40" height="40" viewBox="0 0 40 40" fill="none" xmlns="http://www.w3.org/2000/svg">
<path fill-rule="evenodd" clip-rule="evenodd" d="M32 5.33333H36C37.0609 5.33333 38.0783 5.75476 38.8284 6.50491C39.5786 7.25505 40 8.27247 40 9.33333V36C40 37.0609 39.5786 38.0783 38.8284 38.8284C38.0783 39.5786 37.0609 40 36 40H4C2.93913 40 1.92172 39.5786 1.17157 38.8284C0.421427 38.0783 0 37.0609 0 36L0 9.33333C0 8.27247 0.421427 7.25505 1.17157 6.50491C1.92172 5.75476 2.93913 5.33333 4 5.33333H8V0H10.6667V5.33333H29.3333V0H32V5.33333ZM16 21.3333H8V18.6667H16V21.3333ZM32 18.6667H24V21.3333H32V18.6667ZM16 29.3333H8V26.6667H16V29.3333ZM24 29.3333H32V26.6667H24V29.3333Z" fill="#1D4931"/>
</svg>
