<svg width="24" height="24" viewBox="0 0 24 24" fill="none" xmlns="http://www.w3.org/2000/svg">
<path d="M12 0.75C5.78672 0.75 0.75 5.78672 0.75 12C0.75 18.2133 5.78672 23.25 12 23.25C18.2133 23.25 23.25 18.2133 23.25 12C23.25 5.78672 18.2133 0.75 12 0.75ZM12 3.5625C16.6598 3.5625 20.4375 7.34016 20.4375 12C20.4375 16.6598 16.6598 20.4375 12 20.4375C7.34016 20.4375 3.5625 16.6598 3.5625 12C3.5625 7.34016 7.34016 3.5625 12 3.5625ZM8.2207 6.375C8.17523 6.37477 8.12667 6.38025 8.07712 6.38967V6.38817C7.21945 6.54923 5.95537 8.01675 6.51267 8.57377L9.94191 12.0015L6.51272 15.4293C5.82694 16.1148 7.88498 18.1731 8.57081 17.4874L12 14.0581L15.4292 17.4873C16.115 18.173 18.1731 16.1148 17.4873 15.4292L14.0581 12.0015L17.4873 8.57377C18.1731 7.88822 16.115 5.83158 15.4292 6.51713L12 9.94486L8.57081 6.51713C8.47425 6.42122 8.35706 6.3758 8.22066 6.37509L8.2207 6.375Z" fill="#BF5E5E"/>
</svg>
