<svg width="744" height="320" viewBox="0 0 744 320" fill="none" xmlns="http://www.w3.org/2000/svg">
<rect width="744" height="320" rx="8" fill="white"/>
<path d="M25.8508 63V62.388L29.3428 58.968C29.6628 58.656 29.9028 58.384 30.0628 58.152C30.2228 57.912 30.3308 57.688 30.3868 57.48C30.4428 57.272 30.4708 57.076 30.4708 56.892C30.4708 56.404 30.3028 56.02 29.9668 55.74C29.6388 55.46 29.1508 55.32 28.5028 55.32C28.0068 55.32 27.5668 55.396 27.1828 55.548C26.8068 55.7 26.4828 55.936 26.2108 56.256L25.5988 55.728C25.9268 55.344 26.3468 55.048 26.8588 54.84C27.3708 54.632 27.9428 54.528 28.5748 54.528C29.1428 54.528 29.6348 54.62 30.0508 54.804C30.4668 54.98 30.7868 55.24 31.0108 55.584C31.2428 55.928 31.3588 56.332 31.3588 56.796C31.3588 57.068 31.3188 57.336 31.2388 57.6C31.1668 57.864 31.0308 58.144 30.8308 58.44C30.6388 58.728 30.3548 59.056 29.9788 59.424L26.7748 62.568L26.5348 62.232H31.7428V63H25.8508ZM35.4791 63.072C34.8791 63.072 34.3071 62.976 33.7631 62.784C33.2191 62.584 32.7871 62.32 32.4671 61.992L32.8871 61.308C33.1511 61.588 33.5111 61.82 33.9671 62.004C34.4311 62.188 34.9311 62.28 35.4671 62.28C36.1791 62.28 36.7191 62.124 37.0871 61.812C37.4631 61.492 37.6511 61.076 37.6511 60.564C37.6511 60.204 37.5631 59.896 37.3871 59.64C37.2191 59.376 36.9311 59.172 36.5231 59.028C36.1151 58.884 35.5551 58.812 34.8431 58.812H33.0551L33.4871 54.6H38.0831V55.368H33.8351L34.2791 54.948L33.9071 58.476L33.4631 58.044H35.0351C35.8831 58.044 36.5631 58.148 37.0751 58.356C37.5871 58.564 37.9551 58.856 38.1791 59.232C38.4111 59.6 38.5271 60.032 38.5271 60.528C38.5271 61 38.4151 61.432 38.1911 61.824C37.9671 62.208 37.6311 62.512 37.1831 62.736C36.7351 62.96 36.1671 63.072 35.4791 63.072Z" fill="#667085"/>
<path d="M24.7258 104V103.388L28.2178 99.968C28.5378 99.656 28.7778 99.384 28.9378 99.152C29.0978 98.912 29.2058 98.688 29.2618 98.48C29.3178 98.272 29.3458 98.076 29.3458 97.892C29.3458 97.404 29.1778 97.02 28.8418 96.74C28.5138 96.46 28.0258 96.32 27.3778 96.32C26.8818 96.32 26.4418 96.396 26.0578 96.548C25.6818 96.7 25.3578 96.936 25.0858 97.256L24.4738 96.728C24.8018 96.344 25.2218 96.048 25.7338 95.84C26.2458 95.632 26.8178 95.528 27.4498 95.528C28.0178 95.528 28.5098 95.62 28.9258 95.804C29.3418 95.98 29.6618 96.24 29.8858 96.584C30.1178 96.928 30.2338 97.332 30.2338 97.796C30.2338 98.068 30.1938 98.336 30.1138 98.6C30.0418 98.864 29.9058 99.144 29.7058 99.44C29.5138 99.728 29.2298 100.056 28.8538 100.424L25.6498 103.568L25.4098 103.232H30.6178V104H24.7258ZM35.0267 104.072C34.3787 104.072 33.8027 103.904 33.2987 103.568C32.7947 103.224 32.3987 102.736 32.1107 102.104C31.8227 101.464 31.6787 100.696 31.6787 99.8C31.6787 98.904 31.8227 98.14 32.1107 97.508C32.3987 96.868 32.7947 96.38 33.2987 96.044C33.8027 95.7 34.3787 95.528 35.0267 95.528C35.6747 95.528 36.2507 95.7 36.7547 96.044C37.2587 96.38 37.6547 96.868 37.9427 97.508C38.2387 98.14 38.3867 98.904 38.3867 99.8C38.3867 100.696 38.2387 101.464 37.9427 102.104C37.6547 102.736 37.2587 103.224 36.7547 103.568C36.2507 103.904 35.6747 104.072 35.0267 104.072ZM35.0267 103.28C35.5227 103.28 35.9547 103.148 36.3227 102.884C36.6907 102.612 36.9787 102.22 37.1867 101.708C37.3947 101.188 37.4987 100.552 37.4987 99.8C37.4987 99.048 37.3947 98.416 37.1867 97.904C36.9787 97.384 36.6907 96.992 36.3227 96.728C35.9547 96.456 35.5227 96.32 35.0267 96.32C34.5467 96.32 34.1187 96.456 33.7427 96.728C33.3667 96.992 33.0747 97.384 32.8667 97.904C32.6587 98.416 32.5547 99.048 32.5547 99.8C32.5547 100.552 32.6587 101.188 32.8667 101.708C33.0747 102.22 33.3667 102.612 33.7427 102.884C34.1187 103.148 34.5467 103.28 35.0267 103.28Z" fill="#667085"/>
<path d="M29.9552 145V136.96L30.3392 137.368H27.9752V136.6H30.8192V145H29.9552ZM35.4791 145.072C34.8791 145.072 34.3071 144.976 33.7631 144.784C33.2191 144.584 32.7871 144.32 32.4671 143.992L32.8871 143.308C33.1511 143.588 33.5111 143.82 33.9671 144.004C34.4311 144.188 34.9311 144.28 35.4671 144.28C36.1791 144.28 36.7191 144.124 37.0871 143.812C37.4631 143.492 37.6511 143.076 37.6511 142.564C37.6511 142.204 37.5631 141.896 37.3871 141.64C37.2191 141.376 36.9311 141.172 36.5231 141.028C36.1151 140.884 35.5551 140.812 34.8431 140.812H33.0551L33.4871 136.6H38.0831V137.368H33.8351L34.2791 136.948L33.9071 140.476L33.4631 140.044H35.0351C35.8831 140.044 36.5631 140.148 37.0751 140.356C37.5871 140.564 37.9551 140.856 38.1791 141.232C38.4111 141.6 38.5271 142.032 38.5271 142.528C38.5271 143 38.4151 143.432 38.1911 143.824C37.9671 144.208 37.6311 144.512 37.1831 144.736C36.7351 144.96 36.1671 145.072 35.4791 145.072Z" fill="#667085"/>
<path d="M28.8068 186V177.96L29.1908 178.368H26.8268V177.6H29.6708V186H28.8068ZM35.0267 186.072C34.3787 186.072 33.8027 185.904 33.2987 185.568C32.7947 185.224 32.3987 184.736 32.1107 184.104C31.8227 183.464 31.6787 182.696 31.6787 181.8C31.6787 180.904 31.8227 180.14 32.1107 179.508C32.3987 178.868 32.7947 178.38 33.2987 178.044C33.8027 177.7 34.3787 177.528 35.0267 177.528C35.6747 177.528 36.2507 177.7 36.7547 178.044C37.2587 178.38 37.6547 178.868 37.9427 179.508C38.2387 180.14 38.3867 180.904 38.3867 181.8C38.3867 182.696 38.2387 183.464 37.9427 184.104C37.6547 184.736 37.2587 185.224 36.7547 185.568C36.2507 185.904 35.6747 186.072 35.0267 186.072ZM35.0267 185.28C35.5227 185.28 35.9547 185.148 36.3227 184.884C36.6907 184.612 36.9787 184.22 37.1867 183.708C37.3947 183.188 37.4987 182.552 37.4987 181.8C37.4987 181.048 37.3947 180.416 37.1867 179.904C36.9787 179.384 36.6907 178.992 36.3227 178.728C35.9547 178.456 35.5227 178.32 35.0267 178.32C34.5467 178.32 34.1187 178.456 33.7427 178.728C33.3667 178.992 33.0747 179.384 32.8667 179.904C32.6587 180.416 32.5547 181.048 32.5547 181.8C32.5547 182.552 32.6587 183.188 32.8667 183.708C33.0747 184.22 33.3667 184.612 33.7427 184.884C34.1187 185.148 34.5467 185.28 35.0267 185.28Z" fill="#667085"/>
<path d="M35.4791 227.072C34.8791 227.072 34.3071 226.976 33.7631 226.784C33.2191 226.584 32.7871 226.32 32.4671 225.992L32.8871 225.308C33.1511 225.588 33.5111 225.82 33.9671 226.004C34.4311 226.188 34.9311 226.28 35.4671 226.28C36.1791 226.28 36.7191 226.124 37.0871 225.812C37.4631 225.492 37.6511 225.076 37.6511 224.564C37.6511 224.204 37.5631 223.896 37.3871 223.64C37.2191 223.376 36.9311 223.172 36.5231 223.028C36.1151 222.884 35.5551 222.812 34.8431 222.812H33.0551L33.4871 218.6H38.0831V219.368H33.8351L34.2791 218.948L33.9071 222.476L33.4631 222.044H35.0351C35.8831 222.044 36.5631 222.148 37.0751 222.356C37.5871 222.564 37.9551 222.856 38.1791 223.232C38.4111 223.6 38.5271 224.032 38.5271 224.528C38.5271 225 38.4151 225.432 38.1911 225.824C37.9671 226.208 37.6311 226.512 37.1831 226.736C36.7351 226.96 36.1671 227.072 35.4791 227.072Z" fill="#667085"/>
<path d="M34.9993 268.072C34.3513 268.072 33.7753 267.904 33.2713 267.568C32.7673 267.224 32.3713 266.736 32.0833 266.104C31.7953 265.464 31.6513 264.696 31.6513 263.8C31.6513 262.904 31.7953 262.14 32.0833 261.508C32.3713 260.868 32.7673 260.38 33.2713 260.044C33.7753 259.7 34.3513 259.528 34.9993 259.528C35.6473 259.528 36.2233 259.7 36.7273 260.044C37.2313 260.38 37.6273 260.868 37.9153 261.508C38.2113 262.14 38.3593 262.904 38.3593 263.8C38.3593 264.696 38.2113 265.464 37.9153 266.104C37.6273 266.736 37.2313 267.224 36.7273 267.568C36.2233 267.904 35.6473 268.072 34.9993 268.072ZM34.9993 267.28C35.4953 267.28 35.9273 267.148 36.2953 266.884C36.6633 266.612 36.9513 266.22 37.1593 265.708C37.3673 265.188 37.4713 264.552 37.4713 263.8C37.4713 263.048 37.3673 262.416 37.1593 261.904C36.9513 261.384 36.6633 260.992 36.2953 260.728C35.9273 260.456 35.4953 260.32 34.9993 260.32C34.5193 260.32 34.0913 260.456 33.7153 260.728C33.3393 260.992 33.0473 261.384 32.8393 261.904C32.6313 262.416 32.5273 263.048 32.5273 263.8C32.5273 264.552 32.6313 265.188 32.8393 265.708C33.0473 266.22 33.3393 266.612 33.7153 266.884C34.0913 267.148 34.5193 267.28 34.9993 267.28Z" fill="#667085"/>
<line x1="46.5" y1="61" x2="719.5" y2="61" stroke="#F2F4F7" stroke-linecap="round"/>
<line x1="46.5" y1="103.5" x2="719.5" y2="103.5" stroke="#F2F4F7" stroke-linecap="round"/>
<line x1="46.5" y1="143.5" x2="719.5" y2="143.5" stroke="#F2F4F7" stroke-linecap="round"/>
<line x1="46.5" y1="183.5" x2="719.5" y2="183.5" stroke="#F2F4F7" stroke-linecap="round"/>
<line x1="46.5" y1="223.5" x2="719.5" y2="223.5" stroke="#F2F4F7" stroke-linecap="round"/>
<line x1="46.5" y1="263.5" x2="719.5" y2="263.5" stroke="#F2F4F7" stroke-linecap="round"/>
<path d="M86.6291 276.273H87.8904L90.8564 283.517H90.9586L93.9245 276.273H95.1859V285H94.1973V278.369H94.112L91.3848 285H90.4302L87.7029 278.369H87.6177V285H86.6291V276.273ZM99.8276 285.136C99.2367 285.136 98.7182 284.996 98.2722 284.714C97.829 284.433 97.4824 284.04 97.2324 283.534C96.9853 283.028 96.8617 282.437 96.8617 281.761C96.8617 281.08 96.9853 280.484 97.2324 279.976C97.4824 279.467 97.829 279.072 98.2722 278.791C98.7182 278.51 99.2367 278.369 99.8276 278.369C100.419 278.369 100.936 278.51 101.379 278.791C101.825 279.072 102.171 279.467 102.419 279.976C102.669 280.484 102.794 281.08 102.794 281.761C102.794 282.437 102.669 283.028 102.419 283.534C102.171 284.04 101.825 284.433 101.379 284.714C100.936 284.996 100.419 285.136 99.8276 285.136ZM99.8276 284.233C100.276 284.233 100.646 284.118 100.936 283.888C101.225 283.658 101.44 283.355 101.579 282.98C101.718 282.605 101.788 282.199 101.788 281.761C101.788 281.324 101.718 280.916 101.579 280.538C101.44 280.161 101.225 279.855 100.936 279.622C100.646 279.389 100.276 279.273 99.8276 279.273C99.3787 279.273 99.0094 279.389 98.7196 279.622C98.4299 279.855 98.2154 280.161 98.0762 280.538C97.937 280.916 97.8674 281.324 97.8674 281.761C97.8674 282.199 97.937 282.605 98.0762 282.98C98.2154 283.355 98.4299 283.658 98.7196 283.888C99.0094 284.118 99.3787 284.233 99.8276 284.233ZM105.334 281.062V285H104.329V278.455H105.3V279.477H105.385C105.539 279.145 105.772 278.878 106.084 278.676C106.397 278.472 106.8 278.369 107.295 278.369C107.738 278.369 108.126 278.46 108.458 278.642C108.79 278.821 109.049 279.094 109.233 279.46C109.418 279.824 109.51 280.284 109.51 280.841V285H108.505V280.909C108.505 280.395 108.371 279.994 108.104 279.707C107.837 279.418 107.471 279.273 107.005 279.273C106.684 279.273 106.397 279.342 106.144 279.482C105.894 279.621 105.697 279.824 105.552 280.091C105.407 280.358 105.334 280.682 105.334 281.062Z" fill="#667085"/>
<path d="M183.197 277.21V276.273H189.742V277.21H186.998V285H185.941V277.21H183.197ZM194.471 282.324V278.455H195.477V285H194.471V283.892H194.403C194.25 284.224 194.011 284.507 193.687 284.74C193.363 284.97 192.954 285.085 192.46 285.085C192.051 285.085 191.687 284.996 191.369 284.817C191.051 284.635 190.801 284.362 190.619 283.999C190.437 283.632 190.346 283.17 190.346 282.614V278.455H191.352V282.545C191.352 283.023 191.485 283.403 191.752 283.688C192.022 283.972 192.366 284.114 192.784 284.114C193.034 284.114 193.288 284.05 193.547 283.922C193.808 283.794 194.027 283.598 194.203 283.334C194.382 283.07 194.471 282.733 194.471 282.324ZM200.063 285.136C199.433 285.136 198.888 284.997 198.431 284.719C197.977 284.438 197.626 284.045 197.379 283.543C197.134 283.037 197.012 282.449 197.012 281.778C197.012 281.108 197.134 280.517 197.379 280.006C197.626 279.491 197.969 279.091 198.41 278.804C198.853 278.514 199.37 278.369 199.961 278.369C200.302 278.369 200.638 278.426 200.971 278.54C201.303 278.653 201.606 278.838 201.879 279.094C202.151 279.347 202.369 279.682 202.531 280.099C202.692 280.517 202.773 281.031 202.773 281.642V282.068H197.728V281.199H201.751C201.751 280.83 201.677 280.5 201.529 280.21C201.384 279.92 201.177 279.692 200.907 279.524C200.64 279.357 200.325 279.273 199.961 279.273C199.56 279.273 199.214 279.372 198.921 279.571C198.631 279.767 198.408 280.023 198.252 280.338C198.096 280.653 198.018 280.991 198.018 281.352V281.932C198.018 282.426 198.103 282.845 198.273 283.189C198.447 283.53 198.687 283.79 198.994 283.969C199.3 284.145 199.657 284.233 200.063 284.233C200.327 284.233 200.566 284.196 200.779 284.122C200.995 284.045 201.181 283.932 201.337 283.781C201.494 283.628 201.614 283.437 201.7 283.21L202.671 283.483C202.569 283.812 202.397 284.102 202.156 284.352C201.914 284.599 201.616 284.793 201.261 284.932C200.906 285.068 200.506 285.136 200.063 285.136Z" fill="#667085"/>
<path d="M278.033 285L275.646 276.273H276.72L278.544 283.381H278.629L280.487 276.273H281.68L283.538 283.381H283.624L285.447 276.273H286.521L284.135 285H283.044L281.118 278.045H281.05L279.124 285H278.033ZM289.837 285.136C289.206 285.136 288.662 284.997 288.205 284.719C287.75 284.438 287.399 284.045 287.152 283.543C286.908 283.037 286.786 282.449 286.786 281.778C286.786 281.108 286.908 280.517 287.152 280.006C287.399 279.491 287.743 279.091 288.183 278.804C288.626 278.514 289.143 278.369 289.734 278.369C290.075 278.369 290.412 278.426 290.744 278.54C291.077 278.653 291.379 278.838 291.652 279.094C291.925 279.347 292.142 279.682 292.304 280.099C292.466 280.517 292.547 281.031 292.547 281.642V282.068H287.501V281.199H291.524C291.524 280.83 291.45 280.5 291.303 280.21C291.158 279.92 290.95 279.692 290.68 279.524C290.413 279.357 290.098 279.273 289.734 279.273C289.334 279.273 288.987 279.372 288.695 279.571C288.405 279.767 288.182 280.023 288.026 280.338C287.869 280.653 287.791 280.991 287.791 281.352V281.932C287.791 282.426 287.876 282.845 288.047 283.189C288.22 283.53 288.46 283.79 288.767 283.969C289.074 284.145 289.43 284.233 289.837 284.233C290.101 284.233 290.339 284.196 290.553 284.122C290.768 284.045 290.955 283.932 291.111 283.781C291.267 283.628 291.388 283.437 291.473 283.21L292.445 283.483C292.342 283.812 292.17 284.102 291.929 284.352C291.688 284.599 291.389 284.793 291.034 284.932C290.679 285.068 290.28 285.136 289.837 285.136ZM296.548 285.136C296.003 285.136 295.521 284.999 295.104 284.723C294.686 284.445 294.359 284.053 294.124 283.547C293.888 283.038 293.77 282.438 293.77 281.744C293.77 281.057 293.888 280.46 294.124 279.955C294.359 279.449 294.688 279.058 295.108 278.783C295.528 278.507 296.014 278.369 296.565 278.369C296.991 278.369 297.328 278.44 297.575 278.582C297.825 278.722 298.016 278.881 298.146 279.06C298.28 279.236 298.384 279.381 298.457 279.494H298.543V276.273H299.548V285H298.577V283.994H298.457C298.384 284.114 298.278 284.264 298.142 284.446C298.006 284.625 297.811 284.786 297.558 284.928C297.305 285.067 296.969 285.136 296.548 285.136ZM296.685 284.233C297.088 284.233 297.429 284.128 297.707 283.918C297.986 283.705 298.197 283.411 298.342 283.036C298.487 282.658 298.56 282.222 298.56 281.727C298.56 281.239 298.489 280.811 298.347 280.445C298.205 280.075 297.994 279.788 297.716 279.584C297.438 279.376 297.094 279.273 296.685 279.273C296.259 279.273 295.903 279.382 295.619 279.601C295.338 279.817 295.126 280.111 294.984 280.483C294.845 280.852 294.776 281.267 294.776 281.727C294.776 282.193 294.847 282.616 294.989 282.997C295.134 283.375 295.347 283.676 295.628 283.901C295.912 284.122 296.264 284.233 296.685 284.233Z" fill="#667085"/>
<path d="M372.699 277.21V276.273H379.244V277.21H376.5V285H375.443V277.21H372.699ZM381.744 281.062V285H380.739V276.273H381.744V279.477H381.83C381.983 279.139 382.213 278.871 382.52 278.672C382.83 278.47 383.242 278.369 383.756 278.369C384.202 278.369 384.593 278.459 384.928 278.638C385.263 278.814 385.523 279.085 385.708 279.452C385.895 279.815 385.989 280.278 385.989 280.841V285H384.983V280.909C384.983 280.389 384.848 279.987 384.578 279.703C384.311 279.416 383.941 279.273 383.466 279.273C383.137 279.273 382.841 279.342 382.58 279.482C382.321 279.621 382.117 279.824 381.966 280.091C381.818 280.358 381.744 280.682 381.744 281.062ZM391.954 282.324V278.455H392.959V285H391.954V283.892H391.885C391.732 284.224 391.493 284.507 391.17 284.74C390.846 284.97 390.437 285.085 389.942 285.085C389.533 285.085 389.17 284.996 388.851 284.817C388.533 284.635 388.283 284.362 388.101 283.999C387.92 283.632 387.829 283.17 387.829 282.614V278.455H388.834V282.545C388.834 283.023 388.968 283.403 389.235 283.688C389.505 283.972 389.849 284.114 390.266 284.114C390.516 284.114 390.77 284.05 391.029 283.922C391.29 283.794 391.509 283.598 391.685 283.334C391.864 283.07 391.954 282.733 391.954 282.324Z" fill="#667085"/>
<path d="M471.914 285V276.273H477.147V277.21H472.971V280.159H476.755V281.097H472.971V285H471.914ZM478.751 285V278.455H479.722V279.443H479.79C479.91 279.119 480.126 278.857 480.438 278.655C480.751 278.453 481.103 278.352 481.495 278.352C481.569 278.352 481.661 278.354 481.772 278.357C481.883 278.359 481.966 278.364 482.023 278.369V279.392C481.989 279.384 481.911 279.371 481.789 279.354C481.67 279.334 481.543 279.324 481.41 279.324C481.091 279.324 480.807 279.391 480.557 279.524C480.31 279.655 480.114 279.837 479.969 280.07C479.827 280.3 479.756 280.562 479.756 280.858V285H478.751ZM483.215 285V278.455H484.221V285H483.215ZM483.727 277.364C483.531 277.364 483.362 277.297 483.22 277.163C483.08 277.03 483.011 276.869 483.011 276.682C483.011 276.494 483.08 276.334 483.22 276.2C483.362 276.067 483.531 276 483.727 276C483.923 276 484.09 276.067 484.23 276.2C484.372 276.334 484.443 276.494 484.443 276.682C484.443 276.869 484.372 277.03 484.23 277.163C484.09 277.297 483.923 277.364 483.727 277.364Z" fill="#667085"/>
<path d="M569.443 278.455C569.392 278.023 569.184 277.688 568.821 277.449C568.457 277.21 568.011 277.091 567.483 277.091C567.096 277.091 566.758 277.153 566.468 277.278C566.181 277.403 565.957 277.575 565.795 277.794C565.636 278.013 565.556 278.261 565.556 278.54C565.556 278.773 565.612 278.973 565.723 279.141C565.836 279.305 565.981 279.443 566.157 279.554C566.333 279.662 566.518 279.751 566.711 279.822C566.904 279.891 567.082 279.946 567.244 279.989L568.13 280.227C568.358 280.287 568.61 280.369 568.889 280.474C569.17 280.58 569.439 280.723 569.694 280.905C569.953 281.084 570.166 281.314 570.333 281.595C570.501 281.876 570.585 282.222 570.585 282.631C570.585 283.102 570.461 283.528 570.214 283.909C569.97 284.29 569.612 284.592 569.14 284.817C568.672 285.041 568.102 285.153 567.431 285.153C566.806 285.153 566.265 285.053 565.808 284.851C565.353 284.649 564.995 284.368 564.734 284.007C564.475 283.646 564.329 283.227 564.295 282.75H565.386C565.414 283.08 565.525 283.352 565.718 283.568C565.914 283.781 566.162 283.94 566.46 284.045C566.761 284.148 567.085 284.199 567.431 284.199C567.835 284.199 568.197 284.134 568.518 284.003C568.839 283.869 569.093 283.685 569.281 283.449C569.468 283.21 569.562 282.932 569.562 282.614C569.562 282.324 569.481 282.088 569.319 281.906C569.157 281.724 568.944 281.577 568.68 281.463C568.416 281.349 568.13 281.25 567.824 281.165L566.75 280.858C566.068 280.662 565.528 280.382 565.13 280.018C564.733 279.655 564.534 279.179 564.534 278.591C564.534 278.102 564.666 277.676 564.93 277.312C565.197 276.946 565.555 276.662 566.004 276.46C566.456 276.256 566.96 276.153 567.517 276.153C568.079 276.153 568.579 276.254 569.017 276.456C569.454 276.655 569.801 276.928 570.056 277.274C570.315 277.621 570.451 278.014 570.466 278.455H569.443ZM574.112 285.153C573.697 285.153 573.321 285.075 572.983 284.919C572.645 284.76 572.376 284.531 572.178 284.233C571.979 283.932 571.879 283.568 571.879 283.142C571.879 282.767 571.953 282.463 572.101 282.23C572.249 281.994 572.446 281.81 572.693 281.676C572.94 281.543 573.213 281.443 573.511 281.378C573.813 281.31 574.115 281.256 574.419 281.216C574.817 281.165 575.139 281.126 575.386 281.101C575.636 281.072 575.818 281.026 575.932 280.96C576.048 280.895 576.107 280.781 576.107 280.619V280.585C576.107 280.165 575.991 279.838 575.761 279.605C575.534 279.372 575.189 279.256 574.726 279.256C574.246 279.256 573.869 279.361 573.597 279.571C573.324 279.781 573.132 280.006 573.021 280.244L572.067 279.903C572.237 279.506 572.464 279.196 572.749 278.974C573.036 278.75 573.348 278.594 573.686 278.506C574.027 278.415 574.362 278.369 574.692 278.369C574.902 278.369 575.143 278.395 575.416 278.446C575.692 278.494 575.957 278.595 576.213 278.749C576.472 278.902 576.686 279.134 576.857 279.443C577.027 279.753 577.112 280.168 577.112 280.688V285H576.107V284.114H576.055C575.987 284.256 575.874 284.408 575.714 284.57C575.555 284.732 575.344 284.869 575.08 284.983C574.815 285.097 574.493 285.153 574.112 285.153ZM574.266 284.25C574.663 284.25 574.999 284.172 575.271 284.016C575.547 283.859 575.754 283.658 575.893 283.411C576.036 283.163 576.107 282.903 576.107 282.631V281.71C576.064 281.761 575.97 281.808 575.825 281.851C575.683 281.891 575.518 281.926 575.331 281.957C575.146 281.986 574.966 282.011 574.79 282.034C574.616 282.054 574.476 282.071 574.368 282.085C574.107 282.119 573.862 282.175 573.635 282.251C573.411 282.325 573.229 282.437 573.089 282.588C572.953 282.736 572.885 282.937 572.885 283.193C572.885 283.543 573.014 283.807 573.273 283.986C573.534 284.162 573.865 284.25 574.266 284.25ZM581.794 278.455V279.307H578.402V278.455H581.794ZM579.391 276.886H580.397V283.125C580.397 283.409 580.438 283.622 580.52 283.764C580.605 283.903 580.713 283.997 580.844 284.045C580.978 284.091 581.118 284.114 581.266 284.114C581.377 284.114 581.468 284.108 581.539 284.097C581.61 284.082 581.667 284.071 581.709 284.062L581.914 284.966C581.846 284.991 581.75 285.017 581.628 285.043C581.506 285.071 581.351 285.085 581.164 285.085C580.88 285.085 580.601 285.024 580.328 284.902C580.059 284.78 579.834 284.594 579.655 284.344C579.479 284.094 579.391 283.778 579.391 283.398V276.886Z" fill="#667085"/>
<path d="M663.007 278.455C662.956 278.023 662.749 277.688 662.385 277.449C662.021 277.21 661.575 277.091 661.047 277.091C660.661 277.091 660.323 277.153 660.033 277.278C659.746 277.403 659.521 277.575 659.36 277.794C659.2 278.013 659.121 278.261 659.121 278.54C659.121 278.773 659.176 278.973 659.287 279.141C659.401 279.305 659.546 279.443 659.722 279.554C659.898 279.662 660.083 279.751 660.276 279.822C660.469 279.891 660.646 279.946 660.808 279.989L661.695 280.227C661.922 280.287 662.175 280.369 662.453 280.474C662.735 280.58 663.003 280.723 663.259 280.905C663.517 281.084 663.73 281.314 663.898 281.595C664.066 281.876 664.149 282.222 664.149 282.631C664.149 283.102 664.026 283.528 663.779 283.909C663.534 284.29 663.176 284.592 662.705 284.817C662.236 285.041 661.666 285.153 660.996 285.153C660.371 285.153 659.83 285.053 659.372 284.851C658.918 284.649 658.56 284.368 658.298 284.007C658.04 283.646 657.894 283.227 657.86 282.75H658.95C658.979 283.08 659.09 283.352 659.283 283.568C659.479 283.781 659.726 283.94 660.024 284.045C660.325 284.148 660.649 284.199 660.996 284.199C661.399 284.199 661.762 284.134 662.083 284.003C662.404 283.869 662.658 283.685 662.845 283.449C663.033 283.21 663.127 282.932 663.127 282.614C663.127 282.324 663.046 282.088 662.884 281.906C662.722 281.724 662.509 281.577 662.244 281.463C661.98 281.349 661.695 281.25 661.388 281.165L660.314 280.858C659.632 280.662 659.093 280.382 658.695 280.018C658.297 279.655 658.098 279.179 658.098 278.591C658.098 278.102 658.23 277.676 658.494 277.312C658.762 276.946 659.119 276.662 659.568 276.46C660.02 276.256 660.524 276.153 661.081 276.153C661.644 276.153 662.144 276.254 662.581 276.456C663.019 276.655 663.365 276.928 663.621 277.274C663.879 277.621 664.016 278.014 664.03 278.455H663.007ZM669.876 282.324V278.455H670.881V285H669.876V283.892H669.807C669.654 284.224 669.415 284.507 669.091 284.74C668.768 284.97 668.358 285.085 667.864 285.085C667.455 285.085 667.091 284.996 666.773 284.817C666.455 284.635 666.205 284.362 666.023 283.999C665.841 283.632 665.751 283.17 665.751 282.614V278.455H666.756V282.545C666.756 283.023 666.89 283.403 667.157 283.688C667.427 283.972 667.77 284.114 668.188 284.114C668.438 284.114 668.692 284.05 668.951 283.922C669.212 283.794 669.431 283.598 669.607 283.334C669.786 283.07 669.876 282.733 669.876 282.324ZM673.729 281.062V285H672.723V278.455H673.695V279.477H673.78C673.933 279.145 674.166 278.878 674.479 278.676C674.791 278.472 675.195 278.369 675.689 278.369C676.132 278.369 676.52 278.46 676.852 278.642C677.185 278.821 677.443 279.094 677.628 279.46C677.813 279.824 677.905 280.284 677.905 280.841V285H676.899V280.909C676.899 280.395 676.766 279.994 676.499 279.707C676.232 279.418 675.865 279.273 675.399 279.273C675.078 279.273 674.791 279.342 674.539 279.482C674.289 279.621 674.091 279.824 673.946 280.091C673.801 280.358 673.729 280.682 673.729 281.062Z" fill="#667085"/>
<g style="mix-blend-mode:multiply" opacity="0.1">
<path d="M700.743 93.2676C710.371 93.2676 710.371 78.125 720 78.125V266H46V174.93C56.431 174.93 55.6285 180.5 65.2571 180.5C74.8857 180.5 74.8857 164.681 84.5143 164.681C94.1429 164.681 92.5381 169.549 103.771 169.549C115.005 169.549 111.795 178.661 123.029 178.661C134.262 178.661 131.855 175.2 142.286 175.2C152.717 175.2 150.711 158.705 161.543 158.705C172.375 158.705 169.567 164.086 180.8 164.086C192.033 164.086 190.027 171.496 200.057 171.496C210.087 171.496 208.482 146.889 219.314 146.889C230.146 146.889 228.943 155.406 238.571 155.406C248.2 155.406 246.595 143.482 257.829 143.482C269.062 143.482 266.655 151.107 277.086 151.107C287.517 151.107 285.912 119.929 296.343 119.929C306.774 119.929 304.768 128.609 315.6 128.609C326.432 128.609 323.624 134.342 334.857 134.342C346.09 134.342 343.282 119.47 354.114 119.47C364.946 119.47 362.138 126.771 373.371 126.771C384.605 126.771 382.599 114.738 392.629 114.738C402.658 114.738 401.455 94.6197 411.886 94.6197C422.317 94.6197 420.712 128.285 431.143 128.285C441.574 128.285 440.37 104.706 450.4 104.706C460.43 104.706 458.424 115.035 469.657 115.035C480.89 115.035 478.483 124.31 488.914 124.31C499.345 124.31 498.142 108.951 508.171 108.951C518.201 108.951 517.399 123.553 527.429 123.553C537.458 123.553 536.255 117.063 546.686 117.063C557.117 117.063 555.512 103.678 565.943 103.678C576.374 103.678 574.769 109.032 585.2 109.032C595.631 109.032 594.829 89.482 604.457 89.482C614.086 89.482 612.481 116.279 623.714 116.279C634.948 116.279 632.139 98.0808 642.971 98.0808C653.804 98.0808 652.199 105.571 662.229 105.571C672.258 105.571 671.456 86.9131 681.486 86.9131C691.515 86.9131 691.114 93.2676 700.743 93.2676Z" fill="url(#paint0_linear_4584_41839)"/>
</g>
<path d="M720 78.125C710.371 78.125 710.371 93.2676 700.743 93.2676C691.114 93.2676 691.515 86.9131 681.486 86.9131C671.456 86.9131 672.258 105.571 662.229 105.571C652.199 105.571 653.804 98.0808 642.971 98.0808C632.139 98.0808 634.948 116.279 623.714 116.279C612.481 116.279 614.086 89.482 604.457 89.482C594.829 89.482 595.631 109.032 585.2 109.032C574.769 109.032 576.374 103.678 565.943 103.678C555.512 103.678 557.117 117.063 546.686 117.063C536.255 117.063 537.458 123.553 527.429 123.553C517.399 123.553 518.201 108.951 508.171 108.951C498.142 108.951 499.345 124.31 488.914 124.31C478.483 124.31 480.89 115.035 469.657 115.035C458.424 115.035 460.43 104.706 450.4 104.706C440.37 104.706 441.574 128.285 431.143 128.285C420.712 128.285 422.317 94.6197 411.886 94.6197C401.455 94.6197 402.658 114.738 392.629 114.738C382.599 114.738 384.605 126.771 373.371 126.771C362.138 126.771 364.946 119.47 354.114 119.47C343.282 119.47 346.09 134.342 334.857 134.342C323.624 134.342 326.432 128.609 315.6 128.609C304.768 128.609 306.774 119.929 296.343 119.929C285.912 119.929 287.517 151.107 277.086 151.107C266.655 151.107 269.062 143.482 257.829 143.482C246.595 143.482 248.2 155.406 238.571 155.406C228.943 155.406 230.146 146.889 219.314 146.889C208.482 146.889 210.087 171.496 200.057 171.496C190.027 171.496 192.033 164.086 180.8 164.086C169.567 164.086 172.375 158.705 161.543 158.705C150.711 158.705 152.717 175.2 142.286 175.2C131.855 175.2 134.262 178.661 123.029 178.661C111.795 178.661 115.005 169.549 103.771 169.549C92.5381 169.549 94.1429 164.681 84.5143 164.681C74.8857 164.681 74.8857 180.5 65.2571 180.5C55.6286 180.5 56.4309 174.93 46 174.93" stroke="#729E86" stroke-width="2" stroke-linecap="round" stroke-linejoin="round"/>
<circle cx="194" cy="170" r="3" fill="white" stroke="#163725" stroke-width="2"/>
<circle cx="289" cy="128" r="3" fill="white" stroke="#163725" stroke-width="2"/>
<circle cx="383" cy="120" r="3" fill="white" stroke="#163725" stroke-width="2"/>
<circle cx="478" cy="120" r="3" fill="white" stroke="#163725" stroke-width="2"/>
<circle cx="668" cy="100" r="3" fill="white" stroke="#163725" stroke-width="2"/>
<circle cx="658" cy="33" r="3" fill="white" stroke="#163725" stroke-width="2"/>
<path d="M668.695 37V28.6H672.331C673.083 28.6 673.731 28.724 674.275 28.972C674.819 29.212 675.239 29.56 675.535 30.016C675.831 30.472 675.979 31.016 675.979 31.648C675.979 32.272 675.831 32.812 675.535 33.268C675.239 33.724 674.819 34.076 674.275 34.324C673.731 34.564 673.083 34.684 672.331 34.684H669.775L670.639 33.808V37H668.695ZM670.639 34.024L669.775 33.1H672.223C672.823 33.1 673.271 32.972 673.567 32.716C673.863 32.46 674.011 32.104 674.011 31.648C674.011 31.184 673.863 30.824 673.567 30.568C673.271 30.312 672.823 30.184 672.223 30.184H669.775L670.639 29.26V34.024ZM681.137 37V35.74L681.017 35.464V33.208C681.017 32.808 680.893 32.496 680.645 32.272C680.405 32.048 680.033 31.936 679.529 31.936C679.185 31.936 678.845 31.992 678.509 32.104C678.181 32.208 677.901 32.352 677.669 32.536L676.997 31.228C677.349 30.98 677.773 30.788 678.269 30.652C678.765 30.516 679.269 30.448 679.781 30.448C680.765 30.448 681.529 30.68 682.073 31.144C682.617 31.608 682.889 32.332 682.889 33.316V37H681.137ZM679.169 37.096C678.665 37.096 678.233 37.012 677.873 36.844C677.513 36.668 677.237 36.432 677.045 36.136C676.853 35.84 676.757 35.508 676.757 35.14C676.757 34.756 676.849 34.42 677.033 34.132C677.225 33.844 677.525 33.62 677.933 33.46C678.341 33.292 678.873 33.208 679.529 33.208H681.245V34.3H679.733C679.293 34.3 678.989 34.372 678.821 34.516C678.661 34.66 678.581 34.84 678.581 35.056C678.581 35.296 678.673 35.488 678.857 35.632C679.049 35.768 679.309 35.836 679.637 35.836C679.949 35.836 680.229 35.764 680.477 35.62C680.725 35.468 680.905 35.248 681.017 34.96L681.305 35.824C681.169 36.24 680.921 36.556 680.561 36.772C680.201 36.988 679.737 37.096 679.169 37.096ZM687.223 37.096C686.463 37.096 685.871 36.904 685.447 36.52C685.023 36.128 684.811 35.548 684.811 34.78V29.116H686.683V34.756C686.683 35.028 686.755 35.24 686.899 35.392C687.043 35.536 687.239 35.608 687.487 35.608C687.783 35.608 688.035 35.528 688.243 35.368L688.747 36.688C688.555 36.824 688.323 36.928 688.051 37C687.787 37.064 687.511 37.096 687.223 37.096ZM683.815 32.128V30.688H688.291V32.128H683.815ZM689.798 37V30.544H691.67V37H689.798ZM690.734 29.644C690.39 29.644 690.11 29.544 689.894 29.344C689.678 29.144 689.57 28.896 689.57 28.6C689.57 28.304 689.678 28.056 689.894 27.856C690.11 27.656 690.39 27.556 690.734 27.556C691.078 27.556 691.358 27.652 691.574 27.844C691.79 28.028 691.898 28.268 691.898 28.564C691.898 28.876 691.79 29.136 691.574 29.344C691.366 29.544 691.086 29.644 690.734 29.644ZM696.611 37.096C695.875 37.096 695.227 36.952 694.667 36.664C694.115 36.376 693.687 35.984 693.383 35.488C693.079 34.984 692.927 34.412 692.927 33.772C692.927 33.124 693.075 32.552 693.371 32.056C693.675 31.552 694.087 31.16 694.607 30.88C695.127 30.592 695.715 30.448 696.371 30.448C697.003 30.448 697.571 30.584 698.075 30.856C698.587 31.12 698.991 31.504 699.287 32.008C699.583 32.504 699.731 33.1 699.731 33.796C699.731 33.868 699.727 33.952 699.719 34.048C699.711 34.136 699.703 34.22 699.695 34.3H694.451V33.208H698.711L697.991 33.532C697.991 33.196 697.923 32.904 697.787 32.656C697.651 32.408 697.463 32.216 697.223 32.08C696.983 31.936 696.703 31.864 696.383 31.864C696.063 31.864 695.779 31.936 695.531 32.08C695.291 32.216 695.103 32.412 694.967 32.668C694.831 32.916 694.763 33.212 694.763 33.556V33.844C694.763 34.196 694.839 34.508 694.991 34.78C695.151 35.044 695.371 35.248 695.651 35.392C695.939 35.528 696.275 35.596 696.659 35.596C697.003 35.596 697.303 35.544 697.559 35.44C697.823 35.336 698.063 35.18 698.279 34.972L699.275 36.052C698.979 36.388 698.607 36.648 698.159 36.832C697.711 37.008 697.195 37.096 696.611 37.096ZM704.901 30.448C705.413 30.448 705.869 30.552 706.269 30.76C706.677 30.96 706.997 31.272 707.229 31.696C707.461 32.112 707.577 32.648 707.577 33.304V37H705.705V33.592C705.705 33.072 705.589 32.688 705.357 32.44C705.133 32.192 704.813 32.068 704.397 32.068C704.101 32.068 703.833 32.132 703.593 32.26C703.361 32.38 703.177 32.568 703.041 32.824C702.913 33.08 702.849 33.408 702.849 33.808V37H700.977V30.544H702.765V32.332L702.429 31.792C702.661 31.36 702.993 31.028 703.425 30.796C703.857 30.564 704.349 30.448 704.901 30.448ZM711.914 37.096C711.154 37.096 710.562 36.904 710.138 36.52C709.714 36.128 709.502 35.548 709.502 34.78V29.116H711.374V34.756C711.374 35.028 711.446 35.24 711.59 35.392C711.734 35.536 711.93 35.608 712.178 35.608C712.474 35.608 712.726 35.528 712.934 35.368L713.438 36.688C713.246 36.824 713.014 36.928 712.742 37C712.478 37.064 712.202 37.096 711.914 37.096ZM708.506 32.128V30.688H712.982V32.128H708.506ZM716.661 37.096C716.109 37.096 715.577 37.032 715.065 36.904C714.561 36.768 714.161 36.6 713.865 36.4L714.489 35.056C714.785 35.24 715.133 35.392 715.533 35.512C715.941 35.624 716.341 35.68 716.733 35.68C717.165 35.68 717.469 35.628 717.645 35.524C717.829 35.42 717.921 35.276 717.921 35.092C717.921 34.94 717.849 34.828 717.705 34.756C717.569 34.676 717.385 34.616 717.153 34.576C716.921 34.536 716.665 34.496 716.385 34.456C716.113 34.416 715.837 34.364 715.557 34.3C715.277 34.228 715.021 34.124 714.789 33.988C714.557 33.852 714.369 33.668 714.225 33.436C714.089 33.204 714.021 32.904 714.021 32.536C714.021 32.128 714.137 31.768 714.369 31.456C714.609 31.144 714.953 30.9 715.401 30.724C715.849 30.54 716.385 30.448 717.009 30.448C717.449 30.448 717.897 30.496 718.353 30.592C718.809 30.688 719.189 30.828 719.493 31.012L718.869 32.344C718.557 32.16 718.241 32.036 717.921 31.972C717.609 31.9 717.305 31.864 717.009 31.864C716.593 31.864 716.289 31.92 716.097 32.032C715.905 32.144 715.809 32.288 715.809 32.464C715.809 32.624 715.877 32.744 716.013 32.824C716.157 32.904 716.345 32.968 716.577 33.016C716.809 33.064 717.061 33.108 717.333 33.148C717.613 33.18 717.893 33.232 718.173 33.304C718.453 33.376 718.705 33.48 718.929 33.616C719.161 33.744 719.349 33.924 719.493 34.156C719.637 34.38 719.709 34.676 719.709 35.044C719.709 35.444 719.589 35.8 719.349 36.112C719.109 36.416 718.761 36.656 718.305 36.832C717.857 37.008 717.309 37.096 716.661 37.096Z" fill="#163725"/>
<defs>
<linearGradient id="paint0_linear_4584_41839" x1="720" y1="78.125" x2="100.615" y2="369.152" gradientUnits="userSpaceOnUse">
<stop offset="0.254982" stop-color="#2C6E49"/>
<stop offset="1" stop-color="#38A96A"/>
</linearGradient>
</defs>
</svg>
