<svg width="40" height="41" viewBox="0 0 40 41" fill="none" xmlns="http://www.w3.org/2000/svg">
<g clip-path="url(#clip0_4583_41833)">
<path d="M9.83866 2.85512C12.2024 2.08762 18.9062 4.80824 19.7649 5.78699C20.618 6.76074 15.0487 7.16324 12.0249 7.61137C8.90491 8.08074 5.79304 8.64137 4.94241 7.65949C4.09241 6.69137 7.47804 3.62762 9.83866 2.85512Z" fill="#2C6E49"/>
<path d="M26.1077 1.14886C28.809 0.360109 36.0527 3.60386 36.9277 4.70886C37.794 5.82761 31.5652 6.10636 28.1652 6.51698C24.6459 6.93823 21.1209 7.46698 20.254 6.35323C19.3815 5.24823 23.4159 1.92948 26.1096 1.14886" fill="#2C6E49"/>
<path d="M10.2519 5.62929C11.8751 4.56179 18.8607 5.65366 20.0382 6.32429C21.2269 6.98929 16.7226 8.33616 14.3819 9.25616C11.9751 10.208 9.61694 11.2518 8.43131 10.5705C7.23819 9.90804 8.63569 6.70741 10.2532 5.62929" fill="#2C6E49"/>
<path d="M16.8018 0.556285C19.1649 0.76816 21.6518 4.90191 21.4212 5.88128C21.1987 6.85503 16.8287 5.35003 14.2555 4.69316C11.6055 4.01941 8.87179 3.42378 9.10804 2.45003C9.33617 1.46566 14.433 0.34691 16.8018 0.556285Z" fill="#2C6E49"/>
<path d="M24.8961 5.17826C27.268 5.38201 29.7524 9.51889 29.5211 10.4951C29.2905 11.4745 24.923 9.96639 22.3499 9.31201C19.7074 8.64139 16.9655 8.03764 17.2018 7.06139C17.4255 6.08514 22.533 4.97201 24.8961 5.18014" fill="#2C6E49"/>
<path d="M2.94531 32.7724C2.94531 38.6668 11.3691 40.3837 20.3803 40.3837C29.3909 40.3837 37.8178 38.6668 37.8178 32.7724C37.8178 26.8893 29.3916 9.31494 20.3803 9.31494C11.3691 9.31494 2.94531 26.8899 2.94531 32.7724Z" fill="#2C6E49"/>
<path d="M25.7876 10.0395C25.7877 10.3326 25.7301 10.6229 25.618 10.8938C25.5059 11.1646 25.3415 11.4108 25.1342 11.618C24.927 11.8253 24.6809 11.9897 24.41 12.1018C24.1391 12.2139 23.8488 12.2715 23.5557 12.2714H17.2026C16.6106 12.2714 16.043 12.0362 15.6244 11.6177C15.2058 11.1991 14.9707 10.6314 14.9707 10.0395C14.9707 9.44756 15.2058 8.87988 15.6244 8.46132C16.043 8.04276 16.6106 7.80762 17.2026 7.80762H23.5551C23.8482 7.80754 24.1385 7.8652 24.4094 7.97733C24.6802 8.08945 24.9263 8.25384 25.1337 8.4611C25.341 8.66835 25.5054 8.91442 25.6176 9.18525C25.7298 9.45607 25.7876 9.74635 25.7876 10.0395Z" fill="#845939"/>
<path d="M24.4922 26.1037C23.8003 25.3656 22.8453 24.8718 21.9384 24.4618C20.994 24.0318 19.6259 23.6812 19.0247 22.7556C18.5203 21.9806 19.2153 21.1675 19.9234 20.9312C21.0634 20.5481 22.4697 21.0093 23.4703 21.5725C23.969 21.8512 24.4953 21.5781 24.6853 21.0787C24.8947 20.5262 25.104 19.9731 25.3103 19.4212C25.4365 19.0856 25.2328 18.6562 24.9328 18.4875C24.0234 17.9831 23.0759 17.7068 22.0753 17.5756V15.8856C22.0753 15.435 21.6997 15.0593 21.249 15.0593H19.6903C19.2422 15.0593 18.864 15.435 18.864 15.8856V17.7731C17.3215 18.2181 15.9159 19.2112 15.3684 20.7887C14.7597 22.535 15.1297 24.3431 16.4253 25.6656C17.1203 26.3768 18.059 26.8437 18.9503 27.2481C19.9559 27.7018 21.1928 28.0287 21.8422 28.9975C22.5372 30.0331 21.6384 31.0549 20.6672 31.3481C19.3634 31.7393 17.7834 31.1525 16.6884 30.4706C16.2084 30.1706 15.6503 30.4787 15.4759 30.9643L14.8722 32.6462C14.7434 33.0056 14.9578 33.3868 15.2528 33.5793C16.2859 34.2556 17.4715 34.5906 18.6865 34.7306V36.5093C18.6865 36.7512 18.7753 36.9362 18.9065 37.0674C18.9147 37.0762 18.9228 37.0837 18.9278 37.0918C18.9353 37.0996 18.9434 37.1067 18.9522 37.1131C19.0834 37.2475 19.2684 37.3356 19.5103 37.3356H21.0959C21.3142 37.3336 21.523 37.2459 21.6771 37.0913C21.8312 36.9367 21.9184 36.7276 21.9197 36.5093V34.5456C23.634 34.0518 24.959 32.9443 25.6272 31.2243C26.3122 29.47 25.7297 27.4281 24.4878 26.1031" fill="white"/>
<path d="M24.4922 24.9624C23.8003 24.2274 22.8453 23.7336 21.9384 23.3236C20.994 22.8936 19.6259 22.543 19.0247 21.6149C18.5203 20.8449 19.2153 20.0293 19.9234 19.7905C21.0634 19.4099 22.4697 19.8686 23.4703 20.4318C23.969 20.7136 24.4953 20.4368 24.6853 19.938C24.8947 19.3855 25.104 18.8355 25.3103 18.283C25.4365 17.9449 25.2328 17.5155 24.9328 17.3493C24.0234 16.8424 23.0759 16.5686 22.0753 16.4349V14.7449C22.0753 14.2968 21.6997 13.9211 21.249 13.9211H19.6903C19.2422 13.9211 18.864 14.2968 18.864 14.7449V16.6324C17.3215 17.078 15.9159 18.073 15.3684 19.6505C14.7597 21.3968 15.1297 23.2049 16.4253 24.5249C17.1203 25.2361 18.059 25.7055 18.9503 26.1074C19.9559 26.5611 21.1928 26.888 21.8422 27.8568C22.5372 28.8918 21.6384 29.9143 20.6672 30.2093C19.3634 30.6011 17.7834 30.0143 16.6884 29.3299C16.2084 29.0318 15.6503 29.3405 15.4759 29.8236L14.8722 31.508C14.7434 31.8643 14.9578 32.2486 15.2528 32.4411C16.2859 33.1149 17.4715 33.4524 18.6865 33.5924V35.3711C18.6865 35.6099 18.7753 35.7955 18.9065 35.9293C18.9147 35.938 18.9228 35.9455 18.9278 35.9536C18.9365 35.96 18.9447 35.9671 18.9522 35.9749C19.0834 36.1061 19.2684 36.1949 19.5103 36.1949H21.0959C21.3137 36.1929 21.522 36.1056 21.676 35.9517C21.8301 35.7978 21.9175 35.5895 21.9197 35.3718V33.4055C23.634 32.9124 24.959 31.8068 25.6272 30.0849C26.3122 28.3311 25.7297 26.2868 24.4878 24.9618" fill="white"/>
</g>
<defs>
<clipPath id="clip0_4583_41833">
<rect width="40" height="40" fill="white" transform="translate(0 0.5)"/>
</clipPath>
</defs>
</svg>
