<svg width="815" height="379" viewBox="0 0 815 379" fill="none" xmlns="http://www.w3.org/2000/svg">
<g opacity="0.1">
<path d="M11 288.655C16.6616 272.695 27.8273 260.763 40.2608 247.69C94.3944 190.772 159.597 141.384 233.031 102.826C387.203 21.8761 572.162 -19.2618 747.232 36.9288C847.31 69.0499 957.111 140.413 972.331 236.66C980.975 291.317 950.068 338.753 906.029 376.982C858.835 417.95 797.788 450.636 731.999 464.938C681.122 475.998 592.589 477.945 587.01 417.114C583.915 383.373 603.95 351.605 627.558 325.914C676.739 272.396 748.122 240.081 823.836 221.182C955.447 188.331 1095.97 201.131 1209.92 267.524C1253.22 292.749 1340.66 367.546 1371 414.193" stroke="white" stroke-width="20" stroke-linecap="round" stroke-linejoin="round"/>
</g>
</svg>
