<svg width="40" height="28" viewBox="0 0 40 28" fill="none" xmlns="http://www.w3.org/2000/svg">
<path fill-rule="evenodd" clip-rule="evenodd" d="M12.096 1.10501C11.746 0.754711 11.3304 0.476786 10.8729 0.287104C10.4155 0.0974218 9.92513 -0.000302299 9.42991 -0.000488016C8.9347 -0.000673733 8.4443 0.0966825 7.98671 0.286022C7.52912 0.47536 7.1133 0.752974 6.763 1.10301L6.059 1.80701C5.37827 1.61318 4.65799 1.60567 3.97337 1.78527C3.28876 1.96487 2.66492 2.32498 2.167 2.82801C1.41929 3.58333 0.999865 4.6032 0.999865 5.66601C0.999865 6.72883 1.41929 7.7487 2.167 8.50401L3 9.34301V20H0V22H2.05C1.55338 22.4866 1.21293 23.1101 1.07208 23.7909C0.931221 24.4718 0.996342 25.1792 1.25913 25.8229C1.52192 26.4666 1.97048 27.0174 2.54759 27.4052C3.1247 27.7929 3.80422 28 4.4995 28C5.19478 28 5.8743 27.7929 6.45141 27.4052C7.02852 27.0174 7.47708 26.4666 7.73987 25.8229C8.00266 25.1792 8.06778 24.4718 7.92692 23.7909C7.78607 23.1101 7.44562 22.4866 6.949 22H33.051C32.5544 22.4866 32.2139 23.1101 32.0731 23.7909C31.9322 24.4718 31.9973 25.1792 32.2601 25.8229C32.5229 26.4666 32.9715 27.0174 33.5486 27.4052C34.1257 27.7929 34.8052 28 35.5005 28C36.1958 28 36.8753 27.7929 37.4524 27.4052C38.0295 27.0174 38.4781 26.4666 38.7409 25.8229C39.0037 25.1792 39.0688 24.4718 38.9279 23.7909C38.7871 23.1101 38.4466 22.4866 37.95 22H40V20H36V16.887C36.8587 16.6721 37.6207 16.1758 38.1645 15.4772C38.7082 14.7787 39.0024 13.9182 39 13.033C39 10.843 37.239 9.06601 35.066 9.06601H14.11C14.0695 9.06612 14.0294 9.05823 13.992 9.04278C13.9546 9.02734 13.9206 9.00464 13.892 8.97601L13.526 8.60601L13.895 8.23901C14.2454 7.88898 14.5233 7.47334 14.713 7.01585C14.9026 6.55835 15.0003 6.06797 15.0004 5.57272C15.0005 5.07747 14.903 4.58705 14.7135 4.12949C14.524 3.67192 14.2462 3.25618 13.896 2.90601L12.096 1.10601V1.10501ZM12.116 7.18801L12.481 6.82401C12.6455 6.65964 12.776 6.46446 12.865 6.24964C12.954 6.03481 12.9998 5.80455 12.9998 5.57201C12.9998 5.33947 12.954 5.10921 12.865 4.89439C12.776 4.67956 12.6455 4.48439 12.481 4.32001L10.681 2.52001C10.3492 2.1878 9.89897 2.00096 9.42941 2.00058C8.95986 2.00021 8.50937 2.18633 8.177 2.51801L7.827 2.86801L12.117 7.18801H12.116ZM34 20H5V11.356L10.275 16.667C10.487 16.88 10.773 17 11.072 17H34V20Z" fill="#1D4931"/>
</svg>
