<svg width="81" height="28" viewBox="0 0 81 28" fill="none" xmlns="http://www.w3.org/2000/svg">
<rect width="80.4555" height="28" rx="4" fill="#FF9600" fill-opacity="0.1"/>
<rect x="6.5" y="8.77246" width="10.4555" height="10.4555" rx="2.61388" fill="#FF9600"/>
<path d="M22.7053 18.5V10.1H25.9813C26.7173 10.1 27.3453 10.216 27.8653 10.448C28.3853 10.68 28.7853 11.016 29.0653 11.456C29.3453 11.896 29.4853 12.42 29.4853 13.028C29.4853 13.636 29.3453 14.16 29.0653 14.6C28.7853 15.032 28.3853 15.368 27.8653 15.608C27.3453 15.84 26.7173 15.956 25.9813 15.956H23.3653L23.9053 15.392V18.5H22.7053ZM23.9053 15.512L23.3653 14.912H25.9453C26.7133 14.912 27.2933 14.748 27.6853 14.42C28.0853 14.092 28.2853 13.628 28.2853 13.028C28.2853 12.428 28.0853 11.964 27.6853 11.636C27.2933 11.308 26.7133 11.144 25.9453 11.144H23.3653L23.9053 10.544V15.512ZM33.8888 18.572C33.2088 18.572 32.6088 18.432 32.0888 18.152C31.5768 17.872 31.1768 17.488 30.8888 17C30.6088 16.512 30.4688 15.952 30.4688 15.32C30.4688 14.688 30.6048 14.128 30.8768 13.64C31.1568 13.152 31.5368 12.772 32.0168 12.5C32.5048 12.22 33.0528 12.08 33.6608 12.08C34.2768 12.08 34.8208 12.216 35.2928 12.488C35.7648 12.76 36.1328 13.144 36.3968 13.64C36.6688 14.128 36.8048 14.7 36.8048 15.356C36.8048 15.404 36.8008 15.46 36.7928 15.524C36.7928 15.588 36.7888 15.648 36.7808 15.704H31.3688V14.876H36.1808L35.7128 15.164C35.7208 14.756 35.6368 14.392 35.4608 14.072C35.2848 13.752 35.0408 13.504 34.7288 13.328C34.4248 13.144 34.0688 13.052 33.6608 13.052C33.2608 13.052 32.9048 13.144 32.5928 13.328C32.2808 13.504 32.0368 13.756 31.8608 14.084C31.6848 14.404 31.5968 14.772 31.5968 15.188V15.38C31.5968 15.804 31.6928 16.184 31.8848 16.52C32.0848 16.848 32.3608 17.104 32.7128 17.288C33.0648 17.472 33.4688 17.564 33.9248 17.564C34.3008 17.564 34.6408 17.5 34.9448 17.372C35.2568 17.244 35.5288 17.052 35.7608 16.796L36.3968 17.54C36.1088 17.876 35.7488 18.132 35.3168 18.308C34.8928 18.484 34.4168 18.572 33.8888 18.572ZM41.8005 12.08C42.3205 12.08 42.7765 12.18 43.1685 12.38C43.5685 12.58 43.8805 12.884 44.1045 13.292C44.3285 13.7 44.4405 14.216 44.4405 14.84V18.5H43.2885V14.972C43.2885 14.356 43.1365 13.892 42.8325 13.58C42.5365 13.268 42.1165 13.112 41.5725 13.112C41.1645 13.112 40.8085 13.192 40.5045 13.352C40.2005 13.512 39.9645 13.748 39.7965 14.06C39.6365 14.372 39.5565 14.76 39.5565 15.224V18.5H38.4045V12.14H39.5085V13.856L39.3285 13.4C39.5365 12.984 39.8565 12.66 40.2885 12.428C40.7205 12.196 41.2245 12.08 41.8005 12.08ZM49.2005 18.572C48.5845 18.572 48.0325 18.436 47.5445 18.164C47.0645 17.892 46.6845 17.512 46.4045 17.024C46.1245 16.536 45.9845 15.968 45.9845 15.32C45.9845 14.672 46.1245 14.108 46.4045 13.628C46.6845 13.14 47.0645 12.76 47.5445 12.488C48.0325 12.216 48.5845 12.08 49.2005 12.08C49.7365 12.08 50.2205 12.2 50.6525 12.44C51.0845 12.68 51.4285 13.04 51.6845 13.52C51.9485 14 52.0805 14.6 52.0805 15.32C52.0805 16.04 51.9525 16.64 51.6965 17.12C51.4485 17.6 51.1085 17.964 50.6765 18.212C50.2445 18.452 49.7525 18.572 49.2005 18.572ZM49.2965 17.564C49.6965 17.564 50.0565 17.472 50.3765 17.288C50.7045 17.104 50.9605 16.844 51.1445 16.508C51.3365 16.164 51.4325 15.768 51.4325 15.32C51.4325 14.864 51.3365 14.472 51.1445 14.144C50.9605 13.808 50.7045 13.548 50.3765 13.364C50.0565 13.18 49.6965 13.088 49.2965 13.088C48.8885 13.088 48.5245 13.18 48.2045 13.364C47.8845 13.548 47.6285 13.808 47.4365 14.144C47.2445 14.472 47.1485 14.864 47.1485 15.32C47.1485 15.768 47.2445 16.164 47.4365 16.508C47.6285 16.844 47.8845 17.104 48.2045 17.288C48.5245 17.472 48.8885 17.564 49.2965 17.564ZM51.4685 18.5V16.784L51.5405 15.308L51.4205 13.832V9.596H52.5725V18.5H51.4685ZM54.7522 18.5V12.14H55.9042V18.5H54.7522ZM55.3282 10.916C55.1042 10.916 54.9162 10.844 54.7642 10.7C54.6202 10.556 54.5482 10.38 54.5482 10.172C54.5482 9.956 54.6202 9.776 54.7642 9.632C54.9162 9.488 55.1042 9.416 55.3282 9.416C55.5522 9.416 55.7362 9.488 55.8802 9.632C56.0322 9.768 56.1082 9.94 56.1082 10.148C56.1082 10.364 56.0362 10.548 55.8922 10.7C55.7482 10.844 55.5602 10.916 55.3282 10.916ZM61.4997 12.08C62.0197 12.08 62.4757 12.18 62.8677 12.38C63.2677 12.58 63.5797 12.884 63.8037 13.292C64.0277 13.7 64.1397 14.216 64.1397 14.84V18.5H62.9877V14.972C62.9877 14.356 62.8357 13.892 62.5317 13.58C62.2357 13.268 61.8157 13.112 61.2717 13.112C60.8637 13.112 60.5077 13.192 60.2037 13.352C59.8997 13.512 59.6637 13.748 59.4957 14.06C59.3357 14.372 59.2557 14.76 59.2557 15.224V18.5H58.1037V12.14H59.2077V13.856L59.0277 13.4C59.2357 12.984 59.5557 12.66 59.9877 12.428C60.4197 12.196 60.9237 12.08 61.4997 12.08ZM69.0557 20.9C68.4717 20.9 67.9037 20.816 67.3517 20.648C66.8077 20.488 66.3637 20.256 66.0197 19.952L66.5717 19.064C66.8677 19.32 67.2317 19.52 67.6637 19.664C68.0957 19.816 68.5477 19.892 69.0197 19.892C69.7717 19.892 70.3237 19.716 70.6757 19.364C71.0277 19.012 71.2037 18.476 71.2037 17.756V16.412L71.3237 15.152L71.2637 13.88V12.14H72.3557V17.636C72.3557 18.756 72.0757 19.58 71.5157 20.108C70.9557 20.636 70.1357 20.9 69.0557 20.9ZM68.9117 18.236C68.2957 18.236 67.7437 18.108 67.2557 17.852C66.7757 17.588 66.3917 17.224 66.1037 16.76C65.8237 16.296 65.6837 15.76 65.6837 15.152C65.6837 14.536 65.8237 14 66.1037 13.544C66.3917 13.08 66.7757 12.72 67.2557 12.464C67.7437 12.208 68.2957 12.08 68.9117 12.08C69.4557 12.08 69.9517 12.192 70.3997 12.416C70.8477 12.632 71.2037 12.968 71.4677 13.424C71.7397 13.88 71.8757 14.456 71.8757 15.152C71.8757 15.84 71.7397 16.412 71.4677 16.868C71.2037 17.324 70.8477 17.668 70.3997 17.9C69.9517 18.124 69.4557 18.236 68.9117 18.236ZM69.0437 17.228C69.4677 17.228 69.8437 17.14 70.1717 16.964C70.4997 16.788 70.7557 16.544 70.9397 16.232C71.1317 15.92 71.2277 15.56 71.2277 15.152C71.2277 14.744 71.1317 14.384 70.9397 14.072C70.7557 13.76 70.4997 13.52 70.1717 13.352C69.8437 13.176 69.4677 13.088 69.0437 13.088C68.6197 13.088 68.2397 13.176 67.9037 13.352C67.5757 13.52 67.3157 13.76 67.1237 14.072C66.9397 14.384 66.8477 14.744 66.8477 15.152C66.8477 15.56 66.9397 15.92 67.1237 16.232C67.3157 16.544 67.5757 16.788 67.9037 16.964C68.2397 17.14 68.6197 17.228 69.0437 17.228Z" fill="#FF9600"/>
</svg>
