<svg width="325" height="236" viewBox="0 0 325 236" fill="none" xmlns="http://www.w3.org/2000/svg">
<g clip-path="url(#clip0_3615_35316)">
<path d="M0 16C0 7.16344 7.16344 0 16 0H309C317.837 0 325 7.16344 325 16V236H0V16Z" fill="#FEFEE3"/>
<path fill-rule="evenodd" clip-rule="evenodd" d="M243.267 282.14C220.974 295.651 184.963 266.641 157.442 271.273C137.122 274.692 131.304 299.386 111.584 304.299C91.9005 309.204 66.4119 310.04 48.3223 298.462C28.1825 285.572 32.4084 256.369 13.8199 241.726C-2.71717 228.699 -28.8592 233.988 -47.2547 223.174C-67.5638 211.234 -99.0507 196.334 -97.1541 176.485C-94.826 152.119 -39.2483 154.281 -38.3233 129.698C-37.2699 101.703 -95.884 82.376 -92.5734 54.7493C-90.0161 33.4094 -45.6289 43.5766 -26.5503 31.4546C-7.503 19.3525 -6.65205 -14.4925 18.0648 -15.5471C45.2386 -16.7064 62.2635 21.2628 89.6969 26.495C114.603 31.2452 134.717 5.73456 159.489 11.426C182.531 16.7201 199.984 36.9056 213.199 54.8701C225.982 72.2468 227.284 92.8321 233.609 112.188C239.291 129.572 246.677 146.495 248.902 164.115C251.178 182.135 247.706 199.297 246.856 217.082C245.811 238.978 262.937 270.219 243.267 282.14Z" fill="#DBF2C3"/>
<path fill-rule="evenodd" clip-rule="evenodd" d="M105.802 -35.8965C138.584 -49.8713 155.349 -82.3683 191.308 -88.1801C225.322 -93.6774 257.174 -79.6977 275.859 -63.3809C293.943 -47.5881 294.287 -24.0278 289.983 -2.00888C286.375 16.4517 263.833 32.3747 253.591 50.5462C244.295 67.0396 251.14 86.3605 232.588 99.824C214.034 113.289 184.15 110.936 159.993 118.472C134.006 126.579 111.46 146.406 85.1503 145.818C59.0517 145.235 48.513 126.094 30.246 115.573C11.7709 104.932 -15.4551 99.4842 -23.1806 83.4251C-31.0032 67.1641 -20.6409 47.4896 -11.2224 29.3718C-2.09455 11.813 8.12684 -7.16845 30.3602 -19.5687C51.9604 -31.6159 82.2993 -25.8775 105.802 -35.8965Z" fill="#B9CFC2"/>
<path d="M273.898 176.822C273.823 176.956 271.059 174.912 267.015 174.133C262.97 173.354 259.637 174.133 259.622 173.968C260.308 173.691 261.034 173.524 261.772 173.474C263.549 173.259 265.349 173.328 267.105 173.676C268.859 174.023 270.545 174.65 272.1 175.533C272.767 175.86 273.375 176.295 273.898 176.822Z" fill="#AA6550"/>
<path d="M259.892 81.4591C259.892 81.6386 259.838 81.8141 259.738 81.9633C259.639 82.1125 259.497 82.2287 259.33 82.2971C259.164 82.3654 258.982 82.3829 258.806 82.3474C258.63 82.3118 258.468 82.2247 258.342 82.0972C258.215 81.9697 258.13 81.8075 258.096 81.6312C258.061 81.4549 258.081 81.2725 258.15 81.107C258.22 80.9415 258.337 80.8005 258.487 80.7018C258.637 80.6032 258.813 80.5513 258.993 80.5528C259.112 80.5528 259.229 80.5763 259.339 80.6219C259.448 80.6675 259.548 80.7344 259.631 80.8187C259.715 80.9029 259.781 81.0029 259.825 81.1128C259.87 81.2227 259.893 81.3404 259.892 81.4591Z" fill="#2C6E49"/>
<path d="M259.892 81.4591C259.892 81.6386 259.838 81.8141 259.738 81.9633C259.639 82.1125 259.497 82.2287 259.33 82.2971C259.164 82.3654 258.982 82.3829 258.806 82.3474C258.63 82.3118 258.468 82.2247 258.342 82.0972C258.215 81.9697 258.13 81.8075 258.096 81.6312C258.061 81.4549 258.081 81.2725 258.15 81.107C258.22 80.9415 258.337 80.8005 258.487 80.7018C258.637 80.6032 258.813 80.5513 258.993 80.5528C259.112 80.5528 259.229 80.5763 259.339 80.6219C259.448 80.6675 259.548 80.7344 259.631 80.8187C259.715 80.9029 259.781 81.0029 259.825 81.1128C259.87 81.2227 259.893 81.3404 259.892 81.4591Z" fill="white"/>
<g opacity="0.3">
<path d="M187.26 205.164L187.814 205.524C187.671 205.349 187.477 205.223 187.26 205.164Z" fill="black"/>
</g>
<path d="M172.714 15.0672C171.498 17.9075 169.464 20.3218 166.872 22.0029C164.287 23.6734 161.381 24.7833 158.341 25.2611C156.843 25.5158 155.135 25.5682 154.124 24.4672C157.366 21.0949 161.023 18.1478 165.007 15.6963C166.114 14.9652 167.32 14.3952 168.587 14.0036C169.87 13.6222 171.247 13.7235 172.46 14.2882" fill="#263238"/>
<g opacity="0.4">
<path d="M241.96 157.34L242.627 156.449L243.001 155.954C243.129 155.767 243.241 155.535 243.383 155.303C243.719 154.767 244.002 154.2 244.23 153.61C244.357 153.273 244.514 152.928 244.649 152.554L244.986 151.333C245.118 150.887 245.214 150.431 245.271 149.97C245.366 149.474 245.436 148.974 245.481 148.472C245.677 146.06 245.564 143.634 245.144 141.251C244.312 135.844 242.02 129.485 238.515 122.526C234.445 114.729 229.682 107.314 224.284 100.371C217.771 91.9266 210.67 83.9524 203.035 76.5075C194.309 67.9238 184.988 59.9671 175.142 52.6967C169.899 48.8767 164.446 45.1617 158.664 41.6638C152.775 38.0681 146.657 34.8605 140.35 32.0616C133.916 29.2678 127.13 26.8186 119.97 25.6801C116.384 25.0399 112.722 24.949 109.109 25.4105C107.303 25.6728 105.539 26.1766 103.866 26.9085C102.188 27.6615 100.687 28.7597 99.4606 30.1315C98.2346 31.5033 97.3113 33.118 96.7509 34.8704C96.2048 36.6161 95.8975 38.4276 95.8371 40.2557C95.7849 43.9013 96.29 47.5334 97.3351 51.0264C99.29 58.0071 102.488 64.5085 105.994 70.5529C109.497 76.5006 113.383 82.215 117.626 87.6602C121.753 93.0155 126.067 98.0489 130.464 102.783C138.807 111.74 147.772 120.097 157.293 127.792C165.559 134.527 174.289 140.672 183.418 146.18C190.93 150.764 198.842 154.657 207.057 157.812C214.322 160.508 220.906 162.066 226.366 162.306C228.782 162.453 231.206 162.287 233.579 161.812C234.103 161.737 234.575 161.549 235.077 161.437C235.526 161.325 235.967 161.18 236.395 161.003L237.571 160.531C237.931 160.351 238.26 160.156 238.575 159.991C239.13 159.693 239.659 159.347 240.155 158.958C240.38 158.793 240.59 158.651 240.762 158.501L241.211 158.074L242.02 157.325C242.02 157.325 241.766 157.602 241.271 158.119C241.136 158.254 240.987 158.396 240.829 158.561C240.672 158.726 240.447 158.853 240.23 159.018C239.736 159.419 239.207 159.775 238.65 160.081C238.328 160.254 238.006 160.448 237.639 160.628L236.463 161.115C236.034 161.302 235.591 161.452 235.137 161.564C234.665 161.684 234.193 161.871 233.639 161.954C231.255 162.443 228.818 162.622 226.388 162.486C220.906 162.298 214.292 160.763 206.997 158.082C198.73 154.95 190.766 151.074 183.201 146.502C174.04 141.004 165.279 134.864 156.986 128.129C147.441 120.435 138.453 112.075 130.089 103.112C125.685 98.3709 121.363 93.3301 117.214 87.9673C112.975 82.5106 109.097 76.7836 105.604 70.8226C102.076 64.7257 98.8631 58.2393 96.8932 51.1987C95.8419 47.6634 95.3368 43.9884 95.3952 40.3006C95.4515 38.4323 95.7614 36.5803 96.3165 34.7955C96.8896 32.9821 97.84 31.3106 99.1051 29.8906C100.37 28.4706 101.921 27.3344 103.657 26.5564C105.366 25.7989 107.17 25.2749 109.02 24.9985C112.677 24.5328 116.384 24.6237 120.015 25.2681C127.235 26.4366 134.044 28.8858 140.493 31.6946C146.815 34.5034 152.947 37.7209 158.851 41.3268C164.656 44.8396 170.153 48.5622 175.366 52.3971C185.218 59.6853 194.542 67.6621 203.267 76.2678C210.903 83.7333 218.002 91.7302 224.508 100.199C229.916 107.165 234.679 114.608 238.74 122.436C242.237 129.38 244.514 135.769 245.323 141.199C245.737 143.598 245.838 146.04 245.623 148.464C245.623 148.989 245.466 149.483 245.398 149.962C245.339 150.424 245.241 150.88 245.106 151.325C244.986 151.752 244.866 152.164 244.762 152.554C244.657 152.943 244.462 153.303 244.327 153.617C244.086 154.207 243.793 154.773 243.451 155.31C243.308 155.542 243.196 155.767 243.061 155.954L242.679 156.441C242.207 157.055 241.96 157.34 241.96 157.34Z" fill="#2C6E49"/>
<path d="M268.325 93.7044C268.325 93.7044 268.325 93.3299 268.228 92.5959C268.228 92.4086 268.228 92.2064 268.175 91.9742C268.123 91.742 268.085 91.5023 268.025 91.2252C267.921 90.6013 267.756 89.9891 267.531 89.3976C267.411 89.0606 267.299 88.6936 267.142 88.3266C266.984 87.9596 266.775 87.5776 266.58 87.1881C266.382 86.7698 266.149 86.3689 265.883 85.9897C265.627 85.555 265.347 85.1349 265.044 84.7313C263.587 82.7994 261.888 81.0625 259.989 79.5632C255.772 76.0803 249.825 72.8596 242.604 70.0359C234.374 66.9213 225.878 64.5622 217.22 62.9878C206.739 61.0176 196.132 59.7912 185.478 59.3176C173.255 58.723 161.006 58.9908 148.821 60.1191C142.387 60.7258 135.819 61.6171 129.168 62.8604C122.379 64.0987 115.679 65.7775 109.109 67.8862C102.451 70.0808 95.7619 72.7772 89.6351 76.6796C86.527 78.594 83.7286 80.9706 81.3361 83.7277C80.165 85.1339 79.1876 86.6907 78.43 88.3565C77.6821 90.0376 77.2956 91.857 77.2956 93.6969C77.2956 95.5368 77.6821 97.3563 78.43 99.0373C79.1848 100.705 80.1624 102.262 81.3361 103.666C83.7228 106.421 86.5163 108.796 89.6201 110.707C95.732 114.617 102.421 117.313 109.094 119.508C115.666 121.617 122.369 123.296 129.16 124.533C135.811 125.784 142.38 126.668 148.814 127.275C161.001 128.411 173.253 128.678 185.478 128.076C196.131 127.601 206.738 126.377 217.22 124.414C225.875 122.832 234.368 120.471 242.597 117.358C249.817 114.534 255.764 111.313 259.981 107.831C261.881 106.331 263.58 104.594 265.037 102.662C265.374 102.258 265.606 101.809 265.883 101.404C266.144 101.023 266.374 100.622 266.572 100.206C266.775 99.8088 266.962 99.4568 267.134 99.0673C267.306 98.6778 267.404 98.3183 267.524 97.9962C267.749 97.405 267.914 96.7928 268.018 96.1686C268.078 95.9065 268.138 95.6593 268.168 95.4196C268.198 95.18 268.168 94.9852 268.22 94.8055C268.28 94.0564 268.318 93.6894 268.318 93.6894C268.318 93.6894 268.318 94.0639 268.265 94.8055C268.265 94.9927 268.265 95.1949 268.228 95.4271C268.19 95.6593 268.138 95.899 268.085 96.1761C267.983 96.8039 267.823 97.4208 267.606 98.0187C267.486 98.3557 267.374 98.7227 267.224 99.0973C267.074 99.4718 266.864 99.8463 266.67 100.243C266.472 100.667 266.241 101.075 265.981 101.464C265.725 101.901 265.445 102.324 265.142 102.73C263.69 104.689 261.991 106.451 260.086 107.973C255.869 111.486 249.914 114.714 242.687 117.59C234.45 120.732 225.943 123.117 217.273 124.713C206.781 126.71 196.161 127.961 185.493 128.458C173.257 129.074 160.992 128.824 148.791 127.709C142.343 127.102 135.766 126.211 129.1 124.975C122.292 123.737 115.572 122.058 108.982 119.95C102.293 117.747 95.5822 115.036 89.4179 111.104C86.2807 109.166 83.4549 106.764 81.0365 103.981C79.8274 102.544 78.8195 100.949 78.0405 99.2396C77.3186 97.4911 76.9226 95.6253 76.8721 93.7344C76.9205 91.8417 77.3219 89.9746 78.0555 88.2292C78.8325 86.5215 79.8406 84.9286 81.0515 83.4955C83.4725 80.7116 86.3008 78.3101 89.4404 76.3725C95.5972 72.4402 102.308 69.7363 108.997 67.5342C115.585 65.4253 122.302 63.7465 129.108 62.5084C135.774 61.2651 142.357 60.3812 148.799 59.7745C160.999 58.6561 173.264 58.4058 185.5 59.0255C196.169 59.5195 206.789 60.771 217.28 62.7705C225.948 64.3681 234.452 66.7523 242.687 69.8936C249.922 72.7473 255.869 76.0055 260.093 79.5108C261.996 81.0347 263.695 82.7968 265.149 84.7538C265.486 85.1583 265.711 85.6227 265.988 86.0196C266.249 86.4083 266.479 86.8165 266.677 87.2405C266.872 87.6375 267.059 87.9895 267.231 88.3865C267.404 88.7835 267.494 89.1355 267.613 89.465C267.83 90.0629 267.991 90.6798 268.093 91.3076C268.145 91.5772 268.205 91.8244 268.235 92.0566C268.265 92.2888 268.235 92.491 268.273 92.6783C268.318 93.3299 268.325 93.7044 268.325 93.7044Z" fill="#2C6E49"/>
<path d="M233.384 14.4974C233.384 14.4974 233.054 14.3026 232.44 13.8982L231.923 13.5536C231.728 13.4413 231.496 13.3439 231.249 13.2241C230.693 12.9176 230.109 12.6667 229.504 12.4751C229.159 12.3627 228.8 12.2279 228.418 12.123L227.174 11.8759C226.721 11.7733 226.26 11.7106 225.796 11.6886C225.299 11.6263 224.799 11.5913 224.298 11.5838C221.878 11.551 219.465 11.8278 217.115 12.4077C211.782 13.6136 205.588 16.3399 198.929 20.3171C191.428 24.9118 184.359 30.1763 177.807 36.0462C169.839 43.1313 162.38 50.7702 155.487 58.9058C147.525 68.1999 140.231 78.0465 133.661 88.3716C130.201 93.8319 126.875 99.5618 123.789 105.599C120.605 111.719 117.826 118.042 115.468 124.526C113.123 131.14 111.161 138.076 110.502 145.296C110.11 148.919 110.272 152.582 110.981 156.156C111.374 157.944 112.006 159.67 112.861 161.287C113.726 162.911 114.925 164.334 116.378 165.462C117.832 166.591 119.507 167.399 121.295 167.833C123.075 168.258 124.904 168.442 126.733 168.38C130.372 168.175 133.958 167.417 137.369 166.133C144.207 163.699 150.439 160.066 156.251 156.149C161.945 152.247 167.38 147.979 172.52 143.371C177.575 138.877 182.301 134.226 186.751 129.522C195.106 120.588 202.823 111.077 209.842 101.06C215.984 92.3287 221.503 83.1756 226.358 73.6687C230.41 65.8586 233.749 57.6988 236.335 49.2886C238.522 41.851 239.615 35.1774 239.458 29.7097C239.434 27.29 239.099 24.8835 238.462 22.5492C238.334 22.0631 238.176 21.5854 237.99 21.1186C237.851 20.6754 237.676 20.2445 237.466 19.8303L236.911 18.6918C236.709 18.3398 236.492 18.0327 236.305 17.7256C235.969 17.1923 235.586 16.6909 235.159 16.2276C234.986 16.0254 234.829 15.8231 234.672 15.6583L234.215 15.2464C233.668 14.7446 233.399 14.4974 233.399 14.4974L234.245 15.2464C234.38 15.3737 234.537 15.5085 234.709 15.6583C234.882 15.8081 235.031 16.0179 235.211 16.2276C235.647 16.6869 236.036 17.1887 236.372 17.7256C236.567 18.0252 236.792 18.3398 236.994 18.6843C237.196 19.0289 237.361 19.4333 237.563 19.8303C237.777 20.2434 237.955 20.6745 238.095 21.1186C238.284 21.5891 238.449 22.0691 238.589 22.5567C239.24 24.9019 239.587 27.321 239.623 29.7546C239.81 35.2448 238.739 41.9409 236.559 49.401C233.999 57.8256 230.68 66.0008 226.643 73.826C221.787 83.3381 216.263 92.4939 210.112 101.225C203.099 111.28 195.379 120.823 187.013 129.784C182.586 134.503 177.852 139.162 172.782 143.671C167.633 148.292 162.189 152.573 156.483 156.486C150.641 160.426 144.387 164.073 137.511 166.545C134.058 167.836 130.429 168.593 126.748 168.792C124.876 168.858 123.005 168.672 121.183 168.238C119.356 167.737 117.637 166.904 116.112 165.781C114.647 164.585 113.418 163.128 112.487 161.482C111.613 159.828 110.966 158.065 110.562 156.239C109.844 152.622 109.68 148.917 110.075 145.251C110.742 137.971 112.719 131.02 115.071 124.376C117.442 117.878 120.232 111.541 123.422 105.404C126.523 99.3745 129.856 93.6296 133.324 88.1769C139.912 77.8435 147.223 67.9895 155.203 58.6886C162.124 50.5587 169.613 42.9297 177.613 35.859C184.19 29.9842 191.287 24.7195 198.817 20.1299C205.498 16.1677 211.722 13.4563 217.085 12.2654C219.45 11.7049 221.877 11.4532 224.306 11.5164C224.807 11.5268 225.307 11.5643 225.804 11.6287C226.27 11.6605 226.733 11.7256 227.189 11.8234L228.433 12.0931C228.822 12.1979 229.182 12.3403 229.519 12.4526C230.124 12.6492 230.711 12.8998 231.271 13.2016C231.511 13.3289 231.743 13.4263 231.945 13.5461L232.455 13.8982L233.384 14.4974Z" fill="#2C6E49"/>
<path d="M241.96 157.34L242.627 156.449L243.001 155.954C243.129 155.767 243.241 155.535 243.383 155.303C243.719 154.767 244.002 154.2 244.23 153.61C244.357 153.273 244.514 152.928 244.649 152.554L244.986 151.333C245.118 150.887 245.214 150.431 245.271 149.97C245.366 149.474 245.436 148.974 245.481 148.472C245.677 146.06 245.564 143.634 245.144 141.251C244.312 135.844 242.02 129.485 238.515 122.526C234.445 114.729 229.682 107.314 224.284 100.371C217.771 91.9266 210.67 83.9524 203.035 76.5075C194.309 67.9238 184.988 59.9671 175.142 52.6967C169.899 48.8767 164.446 45.1617 158.664 41.6638C152.775 38.0681 146.657 34.8605 140.35 32.0616C133.916 29.2678 127.13 26.8186 119.97 25.6801C116.384 25.0399 112.722 24.949 109.109 25.4105C107.303 25.6728 105.539 26.1766 103.866 26.9085C102.188 27.6615 100.687 28.7597 99.4606 30.1315C98.2346 31.5033 97.3113 33.118 96.7509 34.8704C96.2048 36.6161 95.8975 38.4276 95.8371 40.2557C95.7849 43.9013 96.29 47.5334 97.3351 51.0264C99.29 58.0071 102.488 64.5085 105.994 70.5529C109.497 76.5006 113.383 82.215 117.626 87.6602C121.753 93.0155 126.067 98.0489 130.464 102.783C138.807 111.74 147.772 120.097 157.293 127.792C165.559 134.527 174.289 140.672 183.418 146.18C190.93 150.764 198.842 154.657 207.057 157.812C214.322 160.508 220.906 162.066 226.366 162.306C228.782 162.453 231.206 162.287 233.579 161.812C234.103 161.737 234.575 161.549 235.077 161.437C235.526 161.325 235.967 161.18 236.395 161.003L237.571 160.531C237.931 160.351 238.26 160.156 238.575 159.991C239.13 159.693 239.659 159.347 240.155 158.958C240.38 158.793 240.59 158.651 240.762 158.501L241.211 158.074L242.02 157.325C242.02 157.325 241.766 157.602 241.271 158.119C241.136 158.254 240.987 158.396 240.829 158.561C240.672 158.726 240.447 158.853 240.23 159.018C239.736 159.419 239.207 159.775 238.65 160.081C238.328 160.254 238.006 160.448 237.639 160.628L236.463 161.115C236.034 161.302 235.591 161.452 235.137 161.564C234.665 161.684 234.193 161.871 233.639 161.954C231.255 162.443 228.818 162.622 226.388 162.486C220.906 162.298 214.292 160.763 206.997 158.082C198.73 154.95 190.766 151.074 183.201 146.502C174.04 141.004 165.279 134.864 156.986 128.129C147.441 120.435 138.453 112.075 130.089 103.112C125.685 98.3709 121.363 93.3301 117.214 87.9673C112.975 82.5106 109.097 76.7836 105.604 70.8226C102.076 64.7257 98.8631 58.2393 96.8932 51.1987C95.8419 47.6634 95.3368 43.9884 95.3952 40.3006C95.4515 38.4323 95.7614 36.5803 96.3165 34.7955C96.8896 32.9821 97.84 31.3106 99.1051 29.8906C100.37 28.4706 101.921 27.3344 103.657 26.5564C105.366 25.7989 107.17 25.2749 109.02 24.9985C112.677 24.5328 116.384 24.6237 120.015 25.2681C127.235 26.4366 134.044 28.8858 140.493 31.6946C146.815 34.5034 152.947 37.7209 158.851 41.3268C164.656 44.8396 170.153 48.5622 175.366 52.3971C185.218 59.6853 194.542 67.6621 203.267 76.2678C210.903 83.7333 218.002 91.7302 224.508 100.199C229.916 107.165 234.679 114.608 238.74 122.436C242.237 129.38 244.514 135.769 245.323 141.199C245.737 143.598 245.838 146.04 245.623 148.464C245.623 148.989 245.466 149.483 245.398 149.962C245.339 150.424 245.241 150.88 245.106 151.325C244.986 151.752 244.866 152.164 244.762 152.554C244.657 152.943 244.462 153.303 244.327 153.617C244.086 154.207 243.793 154.773 243.451 155.31C243.308 155.542 243.196 155.767 243.061 155.954L242.679 156.441C242.207 157.055 241.96 157.34 241.96 157.34Z" fill="#2C6E49"/>
<path d="M268.325 93.7044C268.325 93.7044 268.325 93.3299 268.228 92.5959C268.228 92.4086 268.228 92.2064 268.175 91.9742C268.123 91.742 268.085 91.5023 268.025 91.2252C267.921 90.6013 267.756 89.9891 267.531 89.3976C267.411 89.0606 267.299 88.6936 267.142 88.3266C266.984 87.9596 266.775 87.5776 266.58 87.1881C266.382 86.7698 266.149 86.3689 265.883 85.9897C265.627 85.555 265.347 85.1349 265.044 84.7313C263.587 82.7994 261.888 81.0625 259.989 79.5632C255.772 76.0803 249.825 72.8596 242.604 70.0359C234.374 66.9213 225.878 64.5622 217.22 62.9878C206.739 61.0176 196.132 59.7912 185.478 59.3176C173.255 58.723 161.006 58.9908 148.821 60.1191C142.387 60.7258 135.819 61.6171 129.168 62.8604C122.379 64.0987 115.679 65.7775 109.109 67.8862C102.451 70.0808 95.7619 72.7772 89.6351 76.6796C86.527 78.594 83.7286 80.9706 81.3361 83.7277C80.165 85.1339 79.1876 86.6907 78.43 88.3565C77.6821 90.0376 77.2956 91.857 77.2956 93.6969C77.2956 95.5368 77.6821 97.3563 78.43 99.0373C79.1848 100.705 80.1624 102.262 81.3361 103.666C83.7228 106.421 86.5163 108.796 89.6201 110.707C95.732 114.617 102.421 117.313 109.094 119.508C115.666 121.617 122.369 123.296 129.16 124.533C135.811 125.784 142.38 126.668 148.814 127.275C161.001 128.411 173.253 128.678 185.478 128.076C196.131 127.601 206.738 126.377 217.22 124.414C225.875 122.832 234.368 120.471 242.597 117.358C249.817 114.534 255.764 111.313 259.981 107.831C261.881 106.331 263.58 104.594 265.037 102.662C265.374 102.258 265.606 101.809 265.883 101.404C266.144 101.023 266.374 100.622 266.572 100.206C266.775 99.8088 266.962 99.4568 267.134 99.0673C267.306 98.6778 267.404 98.3183 267.524 97.9962C267.749 97.405 267.914 96.7928 268.018 96.1686C268.078 95.9065 268.138 95.6593 268.168 95.4196C268.198 95.18 268.168 94.9852 268.22 94.8055C268.28 94.0564 268.318 93.6894 268.318 93.6894C268.318 93.6894 268.318 94.0639 268.265 94.8055C268.265 94.9927 268.265 95.1949 268.228 95.4271C268.19 95.6593 268.138 95.899 268.085 96.1761C267.983 96.8039 267.823 97.4208 267.606 98.0187C267.486 98.3557 267.374 98.7227 267.224 99.0973C267.074 99.4718 266.864 99.8463 266.67 100.243C266.472 100.667 266.241 101.075 265.981 101.464C265.725 101.901 265.445 102.324 265.142 102.73C263.69 104.689 261.991 106.451 260.086 107.973C255.869 111.486 249.914 114.714 242.687 117.59C234.45 120.732 225.943 123.117 217.273 124.713C206.781 126.71 196.161 127.961 185.493 128.458C173.257 129.074 160.992 128.824 148.791 127.709C142.343 127.102 135.766 126.211 129.1 124.975C122.292 123.737 115.572 122.058 108.982 119.95C102.293 117.747 95.5822 115.036 89.4179 111.104C86.2807 109.166 83.4549 106.764 81.0365 103.981C79.8274 102.544 78.8195 100.949 78.0405 99.2396C77.3186 97.4911 76.9226 95.6253 76.8721 93.7344C76.9205 91.8417 77.3219 89.9746 78.0555 88.2292C78.8325 86.5215 79.8406 84.9286 81.0515 83.4955C83.4725 80.7116 86.3008 78.3101 89.4404 76.3725C95.5972 72.4402 102.308 69.7363 108.997 67.5342C115.585 65.4253 122.302 63.7465 129.108 62.5084C135.774 61.2651 142.357 60.3812 148.799 59.7745C160.999 58.6561 173.264 58.4058 185.5 59.0255C196.169 59.5195 206.789 60.771 217.28 62.7705C225.948 64.3681 234.452 66.7523 242.687 69.8936C249.922 72.7473 255.869 76.0055 260.093 79.5108C261.996 81.0347 263.695 82.7968 265.149 84.7538C265.486 85.1583 265.711 85.6227 265.988 86.0196C266.249 86.4083 266.479 86.8165 266.677 87.2405C266.872 87.6375 267.059 87.9895 267.231 88.3865C267.404 88.7835 267.494 89.1355 267.613 89.465C267.83 90.0629 267.991 90.6798 268.093 91.3076C268.145 91.5772 268.205 91.8244 268.235 92.0566C268.265 92.2888 268.235 92.491 268.273 92.6783C268.318 93.3299 268.325 93.7044 268.325 93.7044Z" fill="#2C6E49"/>
<path d="M233.384 14.4974C233.384 14.4974 233.054 14.3026 232.44 13.8982L231.923 13.5536C231.728 13.4413 231.496 13.3439 231.249 13.2241C230.693 12.9176 230.109 12.6667 229.504 12.4751C229.159 12.3627 228.8 12.2279 228.418 12.123L227.174 11.8759C226.721 11.7733 226.26 11.7106 225.796 11.6886C225.299 11.6263 224.799 11.5913 224.298 11.5838C221.878 11.551 219.465 11.8278 217.115 12.4077C211.782 13.6136 205.588 16.3399 198.929 20.3171C191.428 24.9118 184.359 30.1763 177.807 36.0462C169.839 43.1313 162.38 50.7702 155.487 58.9058C147.525 68.1999 140.231 78.0465 133.661 88.3716C130.201 93.8319 126.875 99.5618 123.789 105.599C120.605 111.719 117.826 118.042 115.468 124.526C113.123 131.14 111.161 138.076 110.502 145.296C110.11 148.919 110.272 152.582 110.981 156.156C111.374 157.944 112.006 159.67 112.861 161.287C113.726 162.911 114.925 164.334 116.378 165.462C117.832 166.591 119.507 167.399 121.295 167.833C123.075 168.258 124.904 168.442 126.733 168.38C130.372 168.175 133.958 167.417 137.369 166.133C144.207 163.699 150.439 160.066 156.251 156.149C161.945 152.247 167.38 147.979 172.52 143.371C177.575 138.877 182.301 134.226 186.751 129.522C195.106 120.588 202.823 111.077 209.842 101.06C215.984 92.3287 221.503 83.1756 226.358 73.6687C230.41 65.8586 233.749 57.6988 236.335 49.2886C238.522 41.851 239.615 35.1774 239.458 29.7097C239.434 27.29 239.099 24.8835 238.462 22.5492C238.334 22.0631 238.176 21.5854 237.99 21.1186C237.851 20.6754 237.676 20.2445 237.466 19.8303L236.911 18.6918C236.709 18.3398 236.492 18.0327 236.305 17.7256C235.969 17.1923 235.586 16.6909 235.159 16.2276C234.986 16.0254 234.829 15.8231 234.672 15.6583L234.215 15.2464C233.668 14.7446 233.399 14.4974 233.399 14.4974L234.245 15.2464C234.38 15.3737 234.537 15.5085 234.709 15.6583C234.882 15.8081 235.031 16.0179 235.211 16.2276C235.647 16.6869 236.036 17.1887 236.372 17.7256C236.567 18.0252 236.792 18.3398 236.994 18.6843C237.196 19.0289 237.361 19.4333 237.563 19.8303C237.777 20.2434 237.955 20.6745 238.095 21.1186C238.284 21.5891 238.449 22.0691 238.589 22.5567C239.24 24.9019 239.587 27.321 239.623 29.7546C239.81 35.2448 238.739 41.9409 236.559 49.401C233.999 57.8256 230.68 66.0008 226.643 73.826C221.787 83.3381 216.263 92.4939 210.112 101.225C203.099 111.28 195.379 120.823 187.013 129.784C182.586 134.503 177.852 139.162 172.782 143.671C167.633 148.292 162.189 152.573 156.483 156.486C150.641 160.426 144.387 164.073 137.511 166.545C134.058 167.836 130.429 168.593 126.748 168.792C124.876 168.858 123.005 168.672 121.183 168.238C119.356 167.737 117.637 166.904 116.112 165.781C114.647 164.585 113.418 163.128 112.487 161.482C111.613 159.828 110.966 158.065 110.562 156.239C109.844 152.622 109.68 148.917 110.075 145.251C110.742 137.971 112.719 131.02 115.071 124.376C117.442 117.878 120.232 111.541 123.422 105.404C126.523 99.3745 129.856 93.6296 133.324 88.1769C139.912 77.8435 147.223 67.9895 155.203 58.6886C162.124 50.5587 169.613 42.9297 177.613 35.859C184.19 29.9842 191.287 24.7195 198.817 20.1299C205.498 16.1677 211.722 13.4563 217.085 12.2654C219.45 11.7049 221.877 11.4532 224.306 11.5164C224.807 11.5268 225.307 11.5643 225.804 11.6287C226.27 11.6605 226.733 11.7256 227.189 11.8234L228.433 12.0931C228.822 12.1979 229.182 12.3403 229.519 12.4526C230.124 12.6492 230.711 12.8998 231.271 13.2016C231.511 13.3289 231.743 13.4263 231.945 13.5461L232.455 13.8982L233.384 14.4974Z" fill="#2C6E49"/>
</g>
<path d="M98.4883 144.825C98.4898 145.004 98.4379 145.18 98.3393 145.33C98.2406 145.48 98.0996 145.597 97.9341 145.667C97.7686 145.737 97.5862 145.756 97.4099 145.722C97.2336 145.688 97.0714 145.602 96.9439 145.476C96.8164 145.349 96.7293 145.188 96.6938 145.012C96.6582 144.836 96.6757 144.653 96.744 144.487C96.8124 144.321 96.9286 144.179 97.0778 144.079C97.227 143.979 97.4025 143.926 97.5821 143.926C97.8211 143.926 98.0505 144.02 98.2203 144.189C98.39 144.357 98.4864 144.586 98.4883 144.825Z" fill="#2C6E49"/>
<path d="M271.111 51.6332C271.113 51.8127 271.061 51.9887 270.962 52.1387C270.864 52.2887 270.723 52.4061 270.557 52.4758C270.392 52.5456 270.209 52.5646 270.033 52.5304C269.857 52.4963 269.694 52.4106 269.567 52.2842C269.439 52.1577 269.352 51.9963 269.317 51.8202C269.281 51.6442 269.299 51.4616 269.367 51.2956C269.435 51.1296 269.552 50.9876 269.701 50.8876C269.85 50.7877 270.025 50.7344 270.205 50.7344C270.444 50.7344 270.674 50.8288 270.843 50.9972C271.013 51.1655 271.109 51.3941 271.111 51.6332Z" fill="#2C6E49"/>
<g opacity="0.4">
<path d="M241.96 157.34L242.627 156.449L243.001 155.954C243.129 155.767 243.241 155.535 243.383 155.303C243.719 154.767 244.002 154.2 244.23 153.61C244.357 153.273 244.514 152.928 244.649 152.554L244.986 151.333C245.118 150.887 245.214 150.431 245.271 149.97C245.366 149.474 245.436 148.974 245.481 148.472C245.677 146.06 245.564 143.634 245.144 141.251C244.312 135.844 242.02 129.485 238.515 122.526C234.445 114.729 229.682 107.314 224.284 100.371C217.771 91.9266 210.67 83.9524 203.035 76.5075C194.309 67.9238 184.988 59.9671 175.142 52.6967C169.899 48.8767 164.446 45.1617 158.664 41.6638C152.775 38.0681 146.657 34.8605 140.35 32.0616C133.916 29.2678 127.13 26.8186 119.97 25.6801C116.384 25.0399 112.722 24.949 109.109 25.4105C107.303 25.6728 105.539 26.1766 103.866 26.9085C102.188 27.6615 100.687 28.7597 99.4606 30.1315C98.2346 31.5033 97.3113 33.118 96.7509 34.8704C96.2048 36.6161 95.8975 38.4276 95.8371 40.2557C95.7849 43.9013 96.29 47.5334 97.3351 51.0264C99.29 58.0071 102.488 64.5085 105.994 70.5529C109.497 76.5006 113.383 82.215 117.626 87.6602C121.753 93.0155 126.067 98.0489 130.464 102.783C138.807 111.74 147.772 120.097 157.293 127.792C165.559 134.527 174.289 140.672 183.418 146.18C190.93 150.764 198.842 154.657 207.057 157.812C214.322 160.508 220.906 162.066 226.366 162.306C228.782 162.453 231.206 162.287 233.579 161.812C234.103 161.737 234.575 161.549 235.077 161.437C235.526 161.325 235.967 161.18 236.395 161.003L237.571 160.531C237.931 160.351 238.26 160.156 238.575 159.991C239.13 159.693 239.659 159.347 240.155 158.958C240.38 158.793 240.59 158.651 240.762 158.501L241.211 158.074L242.02 157.325C242.02 157.325 241.766 157.602 241.271 158.119C241.136 158.254 240.987 158.396 240.829 158.561C240.672 158.726 240.447 158.853 240.23 159.018C239.736 159.419 239.207 159.775 238.65 160.081C238.328 160.254 238.006 160.448 237.639 160.628L236.463 161.115C236.034 161.302 235.591 161.452 235.137 161.564C234.665 161.684 234.193 161.871 233.639 161.954C231.255 162.443 228.818 162.622 226.388 162.486C220.906 162.298 214.292 160.763 206.997 158.082C198.73 154.95 190.766 151.074 183.201 146.502C174.04 141.004 165.279 134.864 156.986 128.129C147.441 120.435 138.453 112.075 130.089 103.112C125.685 98.3709 121.363 93.3301 117.214 87.9673C112.975 82.5106 109.097 76.7836 105.604 70.8226C102.076 64.7257 98.8631 58.2393 96.8932 51.1987C95.8419 47.6634 95.3368 43.9884 95.3952 40.3006C95.4515 38.4323 95.7614 36.5803 96.3165 34.7955C96.8896 32.9821 97.84 31.3106 99.1051 29.8906C100.37 28.4706 101.921 27.3344 103.657 26.5564C105.366 25.7989 107.17 25.2749 109.02 24.9985C112.677 24.5328 116.384 24.6237 120.015 25.2681C127.235 26.4366 134.044 28.8858 140.493 31.6946C146.815 34.5034 152.947 37.7209 158.851 41.3268C164.656 44.8396 170.153 48.5622 175.366 52.3971C185.218 59.6853 194.542 67.6621 203.267 76.2678C210.903 83.7333 218.002 91.7302 224.508 100.199C229.916 107.165 234.679 114.608 238.74 122.436C242.237 129.38 244.514 135.769 245.323 141.199C245.737 143.598 245.838 146.04 245.623 148.464C245.623 148.989 245.466 149.483 245.398 149.962C245.339 150.424 245.241 150.88 245.106 151.325C244.986 151.752 244.866 152.164 244.762 152.554C244.657 152.943 244.462 153.303 244.327 153.617C244.086 154.207 243.793 154.773 243.451 155.31C243.308 155.542 243.196 155.767 243.061 155.954L242.679 156.441C242.207 157.055 241.96 157.34 241.96 157.34Z" fill="#2C6E49"/>
<path d="M268.325 93.7044C268.325 93.7044 268.325 93.3299 268.228 92.5959C268.228 92.4086 268.228 92.2064 268.175 91.9742C268.123 91.742 268.085 91.5023 268.025 91.2252C267.921 90.6013 267.756 89.9891 267.531 89.3976C267.411 89.0606 267.299 88.6936 267.142 88.3266C266.984 87.9596 266.775 87.5776 266.58 87.1881C266.382 86.7698 266.149 86.3689 265.883 85.9897C265.627 85.555 265.347 85.1349 265.044 84.7313C263.587 82.7994 261.888 81.0625 259.989 79.5632C255.772 76.0803 249.825 72.8596 242.604 70.0359C234.374 66.9213 225.878 64.5622 217.22 62.9878C206.739 61.0176 196.132 59.7912 185.478 59.3176C173.255 58.723 161.006 58.9908 148.821 60.1191C142.387 60.7258 135.819 61.6171 129.168 62.8604C122.379 64.0987 115.679 65.7775 109.109 67.8862C102.451 70.0808 95.7619 72.7772 89.6351 76.6796C86.527 78.594 83.7286 80.9706 81.3361 83.7277C80.165 85.1339 79.1876 86.6907 78.43 88.3565C77.6821 90.0376 77.2956 91.857 77.2956 93.6969C77.2956 95.5368 77.6821 97.3563 78.43 99.0373C79.1848 100.705 80.1624 102.262 81.3361 103.666C83.7228 106.421 86.5163 108.796 89.6201 110.707C95.732 114.617 102.421 117.313 109.094 119.508C115.666 121.617 122.369 123.296 129.16 124.533C135.811 125.784 142.38 126.668 148.814 127.275C161.001 128.411 173.253 128.678 185.478 128.076C196.131 127.601 206.738 126.377 217.22 124.414C225.875 122.832 234.368 120.471 242.597 117.358C249.817 114.534 255.764 111.313 259.981 107.831C261.881 106.331 263.58 104.594 265.037 102.662C265.374 102.258 265.606 101.809 265.883 101.404C266.144 101.023 266.374 100.622 266.572 100.206C266.775 99.8088 266.962 99.4568 267.134 99.0673C267.306 98.6778 267.404 98.3183 267.524 97.9962C267.749 97.405 267.914 96.7928 268.018 96.1686C268.078 95.9065 268.138 95.6593 268.168 95.4196C268.198 95.18 268.168 94.9852 268.22 94.8055C268.28 94.0564 268.318 93.6894 268.318 93.6894C268.318 93.6894 268.318 94.0639 268.265 94.8055C268.265 94.9927 268.265 95.1949 268.228 95.4271C268.19 95.6593 268.138 95.899 268.085 96.1761C267.983 96.8039 267.823 97.4208 267.606 98.0187C267.486 98.3557 267.374 98.7227 267.224 99.0973C267.074 99.4718 266.864 99.8463 266.67 100.243C266.472 100.667 266.241 101.075 265.981 101.464C265.725 101.901 265.445 102.324 265.142 102.73C263.69 104.689 261.991 106.451 260.086 107.973C255.869 111.486 249.914 114.714 242.687 117.59C234.45 120.732 225.943 123.117 217.273 124.713C206.781 126.71 196.161 127.961 185.493 128.458C173.257 129.074 160.992 128.824 148.791 127.709C142.343 127.102 135.766 126.211 129.1 124.975C122.292 123.737 115.572 122.058 108.982 119.95C102.293 117.747 95.5822 115.036 89.4179 111.104C86.2807 109.166 83.4549 106.764 81.0365 103.981C79.8274 102.544 78.8195 100.949 78.0405 99.2396C77.3186 97.4911 76.9226 95.6253 76.8721 93.7344C76.9205 91.8417 77.3219 89.9746 78.0555 88.2292C78.8325 86.5215 79.8406 84.9286 81.0515 83.4955C83.4725 80.7116 86.3008 78.3101 89.4404 76.3725C95.5972 72.4402 102.308 69.7363 108.997 67.5342C115.585 65.4253 122.302 63.7465 129.108 62.5084C135.774 61.2651 142.357 60.3812 148.799 59.7745C160.999 58.6561 173.264 58.4058 185.5 59.0255C196.169 59.5195 206.789 60.771 217.28 62.7705C225.948 64.3681 234.452 66.7523 242.687 69.8936C249.922 72.7473 255.869 76.0055 260.093 79.5108C261.996 81.0347 263.695 82.7968 265.149 84.7538C265.486 85.1583 265.711 85.6227 265.988 86.0196C266.249 86.4083 266.479 86.8165 266.677 87.2405C266.872 87.6375 267.059 87.9895 267.231 88.3865C267.404 88.7835 267.494 89.1355 267.613 89.465C267.83 90.0629 267.991 90.6798 268.093 91.3076C268.145 91.5772 268.205 91.8244 268.235 92.0566C268.265 92.2888 268.235 92.491 268.273 92.6783C268.318 93.3299 268.325 93.7044 268.325 93.7044Z" fill="#2C6E49"/>
<path d="M233.384 14.4974C233.384 14.4974 233.054 14.3026 232.44 13.8982L231.923 13.5536C231.728 13.4413 231.496 13.3439 231.249 13.2241C230.693 12.9176 230.109 12.6667 229.504 12.4751C229.159 12.3627 228.8 12.2279 228.418 12.123L227.174 11.8759C226.721 11.7733 226.26 11.7106 225.796 11.6886C225.299 11.6263 224.799 11.5913 224.298 11.5838C221.878 11.551 219.465 11.8278 217.115 12.4077C211.782 13.6136 205.588 16.3399 198.929 20.3171C191.428 24.9118 184.359 30.1763 177.807 36.0462C169.839 43.1313 162.38 50.7702 155.487 58.9058C147.525 68.1999 140.231 78.0465 133.661 88.3716C130.201 93.8319 126.875 99.5618 123.789 105.599C120.605 111.719 117.826 118.042 115.468 124.526C113.123 131.14 111.161 138.076 110.502 145.296C110.11 148.919 110.272 152.582 110.981 156.156C111.374 157.944 112.006 159.67 112.861 161.287C113.726 162.911 114.925 164.334 116.378 165.462C117.832 166.591 119.507 167.399 121.295 167.833C123.075 168.258 124.904 168.442 126.733 168.38C130.372 168.175 133.958 167.417 137.369 166.133C144.207 163.699 150.439 160.066 156.251 156.149C161.945 152.247 167.38 147.979 172.52 143.371C177.575 138.877 182.301 134.226 186.751 129.522C195.106 120.588 202.823 111.077 209.842 101.06C215.984 92.3287 221.503 83.1756 226.358 73.6687C230.41 65.8586 233.749 57.6988 236.335 49.2886C238.522 41.851 239.615 35.1774 239.458 29.7097C239.434 27.29 239.099 24.8835 238.462 22.5492C238.334 22.0631 238.176 21.5854 237.99 21.1186C237.851 20.6754 237.676 20.2445 237.466 19.8303L236.911 18.6918C236.709 18.3398 236.492 18.0327 236.305 17.7256C235.969 17.1923 235.586 16.6909 235.159 16.2276C234.986 16.0254 234.829 15.8231 234.672 15.6583L234.215 15.2464C233.668 14.7446 233.399 14.4974 233.399 14.4974L234.245 15.2464C234.38 15.3737 234.537 15.5085 234.709 15.6583C234.882 15.8081 235.031 16.0179 235.211 16.2276C235.647 16.6869 236.036 17.1887 236.372 17.7256C236.567 18.0252 236.792 18.3398 236.994 18.6843C237.196 19.0289 237.361 19.4333 237.563 19.8303C237.777 20.2434 237.955 20.6745 238.095 21.1186C238.284 21.5891 238.449 22.0691 238.589 22.5567C239.24 24.9019 239.587 27.321 239.623 29.7546C239.81 35.2448 238.739 41.9409 236.559 49.401C233.999 57.8256 230.68 66.0008 226.643 73.826C221.787 83.3381 216.263 92.4939 210.112 101.225C203.099 111.28 195.379 120.823 187.013 129.784C182.586 134.503 177.852 139.162 172.782 143.671C167.633 148.292 162.189 152.573 156.483 156.486C150.641 160.426 144.387 164.073 137.511 166.545C134.058 167.836 130.429 168.593 126.748 168.792C124.876 168.858 123.005 168.672 121.183 168.238C119.356 167.737 117.637 166.904 116.112 165.781C114.647 164.585 113.418 163.128 112.487 161.482C111.613 159.828 110.966 158.065 110.562 156.239C109.844 152.622 109.68 148.917 110.075 145.251C110.742 137.971 112.719 131.02 115.071 124.376C117.442 117.878 120.232 111.541 123.422 105.404C126.523 99.3745 129.856 93.6296 133.324 88.1769C139.912 77.8435 147.223 67.9895 155.203 58.6886C162.124 50.5587 169.613 42.9297 177.613 35.859C184.19 29.9842 191.287 24.7195 198.817 20.1299C205.498 16.1677 211.722 13.4563 217.085 12.2654C219.45 11.7049 221.877 11.4532 224.306 11.5164C224.807 11.5268 225.307 11.5643 225.804 11.6287C226.27 11.6605 226.733 11.7256 227.189 11.8234L228.433 12.0931C228.822 12.1979 229.182 12.3403 229.519 12.4526C230.124 12.6492 230.711 12.8998 231.271 13.2016C231.511 13.3289 231.743 13.4263 231.945 13.5461L232.455 13.8982L233.384 14.4974Z" fill="#2C6E49"/>
<path d="M241.96 157.34L242.627 156.449L243.001 155.954C243.129 155.767 243.241 155.535 243.383 155.303C243.719 154.767 244.002 154.2 244.23 153.61C244.357 153.273 244.514 152.928 244.649 152.554L244.986 151.333C245.118 150.887 245.214 150.431 245.271 149.97C245.366 149.474 245.436 148.974 245.481 148.472C245.677 146.06 245.564 143.634 245.144 141.251C244.312 135.844 242.02 129.485 238.515 122.526C234.445 114.729 229.682 107.314 224.284 100.371C217.771 91.9266 210.67 83.9524 203.035 76.5075C194.309 67.9238 184.988 59.9671 175.142 52.6967C169.899 48.8767 164.446 45.1617 158.664 41.6638C152.775 38.0681 146.657 34.8605 140.35 32.0616C133.916 29.2678 127.13 26.8186 119.97 25.6801C116.384 25.0399 112.722 24.949 109.109 25.4105C107.303 25.6728 105.539 26.1766 103.866 26.9085C102.188 27.6615 100.687 28.7597 99.4606 30.1315C98.2346 31.5033 97.3113 33.118 96.7509 34.8704C96.2048 36.6161 95.8975 38.4276 95.8371 40.2557C95.7849 43.9013 96.29 47.5334 97.3351 51.0264C99.29 58.0071 102.488 64.5085 105.994 70.5529C109.497 76.5006 113.383 82.215 117.626 87.6602C121.753 93.0155 126.067 98.0489 130.464 102.783C138.807 111.74 147.772 120.097 157.293 127.792C165.559 134.527 174.289 140.672 183.418 146.18C190.93 150.764 198.842 154.657 207.057 157.812C214.322 160.508 220.906 162.066 226.366 162.306C228.782 162.453 231.206 162.287 233.579 161.812C234.103 161.737 234.575 161.549 235.077 161.437C235.526 161.325 235.967 161.18 236.395 161.003L237.571 160.531C237.931 160.351 238.26 160.156 238.575 159.991C239.13 159.693 239.659 159.347 240.155 158.958C240.38 158.793 240.59 158.651 240.762 158.501L241.211 158.074L242.02 157.325C242.02 157.325 241.766 157.602 241.271 158.119C241.136 158.254 240.987 158.396 240.829 158.561C240.672 158.726 240.447 158.853 240.23 159.018C239.736 159.419 239.207 159.775 238.65 160.081C238.328 160.254 238.006 160.448 237.639 160.628L236.463 161.115C236.034 161.302 235.591 161.452 235.137 161.564C234.665 161.684 234.193 161.871 233.639 161.954C231.255 162.443 228.818 162.622 226.388 162.486C220.906 162.298 214.292 160.763 206.997 158.082C198.73 154.95 190.766 151.074 183.201 146.502C174.04 141.004 165.279 134.864 156.986 128.129C147.441 120.435 138.453 112.075 130.089 103.112C125.685 98.3709 121.363 93.3301 117.214 87.9673C112.975 82.5106 109.097 76.7836 105.604 70.8226C102.076 64.7257 98.8631 58.2393 96.8932 51.1987C95.8419 47.6634 95.3368 43.9884 95.3952 40.3006C95.4515 38.4323 95.7614 36.5803 96.3165 34.7955C96.8896 32.9821 97.84 31.3106 99.1051 29.8906C100.37 28.4706 101.921 27.3344 103.657 26.5564C105.366 25.7989 107.17 25.2749 109.02 24.9985C112.677 24.5328 116.384 24.6237 120.015 25.2681C127.235 26.4366 134.044 28.8858 140.493 31.6946C146.815 34.5034 152.947 37.7209 158.851 41.3268C164.656 44.8396 170.153 48.5622 175.366 52.3971C185.218 59.6853 194.542 67.6621 203.267 76.2678C210.903 83.7333 218.002 91.7302 224.508 100.199C229.916 107.165 234.679 114.608 238.74 122.436C242.237 129.38 244.514 135.769 245.323 141.199C245.737 143.598 245.838 146.04 245.623 148.464C245.623 148.989 245.466 149.483 245.398 149.962C245.339 150.424 245.241 150.88 245.106 151.325C244.986 151.752 244.866 152.164 244.762 152.554C244.657 152.943 244.462 153.303 244.327 153.617C244.086 154.207 243.793 154.773 243.451 155.31C243.308 155.542 243.196 155.767 243.061 155.954L242.679 156.441C242.207 157.055 241.96 157.34 241.96 157.34Z" fill="white"/>
<path d="M268.325 93.7044C268.325 93.7044 268.325 93.3299 268.228 92.5959C268.228 92.4086 268.228 92.2064 268.175 91.9742C268.123 91.742 268.085 91.5023 268.025 91.2252C267.921 90.6013 267.756 89.9891 267.531 89.3976C267.411 89.0606 267.299 88.6936 267.142 88.3266C266.984 87.9596 266.775 87.5776 266.58 87.1881C266.382 86.7698 266.149 86.3689 265.883 85.9897C265.627 85.555 265.347 85.1349 265.044 84.7313C263.587 82.7994 261.888 81.0625 259.989 79.5632C255.772 76.0803 249.825 72.8596 242.604 70.0359C234.374 66.9213 225.878 64.5622 217.22 62.9878C206.739 61.0176 196.132 59.7912 185.478 59.3176C173.255 58.723 161.006 58.9908 148.821 60.1191C142.387 60.7258 135.819 61.6171 129.168 62.8604C122.379 64.0987 115.679 65.7775 109.109 67.8862C102.451 70.0808 95.7619 72.7772 89.6351 76.6796C86.527 78.594 83.7286 80.9706 81.3361 83.7277C80.165 85.1339 79.1876 86.6907 78.43 88.3565C77.6821 90.0376 77.2956 91.857 77.2956 93.6969C77.2956 95.5368 77.6821 97.3563 78.43 99.0373C79.1848 100.705 80.1624 102.262 81.3361 103.666C83.7228 106.421 86.5163 108.796 89.6201 110.707C95.732 114.617 102.421 117.313 109.094 119.508C115.666 121.617 122.369 123.296 129.16 124.533C135.811 125.784 142.38 126.668 148.814 127.275C161.001 128.411 173.253 128.678 185.478 128.076C196.131 127.601 206.738 126.377 217.22 124.414C225.875 122.832 234.368 120.471 242.597 117.358C249.817 114.534 255.764 111.313 259.981 107.831C261.881 106.331 263.58 104.594 265.037 102.662C265.374 102.258 265.606 101.809 265.883 101.404C266.144 101.023 266.374 100.622 266.572 100.206C266.775 99.8088 266.962 99.4568 267.134 99.0673C267.306 98.6778 267.404 98.3183 267.524 97.9962C267.749 97.405 267.914 96.7928 268.018 96.1686C268.078 95.9065 268.138 95.6593 268.168 95.4196C268.198 95.18 268.168 94.9852 268.22 94.8055C268.28 94.0564 268.318 93.6894 268.318 93.6894C268.318 93.6894 268.318 94.0639 268.265 94.8055C268.265 94.9927 268.265 95.1949 268.228 95.4271C268.19 95.6593 268.138 95.899 268.085 96.1761C267.983 96.8039 267.823 97.4208 267.606 98.0187C267.486 98.3557 267.374 98.7227 267.224 99.0973C267.074 99.4718 266.864 99.8463 266.67 100.243C266.472 100.667 266.241 101.075 265.981 101.464C265.725 101.901 265.445 102.324 265.142 102.73C263.69 104.689 261.991 106.451 260.086 107.973C255.869 111.486 249.914 114.714 242.687 117.59C234.45 120.732 225.943 123.117 217.273 124.713C206.781 126.71 196.161 127.961 185.493 128.458C173.257 129.074 160.992 128.824 148.791 127.709C142.343 127.102 135.766 126.211 129.1 124.975C122.292 123.737 115.572 122.058 108.982 119.95C102.293 117.747 95.5822 115.036 89.4179 111.104C86.2807 109.166 83.4549 106.764 81.0365 103.981C79.8274 102.544 78.8195 100.949 78.0405 99.2396C77.3186 97.4911 76.9226 95.6253 76.8721 93.7344C76.9205 91.8417 77.3219 89.9746 78.0555 88.2292C78.8325 86.5215 79.8406 84.9286 81.0515 83.4955C83.4725 80.7116 86.3008 78.3101 89.4404 76.3725C95.5972 72.4402 102.308 69.7363 108.997 67.5342C115.585 65.4253 122.302 63.7465 129.108 62.5084C135.774 61.2651 142.357 60.3812 148.799 59.7745C160.999 58.6561 173.264 58.4058 185.5 59.0255C196.169 59.5195 206.789 60.771 217.28 62.7705C225.948 64.3681 234.452 66.7523 242.687 69.8936C249.922 72.7473 255.869 76.0055 260.093 79.5108C261.996 81.0347 263.695 82.7968 265.149 84.7538C265.486 85.1583 265.711 85.6227 265.988 86.0196C266.249 86.4083 266.479 86.8165 266.677 87.2405C266.872 87.6375 267.059 87.9895 267.231 88.3865C267.404 88.7835 267.494 89.1355 267.613 89.465C267.83 90.0629 267.991 90.6798 268.093 91.3076C268.145 91.5772 268.205 91.8244 268.235 92.0566C268.265 92.2888 268.235 92.491 268.273 92.6783C268.318 93.3299 268.325 93.7044 268.325 93.7044Z" fill="white"/>
<path d="M233.384 14.4974C233.384 14.4974 233.054 14.3026 232.44 13.8982L231.923 13.5536C231.728 13.4413 231.496 13.3439 231.249 13.2241C230.693 12.9176 230.109 12.6667 229.504 12.4751C229.159 12.3627 228.8 12.2279 228.418 12.123L227.174 11.8759C226.721 11.7733 226.26 11.7106 225.796 11.6886C225.299 11.6263 224.799 11.5913 224.298 11.5838C221.878 11.551 219.465 11.8278 217.115 12.4077C211.782 13.6136 205.588 16.3399 198.929 20.3171C191.428 24.9118 184.359 30.1763 177.807 36.0462C169.839 43.1313 162.38 50.7702 155.487 58.9058C147.525 68.1999 140.231 78.0465 133.661 88.3716C130.201 93.8319 126.875 99.5618 123.789 105.599C120.605 111.719 117.826 118.042 115.468 124.526C113.123 131.14 111.161 138.076 110.502 145.296C110.11 148.919 110.272 152.582 110.981 156.156C111.374 157.944 112.006 159.67 112.861 161.287C113.726 162.911 114.925 164.334 116.378 165.462C117.832 166.591 119.507 167.399 121.295 167.833C123.075 168.258 124.904 168.442 126.733 168.38C130.372 168.175 133.958 167.417 137.369 166.133C144.207 163.699 150.439 160.066 156.251 156.149C161.945 152.247 167.38 147.979 172.52 143.371C177.575 138.877 182.301 134.226 186.751 129.522C195.106 120.588 202.823 111.077 209.842 101.06C215.984 92.3287 221.503 83.1756 226.358 73.6687C230.41 65.8586 233.749 57.6988 236.335 49.2886C238.522 41.851 239.615 35.1774 239.458 29.7097C239.434 27.29 239.099 24.8835 238.462 22.5492C238.334 22.0631 238.176 21.5854 237.99 21.1186C237.851 20.6754 237.676 20.2445 237.466 19.8303L236.911 18.6918C236.709 18.3398 236.492 18.0327 236.305 17.7256C235.969 17.1923 235.586 16.6909 235.159 16.2276C234.986 16.0254 234.829 15.8231 234.672 15.6583L234.215 15.2464C233.668 14.7446 233.399 14.4974 233.399 14.4974L234.245 15.2464C234.38 15.3737 234.537 15.5085 234.709 15.6583C234.882 15.8081 235.031 16.0179 235.211 16.2276C235.647 16.6869 236.036 17.1887 236.372 17.7256C236.567 18.0252 236.792 18.3398 236.994 18.6843C237.196 19.0289 237.361 19.4333 237.563 19.8303C237.777 20.2434 237.955 20.6745 238.095 21.1186C238.284 21.5891 238.449 22.0691 238.589 22.5567C239.24 24.9019 239.587 27.321 239.623 29.7546C239.81 35.2448 238.739 41.9409 236.559 49.401C233.999 57.8256 230.68 66.0008 226.643 73.826C221.787 83.3381 216.263 92.4939 210.112 101.225C203.099 111.28 195.379 120.823 187.013 129.784C182.586 134.503 177.852 139.162 172.782 143.671C167.633 148.292 162.189 152.573 156.483 156.486C150.641 160.426 144.387 164.073 137.511 166.545C134.058 167.836 130.429 168.593 126.748 168.792C124.876 168.858 123.005 168.672 121.183 168.238C119.356 167.737 117.637 166.904 116.112 165.781C114.647 164.585 113.418 163.128 112.487 161.482C111.613 159.828 110.966 158.065 110.562 156.239C109.844 152.622 109.68 148.917 110.075 145.251C110.742 137.971 112.719 131.02 115.071 124.376C117.442 117.878 120.232 111.541 123.422 105.404C126.523 99.3745 129.856 93.6296 133.324 88.1769C139.912 77.8435 147.223 67.9895 155.203 58.6886C162.124 50.5587 169.613 42.9297 177.613 35.859C184.19 29.9842 191.287 24.7195 198.817 20.1299C205.498 16.1677 211.722 13.4563 217.085 12.2654C219.45 11.7049 221.877 11.4532 224.306 11.5164C224.807 11.5268 225.307 11.5643 225.804 11.6287C226.27 11.6605 226.733 11.7256 227.189 11.8234L228.433 12.0931C228.822 12.1979 229.182 12.3403 229.519 12.4526C230.124 12.6492 230.711 12.8998 231.271 13.2016C231.511 13.3289 231.743 13.4263 231.945 13.5461L232.455 13.8982L233.384 14.4974Z" fill="white"/>
</g>
<g opacity="0.4">
<path d="M98.4903 144.825C98.4918 145.004 98.4399 145.18 98.3412 145.33C98.2425 145.48 98.1015 145.597 97.936 145.667C97.7706 145.737 97.5881 145.756 97.4118 145.722C97.2355 145.688 97.0734 145.602 96.9459 145.476C96.8184 145.349 96.7313 145.188 96.6957 145.012C96.6601 144.836 96.6776 144.653 96.746 144.487C96.8144 144.321 96.9305 144.179 97.0797 144.079C97.2289 143.979 97.4044 143.926 97.584 143.926C97.8231 143.926 98.0525 144.02 98.2222 144.189C98.392 144.357 98.4883 144.586 98.4903 144.825Z" fill="white"/>
</g>
<g opacity="0.4">
<path d="M271.112 51.6342C271.114 51.8137 271.062 51.9897 270.963 52.1397C270.865 52.2897 270.724 52.407 270.558 52.4768C270.393 52.5465 270.21 52.5655 270.034 52.5314C269.858 52.4973 269.695 52.4116 269.568 52.2851C269.44 52.1587 269.353 51.9972 269.318 51.8212C269.282 51.6452 269.3 51.4626 269.368 51.2966C269.436 51.1305 269.553 50.9885 269.702 50.8886C269.851 50.7887 270.026 50.7354 270.206 50.7354C270.445 50.7353 270.675 50.8298 270.844 50.9981C271.014 51.1665 271.11 51.3951 271.112 51.6342Z" fill="white"/>
</g>
<path d="M215.769 136.736L226.524 136.144C225.993 124.445 219.394 113.966 216.443 102.634C216.241 101.75 216.038 100.881 215.836 100.034C214.046 91.2337 214.862 81.9985 212.525 73.325C210.593 66.1645 206.593 59.6856 204.758 52.4952C202.152 42.2488 204.009 30.8415 199.193 21.4415C197.604 18.397 195.384 15.7258 192.683 13.6053C189.981 11.4848 186.859 9.96359 183.524 9.14286C180.575 8.39431 177.568 7.89324 174.536 7.64485C171.898 7.17913 169.182 7.45927 166.694 8.45376C165.451 8.86225 164.277 9.45564 163.211 10.2139C160.804 11.7704 158.748 13.811 157.174 16.206C153.002 22.5725 151.931 30.437 151.017 37.987L145.22 84.7698C144.688 89.0017 144.171 93.3084 144.883 97.5028C145.722 102.409 148.193 106.873 150.74 111.157C156.541 120.904 162.919 130.296 169.84 139.282L213.979 136.863L214.023 137.08L215.769 136.736Z" fill="#263238"/>
<path d="M232.845 99.2627C229.549 96.9333 211.506 93.6301 211.506 93.6301L157.188 84.5148C157.188 84.5148 145.728 82.852 139.908 81.3015C134.089 79.7511 111.514 85.6533 111.514 85.6533L117.221 115.995L128.456 114.984C128.456 114.984 128.673 128.758 128.666 131.29C128.666 137.717 136.156 194.371 136.156 194.371L127.857 229.462H221.093L209.281 195.637L209.566 162.516C218.486 151.655 217.325 144.862 217.52 143.506L226.553 134.518L232.448 141.259L250.888 119.673C250.888 119.673 236.14 101.585 232.845 99.2627Z" fill="#2C6E49"/>
<path d="M232.636 104.761C232.594 105.102 232.516 105.439 232.404 105.764L231.655 108.461C231.011 110.708 230.157 113.884 229.408 117.404C228.659 120.924 228.082 124.145 227.715 126.474C227.543 127.568 227.401 128.489 227.281 129.246C227.25 129.587 227.18 129.924 227.071 130.249C227.035 129.908 227.035 129.564 227.071 129.223C227.116 128.557 227.213 127.605 227.356 126.429C227.648 124.078 228.157 120.842 228.929 117.307C229.7 113.771 230.591 110.618 231.31 108.363C231.67 107.232 231.985 106.326 232.217 105.712C232.32 105.38 232.461 105.061 232.636 104.761Z" fill="#263238"/>
<path d="M138.261 117.485C138.186 117.523 137.744 116.609 136.815 115.283C135.601 113.569 134.128 112.053 132.449 110.789C130.76 109.532 128.888 108.542 126.899 107.853C125.401 107.329 124.367 107.157 124.382 107.104C124.62 107.08 124.861 107.095 125.094 107.149C125.737 107.241 126.373 107.381 126.996 107.569C129.064 108.177 131.005 109.154 132.726 110.452C134.446 111.746 135.922 113.337 137.085 115.149C137.441 115.691 137.752 116.263 138.014 116.856C138.13 117.051 138.214 117.264 138.261 117.485Z" fill="#263238"/>
<path d="M167.704 152.359C167.451 152.591 167.166 152.785 166.858 152.936C166.04 153.397 165.177 153.771 164.281 154.052C161.305 155.015 158.101 155.023 155.12 154.073C152.14 153.123 149.531 151.264 147.661 148.757C147.096 148.008 146.612 147.202 146.215 146.352C146.047 146.053 145.926 145.73 145.855 145.394C146.473 146.497 147.164 147.558 147.923 148.569C149.806 150.96 152.362 152.732 155.262 153.656C158.162 154.579 161.272 154.613 164.191 153.752C165.392 153.367 166.565 152.901 167.704 152.359Z" fill="#263238"/>
<path d="M178.25 205.089C177.851 205.149 177.448 205.172 177.045 205.156C176.296 205.156 175.135 205.156 173.749 205.156C170.963 205.089 167.12 204.886 162.896 204.444C158.671 204.002 154.859 203.411 152.125 202.901C150.754 202.647 149.653 202.422 148.897 202.242C148.498 202.178 148.106 202.072 147.729 201.928C148.132 201.937 148.533 201.984 148.927 202.07L152.178 202.579C154.926 203.006 158.724 203.546 162.941 203.987C167.158 204.429 170.985 204.677 173.756 204.826L177.045 204.999C177.448 204.991 177.852 205.022 178.25 205.089Z" fill="#263238"/>
<g opacity="0.3">
<path d="M214.225 209.239C213.739 208.49 212.3 207.741 211.589 207.247C210.643 206.659 209.569 206.309 208.458 206.228C202.164 205.315 195.762 205.441 189.508 206.603L187.816 205.494C188.1 205.944 187.141 206.475 187.464 207.674C187.868 209.172 188.085 210.835 189.006 212.115C190.34 213.958 192.834 214.572 195.111 214.52C197.388 214.467 199.605 213.883 201.904 213.913C206.915 213.988 211.596 217.014 216.592 216.714L214.225 209.239Z" fill="black"/>
</g>
<g opacity="0.3">
<path d="M190.527 156.478C193.084 152.017 194.444 146.97 194.474 141.827L194.714 135.086C194.73 134.767 194.73 134.447 194.714 134.128C194.71 134.1 194.71 134.073 194.714 134.045C194.704 133.495 194.546 132.957 194.258 132.488C193.969 132.019 193.56 131.636 193.073 131.379C192.65 131.106 192.191 130.892 191.71 130.742L177.958 125.297L163.997 129.791C163.215 130.062 162.462 130.411 161.75 130.832C161.486 130.975 161.253 131.169 161.065 131.403C160.877 131.637 160.738 131.906 160.656 132.195C160.618 132.342 160.596 132.493 160.589 132.645L160.312 140.816C160.097 146.549 161.482 152.229 164.311 157.219C167.136 162.235 171.421 166.271 176.595 168.792C177.037 168.664 177.464 168.514 177.883 168.357L178.235 168.215C178.55 168.087 178.865 167.945 179.179 167.795L179.374 167.713L179.486 167.653C181.332 166.704 183.034 165.498 184.542 164.073C184.812 163.833 185.066 163.586 185.291 163.324C186.307 162.319 187.241 161.234 188.085 160.081C188.542 159.481 188.969 158.882 189.351 158.291C189.471 158.118 189.575 157.931 189.688 157.751C189.95 157.339 190.205 156.927 190.437 156.508L190.527 156.478Z" fill="black"/>
</g>
<path d="M179.786 134.338H175.194V154.906H179.786V134.338Z" fill="#2C6E49"/>
<path d="M167.21 142.323V146.914H187.778V142.323H167.21Z" fill="#2C6E49"/>
<path d="M66.7162 44.8252C66.7162 44.8252 53.3615 71.692 51.0995 77.3395C49.1296 82.2304 38.284 105.128 41.6396 111.479C44.9951 117.831 47.9761 117.471 52.6499 117.756C57.3237 118.04 87.7408 116.752 95.6203 116.43C105.657 116.011 116.69 113.164 116.69 113.164L111.514 85.6534L71.3076 93.1434L78.1011 49.4615L66.7162 44.8252Z" fill="#B78876"/>
<path d="M66.6416 45.0279C66.6416 45.0279 68.9635 40.9158 70.3866 39.9271C71.8097 38.9385 83.4792 28.6921 83.4792 28.6921C83.4792 28.6921 88.0481 23.8535 89.3065 24.1232C90.5648 24.3928 102.481 32.3622 102.571 33.6205C102.661 34.8789 102.032 35.5979 101.313 35.7702C100.594 35.9424 101.673 36.7589 99.815 38.6389C99.815 38.6389 101.605 38.5565 101.515 40.2567C101.425 41.9569 101.515 44.2938 100.354 44.3762C99.1933 44.4586 95.5082 45.5447 95.3359 43.5748L94.9764 42.7659C93.0944 44.0936 91.0876 45.235 88.9844 46.1738C86.1157 47.3348 81.5393 47.2449 81.5393 47.2449C80.7323 48.3854 79.5074 49.1607 78.1313 49.4021C75.9517 49.7017 66.6416 45.0279 66.6416 45.0279Z" fill="#B78876"/>
<path d="M84.512 37.665C84.866 38.031 85.0852 38.5064 85.1337 39.0132C85.3445 40.2206 85.1579 41.4638 84.6018 42.556C84.05 43.6186 83.3233 44.5808 82.4522 45.4023C81.8006 46.0314 81.3662 46.376 81.3212 46.331C81.2763 46.2861 81.6283 45.8592 82.2125 45.1776C82.9863 44.3237 83.6482 43.3748 84.1824 42.3538C84.6918 41.3369 84.9096 40.1988 84.8116 39.0657C84.7217 38.1968 84.4446 37.7175 84.512 37.665Z" fill="#AA6550"/>
<path d="M89.9948 40.0314C89.9948 40.0314 89.9948 40.1288 89.8974 40.2262C89.7418 40.3458 89.5455 40.3996 89.3507 40.376C89.0542 40.3347 88.769 40.2346 88.5117 40.0815C88.2545 39.9285 88.0304 39.7255 87.8527 39.4847C87.4821 39.0136 87.2862 38.4286 87.2984 37.8294C87.2984 37.3725 87.4707 37.1253 87.5231 37.1403C87.5755 37.1553 87.568 37.4174 87.6205 37.8144C87.7036 38.3184 87.9094 38.7943 88.2197 39.2001C88.5199 39.5999 88.9356 39.8979 89.4106 40.0539C89.7551 40.1588 89.9499 39.964 89.9948 40.0314Z" fill="#AA6550"/>
<path d="M85.5318 28.6242C85.7163 28.5534 85.9143 28.5247 86.1112 28.5402C86.3082 28.5558 86.4992 28.6152 86.6703 28.7141C87.0896 28.9103 87.4566 29.2028 87.7414 29.5679C88.0784 29.9874 88.378 30.4967 88.7375 31.0659C89.577 32.3307 90.482 33.5508 91.4489 34.7211C91.9982 35.3852 92.5899 36.0593 93.2241 36.7434C93.594 37.093 93.894 37.5099 94.1079 37.9717C94.2108 38.2342 94.2489 38.5177 94.2189 38.798C94.1889 39.0784 94.0918 39.3473 93.9356 39.5821C93.652 40.0104 93.309 40.3962 92.917 40.7281C92.5525 41.0576 92.1855 41.3722 91.8159 41.6718C91.108 42.2592 90.3569 42.7925 89.5689 43.2672C89.1699 43.4905 88.7228 43.6139 88.2657 43.6267C87.834 43.6112 87.4135 43.4848 87.0448 43.2597C86.3952 42.8844 85.8534 42.3478 85.4719 41.7018C85.3135 41.4284 85.2186 41.1229 85.1939 40.8079C85.1693 40.4929 85.2156 40.1764 85.3296 39.8817C85.4181 39.6555 85.5655 39.4571 85.7564 39.307C85.9474 39.1569 86.1749 39.0605 86.4156 39.0278C86.7122 38.9839 87.0145 39.0534 87.262 39.2226C87.4268 39.3499 87.4642 39.4548 87.4568 39.4623C87.3177 39.3473 87.1548 39.2648 86.9799 39.2208C86.805 39.1767 86.6225 39.1722 86.4456 39.2076C86.2477 39.2451 86.0632 39.3341 85.9107 39.4656C85.7582 39.5971 85.643 39.7664 85.5768 39.9566C85.4879 40.2157 85.458 40.4913 85.4891 40.7634C85.5202 41.0354 85.6115 41.2972 85.7565 41.5295C86.1324 42.1072 86.6476 42.5811 87.2545 42.9077C87.5692 43.09 87.9246 43.1905 88.2881 43.1998C88.6761 43.185 89.0544 43.0743 89.3892 42.8777C90.1452 42.4062 90.8662 41.8805 91.5463 41.3048C91.9058 41.0127 92.2953 40.6981 92.6174 40.3761C92.9797 40.0748 93.2952 39.7214 93.5536 39.3274C93.6741 39.1534 93.75 38.9524 93.7748 38.7422C93.7996 38.532 93.7725 38.3189 93.696 38.1215C93.4999 37.716 93.2336 37.3483 92.9095 37.0355C92.2654 36.3464 91.6736 35.6498 91.1343 34.9757C90.1732 33.7822 89.2853 32.5316 88.4754 31.2307C88.1308 30.669 87.8537 30.1521 87.5541 29.7327C87.2987 29.3778 86.9657 29.0857 86.5804 28.8788C86.2557 28.7128 85.8965 28.6255 85.5318 28.6242Z" fill="#AA6550"/>
<path d="M87.636 37.1929C87.6885 37.1929 87.636 37.4326 87.4413 37.7097C87.1619 38.0553 86.7906 38.3149 86.3702 38.4587C85.9464 38.616 85.4867 38.6497 85.0445 38.5561C84.7074 38.4737 84.5351 38.3389 84.5576 38.279C84.5801 38.2191 85.3591 38.3464 86.2054 38.0243C87.0518 37.7023 87.5237 37.1255 87.636 37.1929Z" fill="#AA6550"/>
<path d="M90.2204 27.0059C90.4787 27.2277 90.71 27.4791 90.9095 27.7549C91.3215 28.2267 91.9207 28.9233 92.6397 29.7922L95.1714 32.8556L96.6694 34.6757C97.233 35.3158 97.7346 36.008 98.1674 36.7429C98.41 37.1301 98.5539 37.5709 98.5865 38.0266C98.6192 38.4823 98.5395 38.9391 98.3546 39.3569C97.921 40.0509 97.3407 40.6415 96.6544 41.0871C95.456 41.9785 94.4074 42.8398 93.4487 43.454C92.9956 43.7342 92.4818 43.9011 91.9507 43.9408C91.5458 43.9548 91.1446 43.8591 90.7897 43.6637C90.198 43.3117 90.1306 42.9147 90.153 42.9147C90.3549 43.1678 90.6108 43.3725 90.902 43.5139C91.2336 43.6694 91.6013 43.7315 91.9656 43.6937C92.4498 43.6361 92.9126 43.4613 93.3138 43.1843C94.2276 42.5777 95.2537 41.6863 96.4297 40.7651C97.0574 40.3511 97.5887 39.807 97.9876 39.1697C98.1362 38.8156 98.1961 38.4307 98.1621 38.0483C98.1282 37.6658 98.0014 37.2974 97.7929 36.9751C97.3702 36.2653 96.8865 35.5937 96.3473 34.9678L94.8493 33.1402L92.4 30.0169C91.711 29.1181 91.1567 28.3915 90.7822 27.8822C90.5586 27.615 90.3699 27.3205 90.2204 27.0059Z" fill="#AA6550"/>
<path d="M94.1064 27.9266C94.2263 27.8517 95.6869 30.1062 98.1511 32.2783C98.7535 32.7847 99.3122 33.341 99.8213 33.9411C100.249 34.4477 100.564 35.0403 100.743 35.6788C100.851 35.9662 100.896 36.2739 100.874 36.5804C100.852 36.8869 100.764 37.185 100.615 37.454C100.652 36.8856 100.589 36.3151 100.428 35.7687C100.215 35.1974 99.9008 34.6695 99.4993 34.2108C98.9686 33.6495 98.4059 33.1193 97.814 32.6229C96.7491 31.6778 95.7921 30.6177 94.9603 29.4621C94.5937 29.0004 94.3052 28.4817 94.1064 27.9266Z" fill="#AA6550"/>
<path d="M99.7396 40.7123C99.7396 40.8771 98.4214 40.7123 97.0057 41.1991C96.4066 41.4086 95.8705 41.7668 95.4478 42.2403C95.1332 42.6073 95.0059 42.9069 94.9385 42.8844C94.8711 42.8619 94.901 42.5174 95.1856 42.0455C95.5847 41.448 96.1689 40.9981 96.8484 40.7647C97.5091 40.5346 98.2118 40.4503 98.9082 40.5176C99.4325 40.555 99.7471 40.6449 99.7396 40.7123Z" fill="#AA6550"/>
<path d="M71.2027 92.8361C71.09 93.3801 70.882 93.8999 70.5885 94.3716C69.9594 95.5519 69.2061 96.6617 68.3415 97.6822C67.4881 98.7068 66.5263 99.636 65.4728 100.454C65.058 100.823 64.5847 101.122 64.0722 101.337C63.9823 101.217 66.0271 99.7494 67.982 97.3901C69.9369 95.0307 71.0754 92.7762 71.2027 92.8361Z" fill="#AA6550"/>
<path d="M119.071 33.0958C119.071 33.2753 119.018 33.4509 118.918 33.6001C118.818 33.7493 118.676 33.8654 118.51 33.9338C118.344 34.0022 118.162 34.0197 117.985 33.9841C117.809 33.9485 117.648 33.8614 117.522 33.7339C117.395 33.6064 117.309 33.4443 117.275 33.268C117.241 33.0917 117.26 32.9092 117.33 32.7437C117.4 32.5783 117.517 32.4373 117.667 32.3386C117.817 32.2399 117.993 32.188 118.173 32.1895C118.291 32.1895 118.409 32.213 118.518 32.2586C118.628 32.3043 118.727 32.3711 118.811 32.4554C118.894 32.5396 118.96 32.6396 119.005 32.7495C119.05 32.8594 119.072 32.9771 119.071 33.0958Z" fill="#2C6E49"/>
<path d="M99.8145 132.592C99.816 132.772 99.7641 132.948 99.6654 133.098C99.5667 133.248 99.4257 133.365 99.2603 133.435C99.0948 133.505 98.9123 133.524 98.736 133.489C98.5597 133.455 98.3976 133.37 98.2701 133.243C98.1426 133.117 98.0555 132.955 98.0199 132.779C97.9843 132.603 98.0018 132.421 98.0702 132.255C98.1386 132.089 98.2547 131.947 98.4039 131.847C98.5531 131.747 98.7286 131.693 98.9082 131.693C99.0269 131.692 99.1446 131.715 99.2545 131.76C99.3644 131.804 99.4644 131.87 99.5486 131.954C99.6329 132.038 99.6997 132.137 99.7454 132.247C99.791 132.356 99.8145 132.474 99.8145 132.592Z" fill="white"/>
<path d="M119.071 33.0958C119.071 33.2753 119.018 33.4509 118.918 33.6001C118.818 33.7493 118.676 33.8654 118.51 33.9338C118.344 34.0022 118.162 34.0197 117.985 33.9841C117.809 33.9485 117.648 33.8614 117.522 33.7339C117.395 33.6064 117.309 33.4443 117.275 33.268C117.241 33.0917 117.26 32.9092 117.33 32.7437C117.4 32.5783 117.517 32.4373 117.667 32.3386C117.817 32.2399 117.993 32.188 118.173 32.1895C118.291 32.1895 118.409 32.213 118.518 32.2586C118.628 32.3043 118.727 32.3711 118.811 32.4554C118.894 32.5396 118.96 32.6396 119.005 32.7495C119.05 32.8594 119.072 32.9771 119.071 33.0958Z" fill="white"/>
<path d="M233.639 139.844L259.854 174.23C257.322 176.829 231.781 188.417 218.352 192.731L216.719 210.467C216.719 210.467 283.882 198.243 282.991 179.758C282.489 169.474 250.357 120.287 250.357 120.287L233.639 139.844Z" fill="#B78876"/>
<path d="M192.257 191.465C193.343 191.278 203.088 190.821 203.088 190.821C203.088 190.821 203.522 188.949 202.646 187.825C202.099 187.076 199.447 185.878 199.447 185.878C199.447 185.878 191.351 185.338 190.804 184.979C190.257 184.619 189.358 180.814 190.265 180.814H202.571L209.814 183.578L218.322 192.761L216.69 210.497L207.095 208.872C207.095 208.872 188.272 209.771 187.726 209.052C187.179 208.333 187.186 205.614 187.726 205.427C188.265 205.239 182.662 204.341 182.295 203.255C181.928 202.169 181.936 201.629 182.295 201.082C182.707 200.633 183.2 200.264 183.748 199.996C183.748 199.996 181.599 200.049 181.419 196.918L192.257 191.465Z" fill="#B78876"/>
<path d="M204.847 203.905C204.847 204.033 201.102 204.37 196.451 204.654C191.799 204.939 188.032 205.081 188.024 204.954C188.017 204.827 191.769 204.49 196.428 204.205C201.087 203.92 204.84 203.778 204.847 203.905Z" fill="#AA6550"/>
<path d="M200.646 197.442C200.646 197.569 196.901 198.259 192.212 198.985C187.523 199.712 183.726 200.198 183.703 200.071C183.681 199.944 187.448 199.255 192.137 198.528C196.826 197.802 200.623 197.315 200.646 197.442Z" fill="#AA6550"/>
<path d="M188.011 7.88379C193.682 10.0181 198.419 14.0839 201.388 19.366C202.841 21.9651 203.882 24.8787 206.024 26.9385C207.313 28.1743 208.975 29.0806 209.904 30.6086C211.664 33.4922 210.144 37.3496 211.267 40.5479C212.249 43.3192 215.057 45.1093 216.166 47.8357C217.274 50.562 216.503 53.5506 215.986 56.4043C215.469 59.258 215.327 62.5386 217.282 64.6808C217.815 65.169 218.316 65.6919 218.78 66.2462C219.231 66.9484 219.489 67.7569 219.529 68.5906C219.881 72.9048 217.409 77.7434 219.881 81.3236C220.577 82.3348 221.611 83.0913 222.195 84.1698C223.693 86.9262 221.686 90.6412 223.236 93.3601C224.06 94.8132 225.85 96.4161 224.832 97.7418L206.594 89.9372L188.011 7.88379Z" fill="#263238"/>
<path d="M131.954 80.8973C130.321 78.6503 131.954 75.4146 134.007 73.5346C136.059 71.6546 138.718 70.1341 139.699 67.5426C141.062 63.9099 138.643 59.6631 140.059 56.0529C141.399 52.6524 145.796 50.8098 146.17 47.1772C146.425 44.698 144.612 42.2337 145.272 39.8294C145.931 37.4251 148.949 36.1294 149.811 33.7101C150.56 31.6578 149.503 29.3808 149.811 27.2162C150.26 24.1753 153.174 22.1529 154.544 19.4041C155.628 17.2257 156.846 15.1169 158.192 13.09C159.263 11.592 168.004 6.06434 173.981 7.56983C171.524 12.8129 156.919 24.2576 155.458 29.8377C150.874 47.3419 151.428 65.73 152.013 83.8259" fill="#263238"/>
<path d="M174.528 10.8651C175.352 9.77169 176.4 8.86808 177.604 8.21548C178.807 7.56287 180.136 7.17652 181.502 7.08259C184.242 6.91685 186.978 7.46663 189.441 8.67796C195.583 11.4792 200.309 16.8196 203.44 22.8042C206.571 28.7887 208.234 35.4249 209.544 42.0461C211.228 50.5094 212.381 59.0698 212.997 67.677C213.184 70.2686 214.495 89.1959 214.802 93.0383" fill="#263238"/>
<path d="M172.82 15.996L177.531 15.4717L195.507 22.722C196.762 22.791 197.945 23.3291 198.822 24.2294C199.699 25.1298 200.205 26.3268 200.241 27.5831L200.084 86.1702C200.084 90.1474 199.335 93.5853 196.915 96.7536L194.436 100.094C188.676 107.697 176.827 107.075 172.266 98.6935C171.991 98.2242 171.779 97.7204 171.637 97.1955C171.522 96.7639 171.432 96.3263 171.367 95.8847C170.87 92.9791 170.679 90.0294 170.798 87.0839C170.476 81.9083 170.371 79.7812 170.371 79.8336C170.371 79.886 159.36 78.5678 156.379 64.4266C154.881 57.3934 154.672 45.7614 154.799 36.2266C154.866 27.6355 162.229 15.996 172.82 15.996Z" fill="#B78876"/>
<path d="M159.922 43.8512C159.939 44.3281 160.143 44.7791 160.488 45.108C160.834 45.4369 161.295 45.6176 161.772 45.6114C162.006 45.6184 162.239 45.5785 162.457 45.494C162.675 45.4095 162.874 45.2822 163.043 45.1196C163.211 44.9569 163.345 44.7622 163.437 44.5469C163.528 44.3317 163.576 44.1002 163.577 43.8662C163.556 43.3894 163.35 42.9394 163.004 42.6111C162.657 42.2827 162.197 42.1017 161.719 42.106C161.486 42.1001 161.254 42.1407 161.037 42.2256C160.819 42.3106 160.621 42.4381 160.454 42.6006C160.286 42.7632 160.153 42.9575 160.062 43.1723C159.97 43.387 159.923 43.6179 159.922 43.8512Z" fill="#263238"/>
<path d="M157.638 41.0276C157.878 41.2523 159.211 40.1587 161.174 40.0614C163.136 39.964 164.634 40.8853 164.836 40.6306C164.934 40.5183 164.687 40.0988 164.035 39.6719C163.152 39.1304 162.126 38.8693 161.091 38.9229C160.067 38.9756 159.085 39.3475 158.283 39.9865C157.736 40.4808 157.519 40.9227 157.638 41.0276Z" fill="#263238"/>
<path d="M177.112 45.2596C177.374 45.4618 178.61 44.2334 180.535 43.9413C182.46 43.6492 184.063 44.3982 184.235 44.1286C184.325 44.0087 184.033 43.6193 183.336 43.2597C182.408 42.8046 181.36 42.6501 180.34 42.8178C179.327 42.9696 178.388 43.439 177.659 44.1585C177.127 44.7128 176.992 45.2072 177.112 45.2596Z" fill="#263238"/>
<path d="M170.58 56.4422C170.58 56.3299 169.352 56.1801 167.36 56.0228C166.85 56.0228 166.371 55.9254 166.274 55.5883C166.202 55.0739 166.294 54.55 166.536 54.0903C166.94 52.847 167.375 51.5512 167.824 50.188C169.614 44.6379 170.887 40.0915 170.663 40.0166C170.438 39.9417 168.805 44.3907 167.015 49.9334L165.787 53.8581C165.499 54.4795 165.441 55.1827 165.622 55.843C165.704 56.0154 165.824 56.167 165.974 56.2863C166.123 56.4056 166.297 56.4897 166.483 56.5321C166.766 56.5945 167.055 56.6197 167.345 56.607C169.344 56.5845 170.58 56.5321 170.58 56.4422Z" fill="#263238"/>
<path d="M170.394 79.7658C177.099 79.5242 183.606 77.4294 189.194 73.7139C189.194 73.7139 184.887 83.8179 170.558 83.2037L170.394 79.7658Z" fill="#AA6550"/>
<path d="M171.652 61.1159C172.001 60.6235 172.47 60.2278 173.013 59.9658C173.557 59.7038 174.158 59.5841 174.761 59.6179C175.197 59.6359 175.625 59.7413 176.02 59.9279C176.415 60.1144 176.769 60.3783 177.06 60.704C177.34 61.0183 177.516 61.4115 177.565 61.8297C177.613 62.248 177.531 62.6709 177.33 63.0408C177.028 63.4043 176.624 63.6696 176.17 63.803C175.717 63.9364 175.234 63.9318 174.783 63.7898C173.839 63.505 172.961 63.0366 172.199 62.4117C171.966 62.2694 171.765 62.0808 171.607 61.8574C171.529 61.7481 171.487 61.6172 171.487 61.4829C171.487 61.3486 171.529 61.2177 171.607 61.1084" fill="#AA6550"/>
<path d="M176.46 57.49C176.138 57.49 176.243 59.6246 174.49 61.235C172.738 62.8453 170.453 62.733 170.453 63.0251C170.453 63.1599 170.985 63.4146 171.951 63.3921C173.203 63.3456 174.399 62.8604 175.329 62.0214C176.213 61.2097 176.75 60.0882 176.827 58.8906C176.85 57.9843 176.587 57.4675 176.46 57.49Z" fill="#263238"/>
<path d="M176.206 39.1176C176.521 39.5895 178.371 38.8704 180.7 38.5933C183.03 38.3162 184.969 38.481 185.157 37.9417C185.232 37.687 184.797 37.2751 183.943 36.953C182.815 36.5771 181.616 36.462 180.437 36.6163C179.257 36.7707 178.129 37.1906 177.135 37.8443C176.378 38.3761 176.064 38.8854 176.206 39.1176Z" fill="#263238"/>
<path d="M157.781 33.4474C158.148 33.8743 159.481 33.35 161.106 33.2452C162.732 33.1403 164.102 33.395 164.424 32.9081C164.552 32.6759 164.312 32.2415 163.675 31.8445C162.843 31.3675 161.882 31.1608 160.927 31.2528C159.972 31.3135 159.06 31.6724 158.32 32.279C157.781 32.7658 157.616 33.2227 157.781 33.4474Z" fill="#263238"/>
<path d="M197.433 51.6108C197.388 50.5472 198.489 47.9856 199.523 47.7684C202.302 47.1917 207.357 47.1692 207.762 54.2697C208.316 64.0068 198.444 62.5088 198.414 62.2541C198.384 61.9995 197.643 55.2734 197.433 51.6108Z" fill="#B78876"/>
<path d="M201.177 58.4121C201.222 58.4121 201.357 58.517 201.649 58.6293C202.06 58.782 202.515 58.7658 202.914 58.5844C203.918 58.15 204.69 56.4722 204.637 54.7195C204.617 53.8853 204.409 53.0663 204.03 52.3227C203.921 52.0248 203.741 51.7576 203.506 51.5438C203.272 51.33 202.989 51.1759 202.682 51.0944C202.484 51.0551 202.279 51.0859 202.101 51.1816C201.924 51.2773 201.785 51.4318 201.709 51.6187C201.596 51.8958 201.671 52.0905 201.619 52.1055C201.566 52.1205 201.401 51.9557 201.454 51.5513C201.493 51.3063 201.617 51.0832 201.806 50.9221C201.932 50.8134 202.078 50.7309 202.236 50.6795C202.395 50.628 202.561 50.6087 202.727 50.6225C203.129 50.6789 203.511 50.8371 203.834 51.0823C204.158 51.3274 204.414 51.6513 204.577 52.0231C205.039 52.8411 205.296 53.7584 205.326 54.6971C205.371 56.6595 204.472 58.547 203.079 59.0338C202.822 59.1242 202.549 59.1563 202.278 59.1278C202.007 59.0993 201.746 59.0109 201.514 58.869C201.229 58.6443 201.177 58.4271 201.177 58.4121Z" fill="#AA6550"/>
<path d="M178.707 14.6925C185.823 24.3771 193.41 35.3351 200.78 44.8249C202.053 40.0837 203.252 32.9308 202.361 28.0997C201.469 23.2686 199.028 18.6323 195.118 15.6587C191.208 12.6852 184.242 12.071 179.688 13.9061" fill="#263238"/>
<path d="M164.865 39.8822C164.82 39.9346 164.46 39.6725 163.824 39.3804C163.009 39.0006 162.116 38.816 161.217 38.8411C160.318 38.8751 159.439 39.116 158.648 39.5452C158.034 39.8747 157.689 40.1668 157.644 40.1144C157.6 40.062 157.869 39.695 158.476 39.268C159.281 38.7178 160.227 38.4086 161.202 38.3768C162.177 38.3449 163.141 38.5917 163.981 39.0883C164.61 39.4778 164.902 39.8448 164.865 39.8822Z" fill="#AA6550"/>
<path d="M186.153 49.7827C186.085 49.7827 185.786 49.2659 185.059 48.5918C184.133 47.7049 182.936 47.1559 181.659 47.0336C180.383 46.9113 179.103 47.2227 178.026 47.9177C177.179 48.4345 176.782 48.9213 176.723 48.8689C176.663 48.8165 177 48.2697 177.839 47.6405C178.959 46.8359 180.329 46.4587 181.703 46.577C183.075 46.7188 184.35 47.352 185.291 48.3596C185.707 48.7432 186.005 49.2365 186.153 49.7827Z" fill="#AA6550"/>
<path d="M201.177 86.4469C201.349 83.9902 200.773 81.0092 201.364 78.1405C201.956 75.2718 202.66 72.1485 203.102 68.8004C203.567 65.3606 203.757 61.8892 203.671 58.4192C203.582 54.5535 203.102 50.7066 202.241 46.937C201.821 45.1122 201.293 43.3139 200.66 41.5516C200.008 39.8332 199.214 38.1721 198.286 36.5858C196.619 33.7771 194.672 31.1446 192.474 28.7287C190.504 26.4817 188.646 24.5867 187.006 22.8116L186.407 22.1599C186.227 21.9727 186.047 21.763 185.868 21.5607L184.789 20.265C184.075 19.3847 183.301 18.5539 182.475 17.7783C182.057 17.3962 181.611 17.0456 181.141 16.7297C180.917 16.5873 180.625 16.4076 180.445 16.3177L179.853 16.0181C179.126 15.6462 178.376 15.3234 177.606 15.0519C176.472 14.6125 175.242 14.4807 174.041 14.6699C173.202 14.8646 172.857 15.2092 172.902 15.4189C172.947 15.6286 173.359 15.7934 173.973 16.0406C174.846 16.4034 175.671 16.8712 176.43 17.4337C176.939 17.8007 177.501 18.2352 178.115 18.752L178.595 19.1489C178.733 19.262 178.863 19.3846 178.984 19.516C179.254 19.7878 179.504 20.0781 179.733 20.3848C180.235 21.0514 180.744 21.8828 181.306 22.7966C181.583 23.261 181.883 23.7553 182.212 24.2946C182.385 24.5568 182.557 24.8264 182.759 25.1035L183.298 25.8525C184.759 27.8973 186.437 30.0395 188.122 32.294C189.891 34.5876 191.464 37.0254 192.826 39.5818C193.51 40.9084 194.091 42.2857 194.564 43.7013C195.041 45.2256 195.441 46.773 195.762 48.3376C196.438 51.706 196.819 55.1269 196.9 58.5615C196.98 61.6956 196.842 64.8315 196.488 67.9465C196.166 70.9426 195.605 73.9386 195.133 76.9346C194.621 79.904 194.348 82.9096 194.316 85.9226C194.361 88.8812 194.092 88.9186 195.065 91.4503L214.989 93.9744C214.427 92.057 201.05 88.8962 201.177 86.4469Z" fill="#263238"/>
<path d="M172.521 14.6031C179.936 18.8424 191.119 19.7787 197.485 14.0938C197.485 16.2659 195.987 18.1009 194.527 19.7337C193.066 21.3666 191.471 23.1417 189.388 23.9731C187.141 24.8794 184.572 24.5873 182.153 24.2802C180.946 24.1863 179.76 23.9136 178.633 23.4713C177.468 22.8562 176.409 22.0598 175.494 21.1119C173.689 19.4192 171.749 17.307 172.071 14.8502" fill="#263238"/>
<path d="M190.391 19.5012C190.233 19.7531 190.041 19.9823 189.822 20.1828C189.261 20.7627 188.652 21.2939 188.002 21.7707C187.042 22.4976 185.999 23.1062 184.893 23.5833C184.221 23.8593 183.501 24.0018 182.774 24.0027C182.014 23.9826 181.26 23.8719 180.527 23.6732C179.088 23.3381 177.714 22.7687 176.46 21.9879C175.435 21.3438 174.541 20.513 173.823 19.5387C173.339 18.8831 172.963 18.155 172.707 17.3815C172.596 17.1048 172.536 16.8106 172.527 16.5127C172.879 17.5368 173.384 18.5015 174.025 19.3739C174.751 20.2912 175.633 21.0723 176.632 21.6808C177.865 22.4232 179.207 22.9666 180.609 23.2912C181.32 23.4858 182.052 23.5964 182.789 23.6207C183.47 23.6217 184.146 23.4947 184.781 23.2462C185.866 22.7941 186.899 22.2239 187.859 21.546C189.492 20.3925 190.339 19.4563 190.391 19.5012Z" fill="#455A64"/>
<path d="M196.054 16.7451C196.054 16.7451 195.845 17.3967 195.53 18.4753C195.355 19.1196 195.103 19.7406 194.781 20.3254C194.35 21.0438 193.741 21.6395 193.013 22.0556C191.692 22.7823 190.171 23.0633 188.677 22.857C188.22 22.802 187.784 22.6319 187.411 22.3626C187.156 22.1529 187.074 21.9807 187.096 21.9732C187.564 22.3299 188.127 22.5409 188.714 22.5799C190.137 22.7029 191.565 22.4033 192.819 21.7185C193.49 21.3328 194.058 20.7906 194.474 20.1381C194.797 19.5822 195.063 18.995 195.268 18.3854C195.429 17.7958 195.696 17.2401 196.054 16.7451Z" fill="#455A64"/>
<path d="M199.469 16.1085C199.522 16.1085 199.567 16.483 199.417 17.0747C199.209 17.8521 198.761 18.5441 198.137 19.0524C197.513 19.5606 196.745 19.8593 195.942 19.906C195.335 19.906 194.968 19.8086 194.983 19.7637C195.289 19.6972 195.599 19.6522 195.912 19.6288C196.636 19.5134 197.318 19.2089 197.887 18.746C198.457 18.2831 198.894 17.6782 199.155 16.9923C199.365 16.4606 199.409 16.101 199.469 16.1085Z" fill="#455A64"/>
<path d="M189.808 17.5311C189.592 17.6237 189.361 17.677 189.126 17.6884C188.497 17.7641 187.861 17.7641 187.231 17.6884C185.183 17.3315 183.187 16.7174 181.292 15.8608C179.419 15.0336 177.392 14.61 175.345 14.6175C174.501 14.6939 173.67 14.8777 172.873 15.1642C173.052 15.01 173.257 14.8906 173.48 14.8122C174.065 14.5591 174.687 14.4023 175.322 14.3478C177.419 14.2495 179.509 14.6419 181.427 15.4938C183.301 16.3379 185.259 16.9807 187.269 17.4112C188.111 17.5156 188.96 17.5557 189.808 17.5311Z" fill="#455A64"/>
<path d="M193.912 16.6998C193.912 16.7597 193.41 16.6623 192.713 16.3328C191.861 15.8715 190.915 15.6079 189.947 15.5612C188.978 15.5145 188.012 15.6861 187.118 16.0631C186.758 16.2523 186.388 16.4223 186.01 16.5724C186.01 16.5724 186.309 16.1755 186.998 15.8234C187.912 15.3573 188.932 15.1377 189.956 15.1863C190.981 15.2349 191.975 15.55 192.841 16.1006C193.208 16.281 193.566 16.481 193.912 16.6998Z" fill="#455A64"/>
<path d="M197.934 14.0778C196.893 13.9108 195.833 13.8982 194.788 14.0404C193.769 14.3001 192.793 14.7063 191.89 15.2463C191.89 15.2463 192.084 14.9092 192.564 14.5572C193.205 14.0962 193.938 13.7794 194.713 13.6284C195.483 13.4715 196.278 13.4843 197.043 13.6659C197.627 13.8456 197.949 14.0329 197.934 14.0778Z" fill="#455A64"/>
<path d="M157.128 19.7405C157.128 19.7405 157.128 19.7405 157.128 19.7855C157.076 19.7855 157.128 19.7855 157.128 19.733L157.436 19.2761C157.591 19.0114 157.768 18.7608 157.967 18.5271C158.2 18.28 158.477 18.0028 158.791 17.7107L159.825 16.7595C160.184 16.4224 160.574 16.0105 161.016 15.6659C161.988 14.8851 163.049 14.2214 164.177 13.6886C164.749 13.3735 165.354 13.1224 165.982 12.9396C166.569 12.794 167.168 12.7038 167.772 12.6699C168.791 12.593 169.814 12.7439 170.768 13.1118C171.098 13.2325 171.4 13.418 171.657 13.6572C171.915 13.8964 172.122 14.1847 172.266 14.505C172.342 14.678 172.388 14.863 172.401 15.0518C172.401 15.1791 172.401 15.2465 172.401 15.2465C172.401 15.2465 172.356 15.1866 172.318 15.0667C172.276 14.8928 172.208 14.7262 172.116 14.5724C171.792 13.9917 171.255 13.5594 170.618 13.3665C169.686 13.0538 168.698 12.939 167.719 13.0294C167.141 13.0723 166.567 13.165 166.004 13.3066C165.405 13.4887 164.823 13.7243 164.266 14.0106C163.168 14.5357 162.129 15.1759 161.166 15.9206C160.724 16.2651 160.349 16.6696 159.967 16.9767L158.904 17.898C158.582 18.1751 158.289 18.4298 158.042 18.647C157.841 18.8515 157.653 19.0692 157.48 19.2986C157.368 19.4466 157.245 19.5867 157.113 19.7181C157.113 19.7181 157.113 19.778 157.001 19.7555C156.889 19.733 157.001 19.6956 157.001 19.6731C157.001 19.6506 157.128 19.7405 157.128 19.7405Z" fill="#455A64"/>
<path d="M155.706 23.2753C155.796 23.2153 156.237 23.7322 156.904 24.1891C157.571 24.6459 158.2 24.8856 158.17 24.998C158.14 25.1103 157.421 24.998 156.672 24.5111C155.923 24.0243 155.616 23.3277 155.706 23.2753Z" fill="#455A64"/>
<path d="M150.357 23.6955C150.417 23.6581 150.65 24.115 151.211 24.6617C151.944 25.3746 152.887 25.8318 153.9 25.965C154.914 26.068 155.935 25.845 156.814 25.3283C157.495 24.9314 157.825 24.5793 157.877 24.5793C157.93 24.5793 157.645 25.0662 156.964 25.553C156.057 26.1917 154.945 26.4689 153.845 26.3303C152.745 26.1918 151.736 25.6475 151.017 24.804C150.693 24.5069 150.464 24.1215 150.357 23.6955Z" fill="#455A64"/>
<path d="M154.852 19.3067C154.807 19.3067 154.852 19.0221 155.069 18.685C155.244 18.4718 155.461 18.2956 155.705 18.167C155.949 18.0384 156.217 17.9599 156.492 17.936C157.021 17.8905 157.552 17.9727 158.042 18.1757C158.409 18.3255 158.619 18.4603 158.597 18.5128C158.574 18.5652 158.342 18.5128 157.968 18.4453C157.497 18.3319 157.012 18.289 156.529 18.318C156.065 18.3663 155.626 18.5544 155.271 18.8573C155.009 19.112 154.904 19.3292 154.852 19.3067Z" fill="#455A64"/>
<path d="M151.076 39.792C151.145 39.9382 151.198 40.0914 151.234 40.2489C151.316 40.5485 151.436 40.9979 151.563 41.5746C151.724 42.2808 151.842 42.9962 151.915 43.7168C152.025 44.675 151.993 45.6443 151.818 46.5929C151.597 47.7566 151.052 48.8341 150.245 49.7013C149.804 50.1644 149.406 50.6657 149.054 51.1993C148.876 51.4631 148.755 51.7618 148.701 52.0755C148.647 52.3893 148.66 52.711 148.739 53.0194C148.98 53.6856 149.273 54.3317 149.616 54.9518C149.939 55.656 150.098 56.4243 150.08 57.1988C150.069 58.0084 149.875 58.805 149.511 59.5282C149.124 60.2537 148.603 60.8992 147.975 61.4307C147.377 61.9346 146.844 62.5107 146.388 63.1459C145.999 63.7751 145.828 64.5146 145.901 65.2506C146.021 66.7486 146.732 68.0519 147.039 69.46C147.191 70.1485 147.224 70.8577 147.137 71.5572C147.051 72.2394 146.734 72.8715 146.238 73.3474C145.743 73.7276 145.174 74.0006 144.568 74.1488C144.057 74.3027 143.588 74.5718 143.197 74.9353C142.529 75.591 142.077 76.435 141.901 77.3545C141.764 78.0523 141.727 78.7659 141.789 79.4742C141.894 80.6502 142.051 81.2868 142.013 81.2943C141.944 81.1502 141.899 80.9959 141.879 80.8374C141.77 80.3936 141.69 79.9433 141.639 79.4892C141.548 78.7644 141.563 78.0301 141.684 77.3096C141.851 76.3387 142.311 75.4422 143.002 74.7405C143.424 74.3331 143.938 74.0326 144.5 73.8642C145.061 73.719 145.588 73.4644 146.051 73.1152C146.942 72.3062 147.002 70.8682 146.717 69.5424C146.433 68.2167 145.684 66.8685 145.549 65.2881C145.466 64.4686 145.655 63.6446 146.088 62.9437C146.56 62.2778 147.116 61.676 147.743 61.1536C148.335 60.65 148.828 60.0403 149.196 59.356C149.531 58.6852 149.713 57.9484 149.728 57.1988C149.746 56.4773 149.603 55.7607 149.309 55.1016C148.957 54.4644 148.661 53.7977 148.425 53.1093C148.336 52.7547 148.323 52.3854 148.386 52.0254C148.449 51.6654 148.588 51.3227 148.792 51.0196C149.163 50.4861 149.579 49.985 150.035 49.5215C150.822 48.7023 151.36 47.6762 151.586 46.563C151.773 45.6391 151.823 44.6928 151.735 43.7542C151.679 43.0405 151.584 42.3304 151.451 41.627C151.346 41.0803 151.256 40.6384 151.189 40.2863C151.137 40.1252 151.099 39.9598 151.076 39.792Z" fill="#455A64"/>
<path d="M189.643 15.404C188.935 14.6923 188.185 14.0244 187.396 13.4042C185.443 12.0085 183.245 10.9922 180.917 10.4082C179.673 10.0173 178.353 9.92742 177.067 10.146C176.03 10.4051 175.075 10.9201 174.288 11.644C172.918 12.8574 172.221 13.7937 172.161 13.7337C172.284 13.4928 172.438 13.2687 172.618 13.0671C173.073 12.484 173.574 11.938 174.116 11.4343C174.92 10.6575 175.911 10.1003 176.992 9.81646C178.334 9.56775 179.717 9.64741 181.022 10.0486C183.397 10.641 185.625 11.7142 187.568 13.202C188.147 13.6629 188.677 14.1825 189.149 14.7524C189.344 14.9447 189.51 15.1642 189.643 15.404Z" fill="#455A64"/>
<path d="M195.605 13.6813C194.79 12.6917 193.917 11.7513 192.991 10.865C191.958 9.93906 190.801 9.16253 189.553 8.55808C188.038 7.82379 186.383 7.4228 184.699 7.38214C181.602 7.30362 178.549 8.13708 175.921 9.77895C174.881 10.5214 173.983 11.4449 173.27 12.5053C173.27 12.5053 173.27 12.4154 173.374 12.2581C173.483 12.0218 173.613 11.7961 173.764 11.5841C174.295 10.8033 174.953 10.1172 175.711 9.55424C178.372 7.797 181.512 6.90735 184.699 7.00764C186.446 7.04457 188.163 7.46926 189.725 8.25099C191.846 9.31972 193.678 10.8845 195.066 12.8124C195.275 13.0827 195.455 13.3739 195.605 13.6813Z" fill="#455A64"/>
<path d="M162.708 10.6778C163.154 10.2219 163.657 9.82654 164.206 9.50191C165.466 8.56319 166.987 8.03966 168.558 8.00391C169.429 8.0413 170.277 8.29899 171.022 8.75291C171.642 9.08927 172.211 9.51026 172.715 10.0037C172.968 10.2108 173.178 10.4666 173.331 10.7561C173.484 11.0456 173.578 11.3628 173.606 11.689C173.346 11.1253 172.979 10.6167 172.527 10.191C172.017 9.75856 171.456 9.38891 170.857 9.08996C170.156 8.67542 169.364 8.44122 168.55 8.40836C167.057 8.44713 165.605 8.90102 164.356 9.71912C163.831 10.079 163.28 10.3995 162.708 10.6778Z" fill="#455A64"/>
<path d="M194.579 83.2256C192.827 93.0675 198.182 94.9925 196.414 101.202C195.859 102.692 195.226 104.152 194.519 105.576C193.297 108.659 193.322 112.097 194.587 115.163C195.426 117.178 196.781 118.968 197.433 121.058C198.669 125.035 197.148 129.297 195.935 133.252C194.722 137.206 193.943 141.88 196.332 145.288L224.667 145.97L221.431 137.206C221.204 136.72 221.108 136.183 221.154 135.648C221.312 135.077 221.622 134.559 222.053 134.15C224.3 131.566 225.798 127.514 223.626 124.915C222.877 124.039 221.806 123.462 221.236 122.466C219.259 119.058 224.764 115.201 223.761 111.388C223.334 109.763 221.768 108.557 221.573 106.894C221.289 104.46 223.963 102.707 224.569 100.34C225.266 97.7113 224.989 95.3744 223.176 93.3521" fill="#263238"/>
<path d="M209.881 131.948C209.832 131.855 209.792 131.757 209.761 131.656C209.686 131.461 209.581 131.169 209.454 130.78C209.058 129.648 208.89 128.449 208.96 127.252C209.028 126.369 209.392 125.536 209.993 124.885C210.323 124.533 210.742 124.234 211.094 123.889C211.494 123.568 211.797 123.143 211.971 122.661C212.103 122.129 212.036 121.567 211.783 121.08C211.51 120.546 211.178 120.044 210.795 119.582C210.382 119.084 210.013 118.55 209.694 117.987C209.378 117.372 209.168 116.709 209.072 116.024C208.848 114.55 209.111 113.044 209.821 111.733C210.201 111.045 210.709 110.438 211.319 109.943C211.953 109.478 212.561 108.978 213.139 108.445C213.423 108.173 213.647 107.844 213.795 107.48C213.943 107.116 214.013 106.725 214 106.332C213.916 105.506 213.639 104.71 213.191 104.01C212.772 103.261 212.278 102.512 211.888 101.704C211.458 100.868 211.271 99.9286 211.349 98.9921C211.574 97.0747 212.705 95.4718 213.341 93.7491C213.699 92.8798 213.813 91.9295 213.671 91.0003C213.415 90.0707 212.988 89.197 212.412 88.4237C212.143 88.0042 211.873 87.5773 211.663 87.1204C211.436 86.6531 211.258 86.1637 211.132 85.6598C210.905 84.6359 210.879 83.5776 211.057 82.544C211.349 80.4767 212.113 78.5069 212.555 76.4621C212.786 75.4559 212.867 74.421 212.794 73.3912C212.751 72.8828 212.653 72.3805 212.502 71.8932C212.345 71.4139 212.15 70.948 211.918 70.5C211.461 69.5862 210.914 68.7174 210.473 67.7961C210.242 67.3363 210.052 66.8577 209.903 66.3655C209.831 66.1194 209.774 65.8693 209.731 65.6165C209.673 65.3708 209.64 65.1198 209.634 64.8675C209.559 63.8646 209.624 62.8562 209.828 61.8715C210.008 60.8978 210.255 59.9615 210.487 59.0328C211.05 57.2656 211.263 55.4061 211.117 53.5575C211.043 53.1215 210.922 52.6946 210.757 52.2842C210.61 51.8721 210.409 51.4816 210.158 51.1233C209.679 50.3743 209.102 49.7226 208.615 48.9886C208.102 48.2681 207.765 47.4367 207.634 46.5618C207.548 45.7276 207.548 44.8869 207.634 44.0527C207.746 42.4423 207.821 40.832 207.065 39.5586C206.269 38.3665 205.282 37.3137 204.143 36.4428C202.259 34.8073 200.506 33.0267 198.9 31.1174C197.685 29.6726 196.625 28.1035 195.74 26.4361C195.186 25.3801 194.728 24.2773 194.369 23.1405C194.257 22.751 194.189 22.4439 194.129 22.2417C194.101 22.1411 194.081 22.0384 194.069 21.9346C194.069 21.9346 194.069 22.0319 194.174 22.2342L194.444 23.118C194.836 24.237 195.314 25.3239 195.874 26.3687C196.779 28.0108 197.848 29.5567 199.065 30.9825C200.68 32.8579 202.433 34.6104 204.308 36.2256C205.479 37.1075 206.492 38.1813 207.304 39.4014C207.691 40.0911 207.916 40.8592 207.963 41.6484C208.019 42.4538 208.019 43.2622 207.963 44.0676C207.893 44.8807 207.906 45.6988 208.001 46.5094C208.132 47.3215 208.453 48.0912 208.937 48.7564C209.409 49.5054 209.993 50.1346 210.495 50.8911C211.005 51.6697 211.351 52.5437 211.514 53.4602C212.06 57.2651 209.783 60.8678 210.016 64.8001C210.105 66.7775 211.334 68.4627 212.263 70.2978C212.502 70.7666 212.708 71.2522 212.877 71.7508C213.028 72.2644 213.131 72.791 213.184 73.3237C213.263 74.3912 213.18 75.4646 212.937 76.507C212.502 78.5967 211.746 80.5591 211.439 82.5665C211.267 83.5601 211.29 84.5776 211.506 85.5625C211.623 86.0364 211.791 86.496 212.008 86.9332C212.236 87.37 212.486 87.7949 212.757 88.2065C213.361 89.0213 213.803 89.9442 214.06 90.9253C214.215 91.9196 214.096 92.9374 213.716 93.8689C213.042 95.689 211.933 97.2769 211.731 99.052C211.656 99.9255 211.827 100.802 212.225 101.584C212.6 102.378 213.087 103.082 213.513 103.876C213.983 104.623 214.273 105.469 214.36 106.347C214.37 106.785 214.29 107.22 214.124 107.625C213.957 108.03 213.709 108.395 213.394 108.699C212.806 109.25 212.185 109.765 211.536 110.242C210.942 110.707 210.446 111.285 210.076 111.942C209.387 113.19 209.124 114.629 209.327 116.039C209.416 116.697 209.616 117.335 209.918 117.927C210.221 118.482 210.577 119.006 210.982 119.492C211.366 119.971 211.7 120.488 211.978 121.035C212.254 121.571 212.321 122.191 212.165 122.773C211.976 123.292 211.647 123.748 211.214 124.091C210.825 124.436 210.465 124.728 210.113 125.065C209.532 125.679 209.174 126.47 209.094 127.312C209.014 128.491 209.156 129.676 209.514 130.802L209.783 131.694C209.822 131.776 209.855 131.861 209.881 131.948Z" fill="#455A64"/>
<path d="M206.713 100.439C206.544 100.205 206.401 99.9538 206.286 99.6895C205.957 98.942 205.757 98.1443 205.694 97.3302C205.606 96.0452 205.699 94.7542 205.971 93.4953C206.241 91.9972 206.72 90.3719 206.922 88.5144C207.102 86.4824 206.943 84.4346 206.451 82.4549C205.862 80.1794 205.112 77.9491 204.204 75.7813C203.184 73.3788 202.287 70.9265 201.515 68.4336C201.123 67.1029 200.84 65.7428 200.668 64.3665C200.512 62.944 200.472 61.5112 200.548 60.0822C200.683 57.1985 201.118 54.4197 201.335 51.7233C201.597 49.1462 201.481 46.5446 200.99 44.0011C200.538 41.705 199.472 39.5746 197.904 37.8368C196.406 36.2114 194.789 34.9306 193.523 33.5075C191.578 31.245 189.954 28.7244 188.699 26.0175C188.235 25.0737 187.89 24.3322 187.666 23.8229L187.411 23.2462C187.373 23.1842 187.348 23.1156 187.336 23.0439C187.381 23.1014 187.419 23.1643 187.448 23.2312L187.733 23.7929C188.003 24.3098 188.37 25.0363 188.834 25.9501C190.135 28.6167 191.782 31.0998 193.732 33.3353C194.983 34.7284 196.624 35.9867 198.144 37.6345C199.761 39.4088 200.866 41.5884 201.342 43.9412C201.855 46.5172 201.979 49.1555 201.709 51.7682C201.5 54.4796 201.073 57.2584 200.96 60.1196C200.885 61.526 200.922 62.9362 201.073 64.3365C201.244 65.692 201.522 67.0319 201.904 68.3437C202.653 70.9353 203.657 73.347 204.563 75.669C205.476 77.8579 206.227 80.1109 206.81 82.41C207.298 84.426 207.445 86.5097 207.244 88.5743C207.02 90.4618 206.495 92.1021 206.233 93.5627C205.942 94.8036 205.828 96.0797 205.896 97.3526C205.943 98.428 206.222 99.4805 206.713 100.439Z" fill="#455A64"/>
</g>
<defs>
<clipPath id="clip0_3615_35316">
<path d="M0 16C0 7.16344 7.16344 0 16 0H309C317.837 0 325 7.16344 325 16V236H0V16Z" fill="white"/>
</clipPath>
</defs>
</svg>
