<svg width="325" height="236" viewBox="0 0 325 236" fill="none" xmlns="http://www.w3.org/2000/svg">
<g clip-path="url(#clip0_3615_34880)">
<path d="M0 16C0 7.16344 7.16344 0 16 0H309C317.837 0 325 7.16344 325 16V236H0V16Z" fill="#FEFEE3"/>
<path fill-rule="evenodd" clip-rule="evenodd" d="M243.267 282.14C220.974 295.651 184.963 266.641 157.442 271.273C137.122 274.692 131.304 299.386 111.584 304.299C91.9005 309.204 66.4119 310.04 48.3223 298.462C28.1825 285.572 32.4084 256.369 13.8199 241.726C-2.71717 228.699 -28.8592 233.988 -47.2547 223.174C-67.5638 211.234 -99.0507 196.334 -97.1541 176.485C-94.826 152.119 -39.2483 154.281 -38.3233 129.698C-37.2699 101.703 -95.884 82.376 -92.5734 54.7493C-90.0161 33.4094 -45.6289 43.5766 -26.5503 31.4546C-7.503 19.3525 -6.65205 -14.4925 18.0648 -15.5471C45.2386 -16.7064 62.2635 21.2628 89.6969 26.495C114.603 31.2452 134.717 5.73456 159.489 11.426C182.531 16.7201 199.984 36.9056 213.199 54.8701C225.982 72.2468 227.284 92.8321 233.609 112.188C239.291 129.572 246.677 146.495 248.902 164.115C251.178 182.135 247.706 199.297 246.856 217.082C245.811 238.978 262.937 270.219 243.267 282.14Z" fill="#DBF2C3"/>
<path fill-rule="evenodd" clip-rule="evenodd" d="M105.802 -35.8965C138.584 -49.8713 155.349 -82.3683 191.308 -88.1801C225.322 -93.6774 257.174 -79.6977 275.859 -63.3809C293.943 -47.5881 294.287 -24.0278 289.983 -2.00888C286.375 16.4517 263.833 32.3747 253.591 50.5462C244.295 67.0396 251.14 86.3605 232.588 99.824C214.034 113.289 184.15 110.936 159.993 118.472C134.006 126.579 111.46 146.406 85.1503 145.818C59.0517 145.235 48.513 126.094 30.246 115.573C11.7709 104.932 -15.4551 99.4842 -23.1806 83.4251C-31.0032 67.1641 -20.6409 47.4896 -11.2224 29.3718C-2.09455 11.813 8.12684 -7.16845 30.3602 -19.5687C51.9604 -31.6159 82.2993 -25.8775 105.802 -35.8965Z" fill="#B9CFC2"/>
<path d="M254.351 220.275C254.351 220.345 209.421 220.396 154.013 220.396C98.604 220.396 53.665 220.359 53.665 220.275C53.665 220.191 98.5853 220.153 154.013 220.153C209.44 220.153 254.351 220.223 254.351 220.275Z" fill="#263238"/>
<path d="M76.0376 204.974C76.0376 204.974 73.7017 188.828 73.8886 179.438C74.0754 170.047 73.8886 159.479 73.8886 159.479H74.9584C74.9584 159.479 74.225 178.12 75.0238 189.38C75.8227 200.639 77.9204 204.988 77.9204 204.988H76.0517" fill="#263238"/>
<path d="M83.0364 141.32C82.8691 140.747 82.5279 140.241 82.06 139.871C81.3732 139.437 80.4716 139.619 79.7241 139.871C76.4537 141.025 73.5572 147.122 72.249 150.327L76.5892 164.95C84.396 157.704 85.7368 148.169 83.0364 141.32Z" fill="#455A64"/>
<path d="M81.7928 140.465C81.7928 140.465 81.7928 140.53 81.732 140.656L81.5171 141.189C81.3303 141.656 81.0499 142.315 80.7416 143.147C80.1015 144.81 79.2886 147.132 78.5598 149.748C77.831 152.364 77.3358 154.77 77.0274 156.527C76.8733 157.4 76.7565 158.111 76.6817 158.606C76.6443 158.835 76.6163 159.022 76.593 159.171C76.5852 159.238 76.5695 159.304 76.5462 159.367C76.538 159.301 76.538 159.233 76.5462 159.166C76.5462 159.017 76.5789 158.825 76.607 158.596C76.6584 158.101 76.7565 157.386 76.8966 156.503C77.6337 151.909 78.8875 147.413 80.6341 143.1C80.9705 142.278 81.2555 141.614 81.4657 141.161L81.7087 140.642C81.7289 140.58 81.7571 140.52 81.7928 140.465Z" fill="#263238"/>
<path d="M74.6171 168.477C70.5479 166.23 68.1512 162.002 67.927 157.358C67.7728 154.111 68.7679 150.929 69.8985 147.883C69.9695 147.606 70.1346 147.361 70.3657 147.192C70.5509 147.126 70.7494 147.108 70.9434 147.138C71.1375 147.168 71.321 147.246 71.4776 147.365C74.4349 149.051 76.2243 152.261 77.1773 155.527C77.8648 157.692 78.0954 159.976 77.8547 162.235C77.4829 164.609 76.3538 166.798 74.6358 168.477" fill="#455A64"/>
<path d="M74.6176 168.478C74.6118 168.413 74.6118 168.347 74.6176 168.282C74.6176 168.132 74.6176 167.95 74.6176 167.721C74.6176 167.254 74.6176 166.53 74.5568 165.661C74.4443 163.396 74.1931 161.139 73.8047 158.905C73.3375 156.284 72.8049 153.939 72.4031 152.243C72.2022 151.411 72.0387 150.734 71.9359 150.234L71.7817 149.687C71.7631 149.624 71.7521 149.558 71.749 149.491C71.7764 149.551 71.7983 149.614 71.8144 149.678C71.8565 149.818 71.9079 150 71.9733 150.215C72.1088 150.683 72.291 151.369 72.5105 152.21C72.945 153.901 73.515 156.247 73.9682 158.872C74.3582 161.115 74.5939 163.381 74.6736 165.656C74.6736 166.525 74.6736 167.235 74.6736 167.721C74.6736 167.95 74.6736 168.132 74.6736 168.282C74.6656 168.35 74.6466 168.416 74.6176 168.478Z" fill="#263238"/>
<g opacity="0.3">
<path d="M74.6161 168.477C70.5469 166.23 68.1502 162.002 67.926 157.358C67.7718 154.111 68.7669 150.929 69.8975 147.883C69.9686 147.606 70.1337 147.361 70.3647 147.192C70.5499 147.126 70.7484 147.108 70.9425 147.138C71.1365 147.168 71.3201 147.246 71.4766 147.365C74.4339 149.051 76.2233 152.261 77.1763 155.527C77.8638 157.692 78.0945 159.976 77.8538 162.235C77.482 164.609 76.3528 166.798 74.6348 168.477" fill="black"/>
</g>
<path d="M79.21 193.178C83.2138 194.056 86.5075 196.883 90.3711 198.256C92.9266 199.162 95.8186 199.485 97.8462 201.269C97.379 200.036 96.1923 199.209 95.0664 198.508C91.8869 196.52 88.492 194.9 84.947 193.678C83.1297 193.047 81.1581 192.524 79.3081 193.042" fill="#455A64"/>
<path d="M73.4222 196.743C68.4046 196.663 63.144 192.393 58.1357 192.141C63.3589 190.454 70.8386 191.832 73.4222 196.743Z" fill="#455A64"/>
<path d="M75.3789 184.717C77.9637 183.868 80.7198 183.68 83.3959 184.17C86.0589 184.66 88.6764 185.371 91.2213 186.296C90.9644 184.558 89.5534 183.25 88.2313 182.091C87.2631 181.187 86.2102 180.378 85.0871 179.676C83.9592 178.969 82.6526 178.599 81.3216 178.611C80.5226 178.663 79.7423 178.876 79.0272 179.237C78.3122 179.597 77.6768 180.098 77.1589 180.708C76.1454 181.815 75.5205 183.223 75.3789 184.717Z" fill="#455A64"/>
<path d="M65.0862 179.162C61.928 176.467 57.144 176.728 53 176.826C59.666 180.004 65.9535 183.922 71.7436 188.506C71.9118 185.591 69.076 182.582 65.0862 179.162Z" fill="#455A64"/>
<g opacity="0.3">
<path d="M65.0862 179.162C61.928 176.467 57.144 176.728 53 176.826C59.666 180.004 65.9535 183.922 71.7436 188.506C71.9118 185.591 69.076 182.582 65.0862 179.162Z" fill="black"/>
</g>
<path d="M76.7977 175.458C78.3388 174.396 79.962 173.459 81.6518 172.654C83.3103 171.902 84.8614 170.702 86.4685 169.851C88.5475 168.721 90.3509 167.156 92.2617 165.759C94.1725 164.362 96.2655 163.1 98.6061 162.731C96.6815 162.389 94.7035 162.505 92.8317 163.068C90.9684 163.616 89.1516 164.311 87.3982 165.147C84.9315 166.259 82.4274 167.394 80.3904 169.193C78.3535 170.991 76.5595 172.771 76.7744 175.462" fill="#455A64"/>
<path d="M90.2809 196.743C90.2253 196.728 90.1718 196.706 90.122 196.677L89.6829 196.448C89.3044 196.248 88.7485 195.949 88.0804 195.608C87.744 195.43 87.3656 195.243 86.9592 195.052C86.5527 194.86 86.1229 194.654 85.6604 194.454C84.6633 194.009 83.6302 193.649 82.5722 193.379C81.5221 193.088 80.4165 193.061 79.3533 193.3C78.8899 193.398 78.4353 193.534 77.9938 193.706C77.6097 193.86 77.2406 194.05 76.8912 194.271C76.3776 194.59 75.9067 194.974 75.4897 195.411C75.2 195.724 75.0598 195.911 75.0225 195.902C75.048 195.851 75.0777 195.803 75.1112 195.757C75.2058 195.621 75.3072 195.49 75.4149 195.365C75.8111 194.902 76.2703 194.498 76.7791 194.164C77.1317 193.93 77.5056 193.73 77.8957 193.566C78.3438 193.389 78.8045 193.245 79.2739 193.136C80.3621 192.885 81.4957 192.909 82.5722 193.206C83.6405 193.477 84.6819 193.845 85.6837 194.304C86.1509 194.51 86.5854 194.711 86.9825 194.921C87.3796 195.131 87.7627 195.309 88.0944 195.495C88.7719 195.855 89.3091 196.168 89.6735 196.388L90.094 196.645C90.1598 196.67 90.2225 196.703 90.2809 196.743Z" fill="#263238"/>
<path d="M69.6781 194.257C69.7859 194.275 69.8911 194.306 69.9911 194.35C70.2707 194.452 70.5437 194.57 70.8087 194.705C71.687 195.151 72.4946 195.724 73.2053 196.406C73.9171 197.09 74.5219 197.878 74.9994 198.742C75.1466 198.999 75.2761 199.266 75.3871 199.541C75.4363 199.64 75.4709 199.745 75.4899 199.854C75.4619 199.854 75.275 199.443 74.8872 198.803C74.3829 197.975 73.7753 197.215 73.0792 196.541C72.3774 195.872 71.5923 195.296 70.7433 194.827C70.0985 194.458 69.664 194.29 69.6781 194.257Z" fill="#263238"/>
<path d="M58.582 178.929C58.6563 178.938 58.7288 178.958 58.7969 178.989L59.3996 179.204L60.334 179.555C60.7031 179.69 61.1049 179.896 61.558 180.097C63.9156 181.182 66.1157 182.58 68.0987 184.255C69.1793 185.184 70.1955 186.186 71.1401 187.254C71.9094 188.127 72.6314 189.041 73.3032 189.992C73.8731 190.8 74.3076 191.477 74.6066 191.945L74.9477 192.482C74.9914 192.542 75.0289 192.606 75.0598 192.673C75.0075 192.621 74.9605 192.563 74.9197 192.501C74.8309 192.384 74.7047 192.211 74.5459 191.982C74.2329 191.515 73.7844 190.861 73.2004 190.062C72.6164 189.263 71.8829 188.343 71.0186 187.361C70.0691 186.309 69.0549 185.317 67.9819 184.39C66.0069 182.729 63.8296 181.324 61.502 180.209C61.0348 180.003 60.6564 179.793 60.2919 179.648L59.3576 179.27L58.7642 179.027L58.582 178.929Z" fill="#263238"/>
<path d="M82.9008 181.895C82.7667 181.896 82.6331 181.879 82.5037 181.844L82.0365 181.76C81.8589 181.727 81.6487 181.727 81.4198 181.699C80.2306 181.595 79.0362 181.831 77.9766 182.381C77.395 182.683 76.8651 183.076 76.4068 183.544C76.024 183.92 75.6854 184.339 75.3977 184.792C75.1385 185.213 74.909 185.651 74.7109 186.104C74.7279 185.971 74.7625 185.841 74.8137 185.717C74.9351 185.371 75.0917 185.04 75.2809 184.726C75.5601 184.254 75.8959 183.818 76.2807 183.428C76.7463 182.942 77.2875 182.535 77.8832 182.222C78.9713 181.654 80.206 181.43 81.4245 181.577C81.6534 181.605 81.8636 181.619 82.0458 181.662L82.513 181.778C82.646 181.803 82.776 181.843 82.9008 181.895Z" fill="#263238"/>
<path d="M87.9417 166.264C87.8832 166.311 87.8188 166.35 87.7501 166.38L87.1942 166.684C86.727 166.946 86.0075 167.334 85.1572 167.833C84.3069 168.333 83.3118 168.964 82.2513 169.726C81.0926 170.533 80.0076 171.441 79.009 172.44C78.4931 172.952 78.047 173.53 77.6822 174.159C77.3505 174.79 77.0375 175.397 76.7478 175.986C76.2254 177.018 75.7576 178.077 75.3462 179.158C75.0752 179.888 74.849 180.634 74.6688 181.391C74.5427 181.924 74.4959 182.228 74.4773 182.228C74.4698 182.153 74.4698 182.078 74.4773 182.003C74.4773 181.858 74.5286 181.648 74.5847 181.373C74.739 180.605 74.9482 179.849 75.2107 179.111C75.6123 178.012 76.0772 176.938 76.603 175.892C76.888 175.304 77.201 174.692 77.5373 174.061C77.9074 173.416 78.3632 172.823 78.8922 172.3C79.8975 171.293 80.9921 170.38 82.1625 169.571C83.2371 168.815 84.2462 168.203 85.1011 167.703C85.9561 167.203 86.6709 166.843 87.1708 166.6L87.7454 166.324C87.8086 166.297 87.8743 166.277 87.9417 166.264Z" fill="#263238"/>
<path d="M73.879 181.447C73.8331 181.309 73.8002 181.167 73.7809 181.022C73.7248 180.714 73.6501 180.326 73.5613 179.863C73.325 178.592 73.013 177.336 72.6269 176.103C72.2234 174.873 71.746 173.668 71.1973 172.496L70.7301 171.421C70.6624 171.294 70.6091 171.159 70.5713 171.02C70.6581 171.134 70.7317 171.258 70.7909 171.389C70.9264 171.636 71.1132 171.991 71.3328 172.44C71.916 173.604 72.414 174.81 72.8231 176.046C73.2171 177.287 73.5185 178.555 73.7248 179.84C73.8042 180.335 73.8603 180.737 73.8883 181.013C73.9039 181.157 73.9007 181.303 73.879 181.447Z" fill="#263238"/>
<path d="M73.5191 170.038C73.361 168.139 72.8055 166.294 71.8886 164.624C70.6518 162.325 68.9262 160.325 66.8333 158.764C64.7403 157.204 62.3308 156.122 59.7744 155.593L70.987 172.304L72.4353 175.289C73.4257 173.668 73.6499 171.93 73.5191 170.038Z" fill="#455A64"/>
<path d="M89.6051 202.975H63.5312V207.595H89.6051V202.975Z" fill="#2C6E49"/>
<path d="M65.4736 206.679L67.6975 221.021H85.0068L87.6558 206.679H65.4736Z" fill="#2C6E49"/>
<path d="M89.5902 207.604C89.5902 207.651 83.7083 207.693 76.4528 207.693C69.1973 207.693 63.3154 207.651 63.3154 207.604C63.3154 207.557 69.1973 207.511 76.4528 207.511C83.7083 207.511 89.5902 207.553 89.5902 207.604Z" fill="#263238"/>
<path d="M188.952 189.898H185.079V220.27H188.952V189.898Z" fill="#263238"/>
<path d="M222.133 189.633H218.26V220.005H222.133V189.633Z" fill="#263238"/>
<path d="M235.059 219.065H174.119V220.953H235.059V219.065Z" fill="#263238"/>
<path d="M232.812 30.1289H170.592V190.361H232.812V30.1289Z" fill="#455A64"/>
<path d="M237.301 30.1289H232.812V190.361H237.301V30.1289Z" fill="#263238"/>
<path d="M229.828 33.6143H174.657V187.661H229.828V33.6143Z" fill="#F5F5F5"/>
<path d="M228.062 55.9184C227.996 55.9184 227.94 51.6763 227.94 46.4484C227.94 41.2206 227.996 36.9785 228.062 36.9785C228.127 36.9785 228.183 41.2159 228.183 46.4484C228.183 51.681 228.132 55.9184 228.062 55.9184Z" fill="#263238"/>
<path d="M184.476 73.8164C184.476 73.8164 180.907 77.1662 180.089 80.5159C179.272 83.8657 176.819 104.777 177.286 107.945C177.753 111.112 181.276 128.403 181.276 128.403L184.579 121.344L184.981 105.426L187.644 89.7336V80.628L184.476 73.8164Z" fill="#FFCAAE"/>
<path d="M221.95 125.758L183.238 121.343L180.986 129.056L185.135 187.66H200.286L202.977 138.222L211.76 175.093L211.428 187.66H226.21L227.654 174.215C227.654 174.215 222.169 125.706 221.95 125.758Z" fill="#263238"/>
<path d="M208.858 44.0374L211.329 65.1684C211.82 68.7704 212.535 74.1057 206.807 74.6243C201.799 74.7037 199.907 70.1907 199.444 66.8316C199.229 65.2338 199.042 63.907 199.01 63.7434C199.01 63.7434 193.548 63.977 192.427 58.6931C191.885 56.1376 191.194 50.7883 190.628 45.9388C190.335 43.4281 190.999 40.8991 192.486 38.8552C193.973 36.8112 196.176 35.4022 198.655 34.9085L199.169 34.8057C204.742 34.0442 208.232 38.4404 208.858 44.0374Z" fill="#FFCAAE"/>
<path d="M198.996 63.7667C201.442 63.274 203.694 62.0886 205.485 60.3516C205.485 60.3516 204.579 64.5563 199.197 65.1356L198.996 63.7667Z" fill="#FF935C"/>
<path d="M200.076 48.5135C200.112 48.7003 200.22 48.8656 200.376 48.9746C200.532 49.0836 200.724 49.1276 200.912 49.0975C201.005 49.086 201.094 49.0562 201.175 49.0099C201.255 48.9636 201.326 48.9016 201.383 48.8277C201.439 48.7538 201.48 48.6693 201.504 48.5793C201.527 48.4892 201.533 48.3954 201.52 48.3032C201.483 48.1164 201.376 47.9511 201.22 47.8421C201.064 47.7331 200.871 47.6891 200.683 47.7192C200.591 47.7301 200.501 47.7595 200.42 47.8056C200.339 47.8517 200.268 47.9137 200.212 47.9878C200.155 48.0618 200.114 48.1466 200.09 48.2369C200.067 48.3272 200.062 48.4212 200.076 48.5135Z" fill="#263238"/>
<path d="M198.426 53.5266C197.97 53.4787 197.51 53.4881 197.057 53.5546C196.842 53.5546 196.637 53.5546 196.59 53.4378C196.524 53.2279 196.524 53.003 196.59 52.7931C196.688 52.2512 196.786 51.6812 196.889 51.0879C197.295 48.6632 197.543 46.6869 197.445 46.6729C197.347 46.6589 196.94 48.6071 196.51 51.0318C196.417 51.6298 196.328 52.1951 196.239 52.7417C196.161 53.0186 196.181 53.314 196.296 53.578C196.34 53.6454 196.4 53.7018 196.469 53.7431C196.539 53.7843 196.617 53.8093 196.697 53.8163C196.818 53.8316 196.941 53.8316 197.062 53.8163C197.527 53.7777 197.985 53.6804 198.426 53.5266Z" fill="#263238"/>
<path d="M199.851 43.6119C199.963 43.7988 200.659 43.5605 201.524 43.4951C202.388 43.4297 203.117 43.5325 203.192 43.3316C203.224 43.2335 203.07 43.07 202.752 42.9298C202.343 42.7556 201.897 42.6865 201.454 42.7289C201.012 42.762 200.585 42.9032 200.211 43.1401C199.926 43.3316 199.79 43.5185 199.851 43.6119Z" fill="#263238"/>
<path d="M209.214 48.1201C209.303 48.0594 212.858 46.3215 213.395 50.1617C213.932 54.002 209.966 53.7498 209.943 53.6423C209.919 53.5349 209.214 48.1201 209.214 48.1201Z" fill="#FFCAAE"/>
<path d="M210.914 52.0209C210.914 52.0209 210.984 52.0583 211.106 52.0957C211.276 52.1397 211.456 52.1181 211.61 52.0349C211.993 51.8294 212.246 51.1379 212.166 50.4418C212.132 50.1098 212.021 49.7901 211.844 49.5074C211.792 49.3917 211.713 49.2906 211.612 49.2131C211.512 49.1357 211.394 49.0843 211.269 49.0636C211.19 49.0535 211.109 49.0718 211.041 49.1154C210.974 49.159 210.924 49.225 210.9 49.3019C210.863 49.414 210.9 49.4888 210.9 49.4981C210.9 49.5074 210.807 49.4467 210.816 49.2832C210.823 49.185 210.865 49.0924 210.933 49.0216C211.028 48.928 211.155 48.8745 211.288 48.8721C211.451 48.8791 211.609 48.9285 211.746 49.0153C211.884 49.1022 211.996 49.2235 212.073 49.3673C212.282 49.6787 212.414 50.0361 212.456 50.4091C212.535 51.1847 212.241 51.9649 211.708 52.2031C211.611 52.25 211.504 52.2743 211.395 52.2743C211.287 52.2743 211.18 52.25 211.082 52.2031C210.933 52.1144 210.9 52.0303 210.914 52.0209Z" fill="#FF935C"/>
<path d="M198.604 56.0906C198.604 55.9925 199.328 55.8897 199.935 55.2964C200.188 55.0339 200.406 54.7403 200.584 54.4227C200.734 54.1751 200.837 54.0209 200.874 54.0396C200.911 54.0583 200.874 54.2358 200.771 54.5068C200.637 54.8819 200.419 55.2219 200.136 55.5019C199.848 55.7848 199.487 55.9821 199.094 56.0719C198.8 56.1466 198.608 56.1233 198.604 56.0906Z" fill="#263238"/>
<path d="M192.345 49.7507C192.38 49.9371 192.486 50.1025 192.642 50.2115C192.797 50.3206 192.989 50.3648 193.176 50.3347C193.269 50.3232 193.358 50.2934 193.438 50.2471C193.519 50.2008 193.59 50.1389 193.646 50.0649C193.703 49.991 193.744 49.9066 193.768 49.8165C193.791 49.7265 193.797 49.6326 193.784 49.5405C193.748 49.354 193.642 49.1887 193.486 49.0796C193.331 48.9706 193.139 48.9264 192.952 48.9565C192.859 48.9673 192.77 48.9967 192.689 49.0428C192.608 49.089 192.537 49.1509 192.48 49.225C192.423 49.2991 192.382 49.3838 192.359 49.4741C192.336 49.5644 192.331 49.6585 192.345 49.7507Z" fill="#263238"/>
<path d="M204.668 35.077C205.602 34.0632 207.163 33.8763 208.499 34.2314H208.527C210.003 34.5584 210.994 35.9507 211.592 37.3382L211.685 37.5718C212.255 38.2663 212.982 38.8155 213.806 39.1743C213.956 39.235 214.124 39.3144 214.161 39.4686C214.165 39.5474 214.15 39.626 214.115 39.6971C214.081 39.7682 214.029 39.8294 213.965 39.8751C213.652 40.1606 213.278 40.3715 212.872 40.4918C213.04 40.8199 213.237 41.1326 213.46 41.4261C213.657 41.6784 213.885 41.9774 213.783 42.2764C213.73 42.3876 213.646 42.4806 213.54 42.543C213.434 42.6055 213.312 42.6347 213.189 42.6268C212.946 42.604 212.711 42.5308 212.498 42.4119L213.11 43.4818C212.607 43.6317 212.076 43.6637 211.559 43.5752C211.472 44.9506 211.308 46.32 211.068 47.6771C210.48 47.7519 209.9 47.6771 209.578 48.0556C209.139 48.5601 209.022 49.4244 208.176 49.2095C207.737 49.1021 207.242 48.2751 207.055 47.8593C205.769 45.1344 205.085 42.1641 205.051 39.1509C204.385 38.5987 203.619 38.18 202.794 37.9175L202.864 37.9643C201.309 37.6326 199.557 37.3336 198.23 38.2119C197.197 38.8893 196.693 40.1133 195.987 41.1225C195.375 42.0501 194.576 42.8398 193.642 43.4407C192.707 44.0417 191.657 44.4408 190.559 44.6124C190.559 46.2475 190.979 48.2705 191.087 49.7842L189.395 47.5323C189.274 47.3719 189.162 47.205 189.059 47.0324L189.022 46.9857C188.859 46.7091 188.683 46.4409 188.494 46.1821C188.348 46.3866 188.126 46.5246 187.878 46.5657C187.63 46.6069 187.376 46.5479 187.172 46.4017C186.967 46.2555 186.829 46.0341 186.788 45.7861C186.747 45.5382 186.806 45.284 186.952 45.0796C187.056 44.8879 187.19 44.7144 187.349 44.5656C187.187 44.7673 186.975 44.9235 186.734 45.0193C186.493 45.1151 186.232 45.1471 185.976 45.1123C185.722 45.0665 185.49 44.9391 185.315 44.7493C185.141 44.5595 185.033 44.3178 185.008 44.0611C185.01 43.8891 185.056 43.7205 185.142 43.5716C185.228 43.4226 185.351 43.2984 185.499 43.2108C184.843 43.3427 184.162 43.2793 183.542 43.0286C183.14 42.8604 182.729 42.5614 182.794 42.0615C182.835 41.8393 182.959 41.6407 183.14 41.5056C183.543 41.2608 184.004 41.127 184.476 41.1178C185.636 40.9498 186.744 40.5201 187.714 39.861C187.329 39.7285 186.968 39.5362 186.644 39.2911C186.305 39.0429 186.039 38.7079 185.875 38.3215C185.71 37.9351 185.653 37.5115 185.709 37.0953C185.717 37.017 185.744 36.9417 185.786 36.8752C185.828 36.8087 185.885 36.7529 185.952 36.7122C186.181 36.6094 186.419 36.815 186.606 36.9785C186.852 37.2383 187.163 37.4271 187.506 37.525C187.85 37.6228 188.214 37.6261 188.559 37.5344C189.045 37.4449 189.504 37.2451 189.9 36.9505L189.937 36.8944C190.101 36.6748 190.264 36.4646 190.405 36.2637C191.61 34.7313 192.409 33.9838 193.563 33.3438H203.743L204.668 35.077Z" fill="#263238"/>
<path d="M203.062 35.8984C203.273 36.0227 203.473 36.1649 203.66 36.3236C204.144 36.7808 204.503 37.3552 204.701 37.9914C204.848 38.427 204.949 38.8762 205.005 39.3323C205.07 39.8275 205.094 40.3554 205.127 40.9161C205.151 41.5046 205.21 42.0912 205.304 42.6727C205.358 42.9901 205.438 43.3026 205.542 43.6071C205.628 43.9286 205.798 44.2219 206.033 44.4574C206.137 44.5461 206.262 44.6069 206.396 44.6339C206.53 44.6608 206.669 44.6532 206.799 44.6115C207.056 44.5308 207.278 44.3663 207.43 44.1443C207.665 43.7153 207.785 43.2321 207.775 42.7428L207.663 42.7708C207.874 43.1538 208.14 43.5033 208.453 43.808C208.752 44.0936 209.151 44.2511 209.565 44.2471C209.756 44.2422 209.942 44.1839 210.102 44.0789C210.25 43.9778 210.364 43.8346 210.429 43.6678C210.487 43.5194 210.507 43.3586 210.485 43.2006C210.459 43.0476 210.379 42.9087 210.261 42.8082L210.21 42.8642C210.58 43.1669 211.01 43.3896 211.471 43.5183C211.594 43.5568 211.718 43.588 211.845 43.6117C211.888 43.6179 211.932 43.6179 211.975 43.6117C211.935 43.5956 211.892 43.583 211.849 43.5744C211.725 43.5466 211.603 43.5091 211.485 43.4622C211.039 43.305 210.63 43.0604 210.28 42.7428L210.228 42.7988C210.331 42.8997 210.399 43.0302 210.423 43.1718C210.447 43.3134 210.427 43.4591 210.364 43.5884C210.304 43.7378 210.202 43.8663 210.069 43.9575C209.923 44.0504 209.753 44.1006 209.579 44.1023C209.194 44.1008 208.825 43.952 208.546 43.6865C208.245 43.3848 207.989 43.0419 207.785 42.668L207.687 42.5045V42.696C207.699 43.17 207.586 43.6388 207.36 44.0556C207.222 44.2523 207.023 44.3983 206.794 44.4714C206.681 44.5094 206.559 44.5169 206.442 44.4931C206.325 44.4693 206.216 44.4151 206.126 44.3359C205.905 44.1157 205.744 43.8421 205.659 43.5417C205.559 43.2519 205.481 42.9552 205.426 42.654C205.33 42.0773 205.269 41.4954 205.243 40.9114C205.211 40.3508 205.178 39.8182 205.108 39.3183C205.047 38.8569 204.939 38.4029 204.785 37.9634C204.58 37.3153 204.202 36.7355 203.692 36.2862C203.505 36.1229 203.292 35.9919 203.062 35.8984Z" fill="#455A64"/>
<path d="M187.177 43.1588L187.223 43.1915L187.368 43.271C187.447 43.3171 187.53 43.3562 187.616 43.3878C187.728 43.4396 187.843 43.4833 187.962 43.5186C188.718 43.7533 189.52 43.7966 190.298 43.6447C191.456 43.422 192.525 42.8687 193.376 42.0516C194.399 41.0438 195.206 39.8391 195.75 38.5103C196.053 37.8189 196.287 37.1087 196.563 36.4593C196.807 35.8234 197.14 35.2256 197.553 34.684C197.918 34.1968 198.4 33.8096 198.955 33.5581C199.209 33.4507 199.478 33.3844 199.754 33.3619C200.009 33.3456 200.265 33.3628 200.515 33.4133C201.279 33.5751 201.956 34.0166 202.412 34.6513C202.566 34.8912 202.691 35.1484 202.786 35.4175C202.786 35.4175 202.786 35.4175 202.786 35.3614C202.786 35.3054 202.758 35.2633 202.739 35.2026C202.671 34.9991 202.578 34.8045 202.463 34.6233C202.014 33.9599 201.326 33.4948 200.543 33.3245C200.284 33.2708 200.018 33.2503 199.754 33.2638C199.468 33.2867 199.188 33.3529 198.922 33.46C198.344 33.7131 197.839 34.1084 197.455 34.6093C197.03 35.1572 196.688 35.7649 196.441 36.4126C196.161 37.0714 195.927 37.7721 195.624 38.4636C195.086 39.7757 194.292 40.967 193.288 41.9675C192.455 42.7736 191.41 43.3248 190.274 43.5559C189.509 43.7127 188.718 43.6839 187.966 43.4719C187.452 43.3083 187.177 43.1401 187.177 43.1588Z" fill="#455A64"/>
<path d="M186.402 40.8747C186.468 40.92 186.538 40.9576 186.613 40.9869C186.807 41.0745 187.009 41.1464 187.215 41.2018C187.52 41.2915 187.833 41.3525 188.15 41.384C188.538 41.4215 188.929 41.4215 189.318 41.384C189.707 41.3467 190.091 41.2732 190.467 41.1644C190.77 41.0716 191.065 40.9544 191.35 40.814C191.543 40.7181 191.728 40.6088 191.906 40.487C192.027 40.4029 192.093 40.3515 192.088 40.3421C192.083 40.3328 191.798 40.5103 191.313 40.7299C191.028 40.8586 190.734 40.9663 190.434 41.0523C190.065 41.1526 189.689 41.2229 189.308 41.2625C188.927 41.2929 188.545 41.2929 188.164 41.2625C187.849 41.2329 187.537 41.1814 187.229 41.1083C186.711 40.9869 186.412 40.8747 186.402 40.8747Z" fill="#455A64"/>
<path d="M203.529 48.9287L197.591 50.036C197.591 50.036 197.54 52.4046 198.993 53.4231C200.446 54.4415 202.637 53.2596 203.197 52.0822C203.595 51.0814 203.71 49.9904 203.529 48.9287Z" fill="#455A64"/>
<path d="M195.787 50.3721L189.849 51.4793C189.849 51.4793 189.797 53.848 191.25 54.8664C192.703 55.8849 194.899 54.7029 195.455 53.5256C195.856 52.5254 195.97 51.4337 195.787 50.3721Z" fill="#455A64"/>
<path d="M197.605 50.0361L195.685 50.3959V50.9705C195.995 50.7534 196.351 50.6103 196.725 50.552C197.099 50.4937 197.481 50.5218 197.843 50.6341L197.605 50.0361Z" fill="#455A64"/>
<path d="M202.959 49.5127L198.338 50.377C198.338 50.377 198.296 52.2177 199.417 53.0119C200.539 53.8062 202.258 52.8858 202.688 51.9701C203.003 51.1917 203.097 50.3411 202.959 49.5127Z" fill="#263238"/>
<path d="M195.119 50.9795L190.493 51.8438C190.493 51.8438 190.451 53.6845 191.573 54.4787C192.694 55.273 194.413 54.3526 194.843 53.4369C195.158 52.6583 195.253 51.8084 195.119 50.9795Z" fill="#263238"/>
<path d="M203.528 48.9286L209.345 48.3213C209.306 48.5051 209.229 48.6787 209.119 48.8308C209.008 48.9829 208.867 49.1102 208.705 49.2043L203.528 50.3115V48.9286Z" fill="#455A64"/>
<path d="M198.641 50.8025C198.609 50.8025 198.599 50.9941 198.641 51.2697C198.722 51.6658 198.894 52.0373 199.146 52.3536C199.402 52.6802 199.761 52.9107 200.164 53.0076C200.477 53.0731 200.669 53.0077 200.664 52.9796C200.66 52.9516 200.482 52.9236 200.221 52.8208C199.883 52.6838 199.586 52.4636 199.356 52.1807C198.856 51.5313 198.735 50.7745 198.641 50.8025Z" fill="white"/>
<path d="M190.521 51.7598C190.488 51.7598 190.451 51.9747 190.521 52.3158C190.597 52.765 190.777 53.1901 191.048 53.5568C191.318 53.9236 191.67 54.2218 192.077 54.4275C192.39 54.577 192.605 54.6004 192.614 54.5676C192.11 54.2452 191.657 53.85 191.269 53.395C190.652 52.6008 190.605 51.7505 190.521 51.7598Z" fill="white"/>
<path d="M199.838 47.0322C199.95 47.1303 200.525 46.6024 201.403 46.5229C202.282 46.4435 202.968 46.8313 203.053 46.7098C203.095 46.6584 202.973 46.4715 202.674 46.2893C202.271 46.0537 201.803 45.9522 201.338 45.9997C200.879 46.0425 200.446 46.2326 200.105 46.5416C199.857 46.7799 199.792 46.9855 199.838 47.0322Z" fill="#263238"/>
<path d="M192.078 46.9203C192.181 47.0745 192.854 46.8502 193.685 46.7708C194.517 46.6914 195.213 46.7708 195.292 46.5839C195.325 46.4998 195.18 46.3644 194.881 46.2569C194.479 46.1275 194.054 46.086 193.634 46.1354C193.209 46.176 192.799 46.3066 192.429 46.5185C192.153 46.682 192.031 46.8456 192.078 46.9203Z" fill="#263238"/>
<path d="M192.05 48.3965C192.162 48.4946 192.737 47.9667 193.615 47.8873C194.493 47.8079 195.18 48.1956 195.264 48.0742C195.306 48.0228 195.185 47.8359 194.886 47.6537C194.481 47.4201 194.014 47.3188 193.55 47.364C193.091 47.4068 192.658 47.5969 192.316 47.906C192.069 48.1442 191.994 48.3498 192.05 48.3965Z" fill="#263238"/>
<path d="M211.555 63.6406L223.291 67.0932L222.356 98.9742L222.571 120.465L222.973 125.739C222.973 125.739 216.185 129.01 205.892 128.884C195.6 128.758 182.636 123.142 182.636 123.142C182.636 123.142 185.747 110.29 186.158 107.954C186.569 105.618 187.177 92.4709 187.177 92.4709V88.8735L187.35 69.4291L198.618 65.6355C198.618 65.6355 201.001 69.373 204.351 69.1254C209.943 68.6909 211.555 63.6406 211.555 63.6406Z" fill="#2C6E49"/>
<path d="M187.645 69.3359C185.872 70.0971 184.31 71.2748 183.09 72.7689C181.87 74.263 181.028 76.0294 180.637 77.9182C179.838 81.8473 178.348 89.8129 178.348 89.8129C181.365 91.4928 184.744 92.4207 188.196 92.5179L187.645 69.3359Z" fill="#2C6E49"/>
<path d="M225.341 68.2754C225.341 68.2754 230.849 70.901 228.658 80.8895C227.005 88.43 225.014 93.1112 222.08 99.6145C219.871 104.515 216.226 104.613 213.671 104.001C210.9 103.343 189.877 89.6821 189.877 89.6821L192.731 83.5105L212.48 92.0834L218.553 76.0074C218.553 76.0074 221.992 66.5702 225.341 68.2754Z" fill="#FFCAAE"/>
<path d="M223.291 67.0938C223.95 67.332 230.514 69.6353 229.664 76.5543C228.883 82.9455 226.949 93.1256 226.949 93.1256C224.364 92.7228 221.816 92.1119 219.329 91.2988C217.075 90.5028 215.013 89.2405 213.279 87.594L220.082 68.0515L223.291 67.0938Z" fill="#2C6E49"/>
<path d="M226.949 93.1254C226.851 93.1292 226.754 93.1213 226.659 93.102L225.841 92.9899C225.131 92.8965 224.113 92.7096 222.861 92.4293C221.395 92.0954 219.956 91.6567 218.553 91.1165C216.812 90.47 215.199 89.5211 213.788 88.3133C213.561 88.1082 213.354 87.8813 213.171 87.6359L213.134 87.5892L213.157 87.5284C214.386 84.0526 215.493 80.9457 216.292 78.6518L217.259 76.0029L217.53 75.2927C217.556 75.2068 217.593 75.125 217.642 75.0498C217.632 75.138 217.61 75.2243 217.577 75.3068C217.516 75.4983 217.441 75.7366 217.343 76.0356L216.451 78.7079L213.386 87.5845V87.4771C213.56 87.7068 213.756 87.9196 213.97 88.1124C215.357 89.2924 216.938 90.2234 218.642 90.8642C220.032 91.4127 221.457 91.8669 222.907 92.2237C224.145 92.518 225.159 92.7329 225.865 92.8544L226.673 93.0133C226.769 93.0397 226.861 93.0773 226.949 93.1254Z" fill="#263238"/>
<path d="M188.163 76.2227C188.175 76.3235 188.175 76.4255 188.163 76.5263C188.163 76.7552 188.139 77.0449 188.116 77.4046C188.074 78.1942 188.013 79.2734 187.939 80.6189C187.794 83.366 187.602 87.1035 187.392 91.2381C187.182 95.3728 186.967 99.143 186.775 101.857C186.677 103.212 186.588 104.31 186.514 105.072C186.476 105.427 186.448 105.716 186.42 105.941C186.415 106.043 186.4 106.145 186.373 106.244C186.361 106.142 186.361 106.038 186.373 105.936C186.373 105.712 186.401 105.422 186.42 105.062C186.467 104.273 186.528 103.194 186.602 101.843C186.743 99.1009 186.934 95.3587 187.149 91.2241C187.364 87.0895 187.574 83.3239 187.766 80.6096C187.859 79.25 187.953 78.1521 188.023 77.3953C188.06 77.0356 188.093 76.7459 188.116 76.5217C188.124 76.4209 188.14 76.321 188.163 76.2227Z" fill="#263238"/>
<path d="M193.446 83.9166C193.366 83.7858 191.577 80.4921 191.577 80.4921L187.274 75.082C187.274 75.082 185.943 75.4324 186.564 77.2218C187.185 79.0111 188.433 79.796 188.433 80.4921C188.433 81.1882 188.04 81.5152 186.564 81.6367C185.088 81.7582 176.678 81.7395 175.819 82.1506C174.959 82.5617 175.081 83.5522 175.777 83.6877C176.473 83.8231 182.275 83.8699 182.476 83.8512C182.665 83.8536 182.852 83.8835 183.032 83.9399C183.032 83.9399 181.771 84.4071 181.958 85.3929C181.996 85.6648 182.133 85.9132 182.342 86.0914C182.551 86.2695 182.818 86.365 183.093 86.36C182.957 86.5301 182.857 86.7257 182.799 86.9351C182.74 87.1446 182.724 87.3636 182.752 87.5794C182.826 87.784 182.941 87.972 183.088 88.1323C183.236 88.2927 183.414 88.4223 183.611 88.5137C183.53 88.6131 183.472 88.7296 183.441 88.8545C183.411 88.9795 183.409 89.1097 183.436 89.2354C183.463 89.3611 183.518 89.4791 183.597 89.5807C183.676 89.6822 183.777 89.7646 183.892 89.8219C184.761 90.4339 184.92 90.7235 186.349 90.6768C187.779 90.6301 191.142 90.5273 191.142 90.5273L193.446 83.9166Z" fill="#FFCAAE"/>
<path d="M186.662 119.829C186.771 119.862 186.877 119.907 186.975 119.965L187.853 120.399C188.232 120.595 188.699 120.829 189.255 121.067C189.811 121.305 190.428 121.614 191.124 121.88L192.236 122.319C192.619 122.469 193.035 122.595 193.455 122.744C194.296 123.053 195.216 123.305 196.179 123.585C200.397 124.742 204.761 125.275 209.134 125.169C210.138 125.127 211.091 125.099 211.984 125.001C212.451 124.959 212.857 124.935 213.269 124.879L214.451 124.721C215.207 124.632 215.88 124.487 216.473 124.38C217.067 124.272 217.581 124.169 217.992 124.071L218.95 123.856C219.061 123.825 219.175 123.806 219.291 123.8C219.185 123.844 219.075 123.878 218.964 123.903L218.029 124.16C217.618 124.277 217.095 124.403 216.516 124.515C215.936 124.627 215.249 124.791 214.493 124.889L213.306 125.066C212.895 125.127 212.46 125.155 212.017 125.202C211.124 125.309 210.148 125.342 209.153 125.393C204.765 125.53 200.382 124.998 196.155 123.814C195.188 123.525 194.263 123.268 193.422 122.95C193.002 122.796 192.586 122.665 192.198 122.506L191.091 122.039C190.381 121.759 189.764 121.446 189.222 121.189C188.68 120.932 188.213 120.693 187.821 120.483L186.961 120.016C186.855 119.964 186.755 119.902 186.662 119.829Z" fill="#263238"/>
<path d="M189.471 106.244C189.415 106.211 193.751 98.8996 199.156 89.9203C204.561 80.9409 208.99 73.6854 209.046 73.7228C209.103 73.7602 204.767 81.0624 199.362 90.0464C193.956 99.0305 189.513 106.281 189.471 106.244Z" fill="white"/>
<path d="M186.836 119.768C186.78 119.731 193.307 109.181 201.417 96.2029C209.528 83.2244 216.148 72.7313 216.204 72.7687C216.26 72.806 209.733 83.3505 201.623 96.3337C193.512 109.317 186.892 119.829 186.836 119.768Z" fill="white"/>
<path d="M229.827 187.66C229.827 186.539 229.781 122.534 229.711 33.6137L229.827 33.7305H174.657L174.778 33.609C174.778 94.8389 174.75 149.939 174.741 187.655L174.657 187.576L229.827 187.655L174.657 187.74H174.564V187.655C174.564 149.921 174.536 94.8389 174.521 33.609V33.4922H229.93V33.609C229.879 122.534 229.832 186.544 229.827 187.66Z" fill="#263238"/>
<path d="M189.199 140.853C189.199 140.853 189.082 140.853 188.876 140.82C188.587 140.764 188.302 140.683 188.026 140.577C187.109 140.224 186.274 139.685 185.574 138.994C184.874 138.304 184.323 137.477 183.957 136.564C183.847 136.289 183.763 136.004 183.705 135.714C183.663 135.508 183.649 135.392 183.667 135.392C183.686 135.392 183.817 135.826 184.134 136.494C184.934 138.246 186.349 139.642 188.11 140.419C188.76 140.718 189.213 140.816 189.199 140.853Z" fill="#455A64"/>
<path d="M222.32 135.714C222.017 135.501 221.75 135.241 221.53 134.943C220.954 134.263 220.458 133.518 220.054 132.724C219.644 131.929 219.331 131.088 219.12 130.219C219.011 129.867 218.956 129.5 218.956 129.131C219.302 130.323 219.74 131.486 220.264 132.611C220.867 133.698 221.554 134.735 222.32 135.714Z" fill="#455A64"/>
<path d="M183.8 125.081C183.919 125.861 183.825 126.658 183.529 127.389C183.311 128.148 182.895 128.835 182.323 129.379C182.688 128.707 183.014 128.014 183.3 127.305C183.508 126.573 183.674 125.831 183.8 125.081Z" fill="#455A64"/>
<path d="M202.73 136.462C202.541 135.342 202.435 134.21 202.412 133.075C202.308 131.944 202.283 130.808 202.338 129.674C202.526 130.794 202.632 131.926 202.655 133.061C202.76 134.192 202.785 135.328 202.73 136.462Z" fill="#455A64"/>
<path d="M205.257 129.426C205.257 129.426 205.341 129.388 205.486 129.426C205.695 129.471 205.884 129.584 206.023 129.748C206.132 129.87 206.214 130.014 206.26 130.171C206.307 130.328 206.319 130.493 206.294 130.655C206.247 130.853 206.146 131.034 206.002 131.179C205.858 131.324 205.677 131.426 205.479 131.474C205.281 131.522 205.073 131.515 204.879 131.453C204.685 131.391 204.512 131.276 204.378 131.122C204.284 130.988 204.221 130.834 204.193 130.672C204.166 130.511 204.175 130.345 204.219 130.187C204.269 129.978 204.386 129.791 204.551 129.655C204.673 129.561 204.757 129.547 204.761 129.561C204.572 129.739 204.442 129.971 204.388 130.225C204.362 130.356 204.363 130.491 204.392 130.621C204.421 130.751 204.477 130.874 204.556 130.982C204.665 131.095 204.802 131.178 204.953 131.222C205.104 131.267 205.264 131.271 205.418 131.235C205.571 131.198 205.712 131.123 205.827 131.015C205.942 130.908 206.027 130.772 206.074 130.622C206.098 130.491 206.093 130.356 206.062 130.227C206.031 130.097 205.973 129.976 205.892 129.87C205.73 129.66 205.509 129.506 205.257 129.426Z" fill="#455A64"/>
<path d="M176.175 73.2136C176.11 73.2136 176.054 65.4723 176.054 55.9276C176.054 46.3829 176.11 38.6416 176.175 38.6416C176.241 38.6416 176.297 46.3829 176.297 55.9276C176.297 65.4723 176.245 73.2136 176.175 73.2136Z" fill="#263238"/>
<path d="M176.175 77.9934C176.11 77.9934 176.054 77.5869 176.054 77.087C176.054 76.5871 176.11 76.1807 176.175 76.1807C176.241 76.1807 176.297 76.5871 176.297 77.087C176.297 77.5869 176.245 77.9934 176.175 77.9934Z" fill="#263238"/>
<path d="M217.245 35.7357C217.245 35.8058 208.452 35.8572 197.623 35.8572C186.793 35.8572 178.001 35.8058 178.001 35.7357C178.001 35.6656 186.789 35.6143 197.623 35.6143C208.457 35.6143 217.245 35.6703 217.245 35.7357Z" fill="#263238"/>
<path d="M227.066 167.483C226.996 167.483 226.944 155.901 226.944 141.615C226.944 127.328 226.996 115.751 227.066 115.751C227.136 115.751 227.187 127.328 227.187 141.615C227.187 155.901 227.131 167.483 227.066 167.483Z" fill="#263238"/>
<path d="M219.88 185.661C219.88 185.727 210.335 185.783 198.567 185.783C186.798 185.783 177.249 185.727 177.249 185.661C177.249 185.596 186.789 185.535 198.567 185.535C210.345 185.535 219.88 185.591 219.88 185.661Z" fill="#263238"/>
<path d="M236.779 60.2306C236.887 60.324 237.167 95.1343 237.167 95.1343L238.723 97.4703L239.891 95.0129L238.186 60.2119L236.779 60.2306Z" fill="#2C6E49"/>
<path opacity="0.3" d="M236.779 60.2306C236.887 60.324 237.167 95.1343 237.167 95.1343L238.723 97.4703L239.891 95.0129L238.186 60.2119L236.779 60.2306Z" fill="black"/>
<g opacity="0.3">
<path d="M218.192 30.1016C219.839 40.2911 224.579 49.7279 231.769 57.1332C232.881 58.2778 234.081 59.413 234.679 60.8707C235.399 62.6553 235.147 64.6596 234.866 66.561L233.292 77.5353C232.984 79.7171 232.671 81.9549 233.138 84.104C233.605 86.2531 235.007 88.3461 237.128 88.9768L237.427 58.2824L228.756 48.8779L223.289 38.6231L220.542 30.1016H218.192Z" fill="black"/>
</g>
<path d="M219.287 30.1289C219.287 30.1289 225.524 54.376 237.101 57.3287L236.779 54.292C236.779 54.292 226.117 49.1015 222.076 30.1289H219.287Z" fill="#2C6E49"/>
<path d="M236.264 53.9463L234.442 56.413L236.264 60.3561L238.783 60.23L239.89 55.6282L237.778 53.9463H236.264Z" fill="#2C6E49"/>
<path d="M239.199 55.0766L237.307 43.7285L237.167 54.0347L239.199 55.0766Z" fill="#2C6E49"/>
<path d="M236.265 60.3556L235.06 85.1354L240.825 90.6529L243.777 81.566L238.783 60.2295L236.265 60.3556Z" fill="#2C6E49"/>
<path d="M236.082 64.1724L239.296 62.4205L239.007 61.1777L236.161 62.5373L236.082 64.1724Z" fill="white"/>
<path d="M237.166 65.3276C237.085 64.4995 237.085 63.6655 237.166 62.8374C237.175 62.0056 237.262 61.1765 237.428 60.3613C237.512 61.1893 237.512 62.0235 237.428 62.8514C237.419 63.6832 237.331 64.5123 237.166 65.3276Z" fill="#263238"/>
<path d="M238.143 65.3743C237.982 64.551 237.904 63.7137 237.909 62.8748C237.827 62.039 237.827 61.1972 237.909 60.3613C238.067 61.1851 238.145 62.0221 238.143 62.8608C238.222 63.6967 238.222 64.5383 238.143 65.3743Z" fill="#263238"/>
<path d="M238.096 88.0413L243.048 83.8086L240.731 90.5595L238.096 88.0413Z" fill="white"/>
<path opacity="0.3" d="M236.545 60.3416L237.652 60.949L238.017 62.6215V60.5519L238.619 60.2295L236.545 60.3416Z" fill="black"/>
<path d="M242.492 76.0117L235.232 81.5993L235.11 84.1361L242.964 78.016L242.492 76.0117Z" fill="white"/>
<path d="M241.115 70.1533L235.579 74.5542L235.457 77.0911L241.563 72.1015L241.115 70.1533Z" fill="white"/>
<path d="M235.778 70.3626L240.319 66.784L239.988 65.373L235.876 68.3911L235.778 70.3626Z" fill="white"/>
<path d="M243.776 81.5664C243.744 81.7945 243.688 82.0184 243.608 82.2345L243.066 84.0332C242.599 85.5515 241.931 87.6399 241.198 89.9431C241.113 90.2001 241.034 90.4524 240.955 90.6906L240.903 90.8635L240.768 90.7327C239.147 89.1816 237.717 87.7894 236.694 86.7849C236.227 86.3177 235.811 85.8973 235.498 85.5889C235.344 85.4471 235.205 85.2907 235.082 85.1217C235.248 85.2411 235.405 85.3739 235.549 85.5188L236.801 86.6588C237.852 87.6352 239.301 88.9947 240.922 90.5505L240.726 90.6019C240.8 90.3636 240.885 90.1066 240.969 89.8543C241.716 87.5511 242.403 85.4674 242.917 83.9678C243.164 83.253 243.384 82.655 243.533 82.1924C243.597 81.9773 243.678 81.7678 243.776 81.5664Z" fill="#263238"/>
<path d="M235.06 55.5762L239.04 59.1689L239.526 57.1507L235.779 54.6045L235.06 55.5762Z" fill="white"/>
<path d="M235.232 58.301C235.645 57.6524 236.126 57.0494 236.667 56.5024C237.145 55.9005 237.687 55.3522 238.283 54.8672C237.866 55.5116 237.386 56.1126 236.849 56.6612C236.368 57.2624 235.827 57.812 235.232 58.301Z" fill="#263238"/>
<path d="M236.266 60.3555C236.488 60.3017 236.715 60.272 236.943 60.2668L238.784 60.136L238.695 60.206C238.971 59.0007 239.34 57.4029 239.76 55.6603V55.5995L239.816 55.735L237.097 54.1279H237.144L236.242 54.0298L236.336 53.9877C235.771 54.7306 235.303 55.3379 234.972 55.7584C234.809 55.9861 234.627 56.2002 234.43 56.3984C234.56 56.1474 234.717 55.9109 234.897 55.693C235.201 55.2258 235.644 54.6231 236.186 53.8709L236.219 53.8242H236.28L237.177 53.9036H237.2H237.223L239.952 55.4874L240.031 55.5341V55.6229V55.679C239.611 57.4216 239.218 59.0147 238.91 60.2107V60.2808H238.84L236.999 60.3275C236.757 60.3643 236.511 60.3737 236.266 60.3555Z" fill="#263238"/>
<path d="M230 52.4983L231.724 50.1904L232.817 51.2977L230.981 53.5449L230 52.4983Z" fill="white"/>
<path d="M226.926 48.3214L228.734 46.448L227.967 45.252L226.271 47.2235L226.926 48.3214Z" fill="white"/>
<path d="M224.066 43.0703L225.832 41.4024L225.295 40.2578L223.557 41.9864L224.066 43.0703Z" fill="white"/>
<path d="M221.879 37.987L223.776 36.3424L223.323 35.0156L221.454 36.8564L221.879 37.987Z" fill="white"/>
<path d="M148.124 59.4404L150.138 55.46C149.114 52.6578 149.175 49.574 150.31 46.8147C151.444 44.0555 153.569 41.8203 156.268 40.5485C158.967 39.2767 162.044 39.0603 164.894 39.9418C167.744 40.8233 170.161 42.7389 171.671 45.3122C173.18 47.8855 173.673 50.9303 173.051 53.8482C172.43 56.7661 170.739 59.3461 168.312 61.081C165.885 62.816 162.897 63.5804 159.935 63.2241C156.973 62.8678 154.252 61.4165 152.305 59.1554L148.124 59.4404Z" fill="white"/>
<path d="M152.316 59.1888L148.178 59.4371C148.16 59.472 148.147 59.4979 148.138 59.5151C148.147 59.498 148.159 59.4721 148.177 59.4372C148.35 59.09 148.965 57.8514 150.128 55.5253C149.431 53.6201 149.228 51.5689 149.54 49.5639C149.586 49.2614 149.649 48.9619 149.731 48.6669C149.811 48.3493 149.876 48.0409 149.974 47.7326L150.315 46.7982C150.437 46.4758 150.6 46.1768 150.745 45.8638C151.505 44.4014 152.559 43.1115 153.841 42.0747C155.122 41.038 156.603 40.2766 158.192 39.8381C159.781 39.3997 161.443 39.2936 163.075 39.5266C164.707 39.7595 166.273 40.3264 167.676 41.1919C168.479 41.6867 169.222 42.2731 169.89 42.9392C170.045 43.1074 170.199 43.2943 170.358 43.4671C170.526 43.6397 170.682 43.8239 170.825 44.0184C171.133 44.4145 171.414 44.8313 171.666 45.2658C172.167 46.1003 172.569 46.991 172.862 47.9194C172.927 48.1484 172.983 48.382 173.039 48.6156C173.107 48.8453 173.158 49.0795 173.193 49.3163C173.278 49.7794 173.331 50.2476 173.352 50.7179C173.452 52.5625 173.133 54.4058 172.418 56.1093C171.464 58.3283 169.865 60.2089 167.827 61.5063C165.79 62.8037 163.409 63.4577 160.995 63.3834L160.481 63.3554C160.312 63.3542 160.143 63.3385 159.977 63.3087L159 63.1592C158.388 63.0332 157.787 62.8598 157.202 62.6406C156.16 62.2551 155.178 61.7234 154.286 61.0615C153.56 60.5145 152.897 59.8877 152.31 59.1927L152.316 59.1888Z" fill="#263238"/>
<path d="M166.438 50.2692C166.327 49.6233 166.019 49.0275 165.555 48.564C165.122 48.0886 164.55 47.7617 163.92 47.6296C163.384 47.5327 162.831 47.6141 162.346 47.8613C161.861 48.1085 161.47 48.508 161.234 48.9985C161.04 48.6867 160.778 48.423 160.468 48.2276C160.181 48.0467 159.86 47.9253 159.526 47.8707C159.191 47.8162 158.849 47.8295 158.519 47.9099C157.9 48.0852 157.352 48.4495 156.95 48.9518C156.521 49.4486 156.255 50.065 156.188 50.7178C156.117 51.5505 156.315 52.3842 156.753 53.0957C157.26 53.8142 157.931 54.4006 158.711 54.8057C159.977 55.5111 161.64 56.3894 161.64 56.3894C161.64 56.3894 162.986 55.3102 164.2 54.5207C164.951 54.0515 165.581 53.4111 166.036 52.6519C166.419 51.9201 166.56 51.086 166.438 50.2692Z" fill="#2C6E49"/>
<path d="M144.84 204.391L144.611 217.36L147.414 227.666C147.462 227.842 147.473 228.025 147.447 228.205C147.42 228.386 147.357 228.558 147.261 228.713C147.165 228.868 147.038 229.001 146.889 229.105C146.739 229.208 146.57 229.28 146.391 229.315C146.183 229.358 145.968 229.349 145.763 229.291C145.559 229.232 145.372 229.125 145.218 228.979C143.233 227.11 136.071 220.172 136.066 219.359C136.066 218.313 135.347 205.47 135.347 205.47L144.84 204.391Z" fill="#455A64"/>
<path d="M146.367 229.324L135.977 217.883V218.85C135.923 219.267 136.036 219.688 136.29 220.023C139.033 223.241 141.955 226.302 145.041 229.193C145.358 229.502 145.919 229.422 146.353 229.324H146.367Z" fill="#263238"/>
<path d="M138.625 214.103C138.786 214.219 138.897 214.39 138.94 214.583C138.982 214.776 138.952 214.978 138.854 215.15C138.744 215.314 138.575 215.429 138.382 215.472C138.189 215.516 137.987 215.484 137.817 215.383C137.647 215.26 137.529 215.078 137.486 214.873C137.443 214.667 137.478 214.453 137.584 214.271C137.716 214.112 137.905 214.011 138.11 213.988C138.316 213.966 138.522 214.024 138.686 214.15" fill="white"/>
<path d="M143.372 223.676C143.649 223.24 144.039 222.888 144.501 222.658C144.963 222.427 145.479 222.327 145.993 222.368C145.993 222.335 145.839 222.232 145.526 222.195C145.127 222.154 144.725 222.227 144.366 222.405C144.007 222.584 143.706 222.861 143.498 223.204C143.358 223.47 143.34 223.662 143.372 223.676Z" fill="#263238"/>
<path d="M144.302 225.413C144.368 225.47 144.769 225.049 145.452 224.853C146.134 224.657 146.694 224.764 146.713 224.68C146.732 224.596 146.124 224.344 145.367 224.577C144.611 224.811 144.237 225.371 144.302 225.413Z" fill="#263238"/>
<path d="M141.64 221.457C141.7 221.518 142.336 220.864 143.35 220.467C144.363 220.069 145.27 220.097 145.27 219.999C145.27 219.901 144.335 219.756 143.242 220.196C142.576 220.414 142.008 220.861 141.64 221.457Z" fill="#263238"/>
<path d="M141.393 217.509C141.43 217.588 142.145 217.284 143.074 217.247C144.004 217.21 144.747 217.429 144.775 217.345C144.249 217.065 143.657 216.933 143.061 216.962C142.466 216.991 141.89 217.18 141.393 217.509Z" fill="#263238"/>
<path d="M141.349 213.701C141.391 213.776 142.106 213.342 143.092 213.379C143.683 213.44 144.264 213.584 144.816 213.804C144.816 213.776 144.694 213.613 144.391 213.444C143.993 213.23 143.55 213.112 143.098 213.099C142.647 213.086 142.198 213.179 141.788 213.37C141.48 213.519 141.331 213.673 141.349 213.701Z" fill="#263238"/>
<path d="M143.064 212.655C143.102 212.494 143.102 212.326 143.064 212.164C143.016 211.716 142.881 211.281 142.667 210.884C142.534 210.579 142.304 210.326 142.013 210.165C141.912 210.121 141.8 210.109 141.692 210.131C141.585 210.152 141.486 210.207 141.41 210.286C141.275 210.452 141.204 210.661 141.209 210.875C141.239 211.311 141.421 211.723 141.723 212.038C142.026 212.354 142.429 212.554 142.863 212.603C143.293 212.645 143.725 212.558 144.106 212.354C144.486 212.149 144.796 211.836 144.998 211.454C145.049 211.358 145.078 211.251 145.084 211.142C145.089 211.033 145.071 210.925 145.031 210.823C144.979 210.726 144.899 210.646 144.8 210.597C144.701 210.547 144.589 210.53 144.48 210.548C144.16 210.626 143.867 210.787 143.629 211.015C143.279 211.299 142.982 211.642 142.751 212.029C142.588 212.3 142.536 212.473 142.555 212.496C142.885 212.003 143.288 211.564 143.751 211.193C143.969 211.011 144.226 210.883 144.503 210.819C144.563 210.809 144.624 210.818 144.679 210.845C144.733 210.871 144.778 210.915 144.807 210.968C144.827 211.036 144.833 211.108 144.825 211.179C144.817 211.249 144.795 211.318 144.76 211.379C144.576 211.705 144.302 211.971 143.97 212.145C143.639 212.318 143.264 212.391 142.891 212.356C142.525 212.312 142.184 212.146 141.924 211.884C141.664 211.622 141.501 211.279 141.462 210.912C141.454 210.763 141.498 210.616 141.588 210.496C141.628 210.451 141.682 210.42 141.742 210.406C141.801 210.393 141.863 210.398 141.919 210.422C142.162 210.561 142.357 210.769 142.48 211.02C142.769 211.526 142.967 212.08 143.064 212.655Z" fill="#263238"/>
<path d="M110.525 203.264L111.273 214.393C111.273 214.393 100.196 218.083 100.135 220.153L121.77 220.275L121.303 202.886L110.525 203.264Z" fill="#455A64"/>
<g opacity="0.6">
<path d="M117.933 213.267C118.143 213.325 118.324 213.458 118.442 213.64C118.56 213.823 118.607 214.042 118.574 214.257C118.524 214.469 118.395 214.654 118.214 214.774C118.032 214.894 117.811 214.94 117.597 214.902C117.375 214.84 117.184 214.699 117.059 214.505C116.935 214.311 116.887 214.078 116.924 213.851C116.958 213.739 117.014 213.636 117.088 213.546C117.163 213.457 117.254 213.383 117.357 213.329C117.459 213.274 117.572 213.241 117.688 213.23C117.804 213.22 117.921 213.232 118.032 213.267" fill="white"/>
</g>
<path d="M121.77 220.274L121.728 218.522L100.816 219.12C100.596 219.234 100.406 219.4 100.266 219.605C100.126 219.81 100.039 220.046 100.013 220.293L121.77 220.274Z" fill="#263238"/>
<path d="M110.918 214.295C110.918 214.402 111.455 214.435 111.983 214.762C112.511 215.089 112.805 215.519 112.917 215.477C113.03 215.435 112.833 214.823 112.189 214.444C111.544 214.066 110.89 214.201 110.918 214.295Z" fill="#263238"/>
<path d="M108.688 215.304C108.688 215.407 109.128 215.575 109.501 216.01C109.875 216.444 109.992 216.916 110.099 216.907C110.207 216.897 110.254 216.299 109.777 215.767C109.3 215.234 108.688 215.206 108.688 215.304Z" fill="#263238"/>
<path d="M107.474 218.06C107.572 218.06 107.698 217.546 107.413 216.976C107.128 216.406 106.619 216.191 106.577 216.28C106.535 216.369 106.853 216.672 107.082 217.144C107.311 217.616 107.367 218.055 107.474 218.06Z" fill="#263238"/>
<path d="M111.024 211.739C111.071 211.838 111.552 211.674 112.15 211.697C112.748 211.721 113.22 211.894 113.271 211.8C113.323 211.707 112.865 211.333 112.16 211.333C111.454 211.333 110.973 211.66 111.024 211.739Z" fill="#263238"/>
<g opacity="0.3">
<path d="M110.672 205.469L110.803 207.45L121.431 207.025L121.389 205.235L110.672 205.469Z" fill="black"/>
</g>
<path d="M110.917 209.492C111.275 209.575 111.649 209.562 112.001 209.455C112.39 209.371 112.768 209.241 113.127 209.067C113.339 208.967 113.544 208.851 113.739 208.721C113.857 208.649 113.964 208.559 114.057 208.455C114.123 208.377 114.162 208.28 114.168 208.178C114.174 208.076 114.146 207.974 114.089 207.889C114.035 207.818 113.964 207.76 113.883 207.721C113.801 207.682 113.712 207.663 113.622 207.665C113.484 207.668 113.347 207.69 113.216 207.731C112.987 207.794 112.765 207.878 112.552 207.983C112.191 208.158 111.859 208.39 111.571 208.67C111.104 209.137 110.926 209.553 110.964 209.571C111.001 209.59 111.244 209.268 111.744 208.866C112.031 208.637 112.344 208.444 112.678 208.291C112.878 208.204 113.084 208.134 113.295 208.081C113.524 208.016 113.715 208.006 113.762 208.104C113.809 208.202 113.786 208.16 113.762 208.226C113.696 208.304 113.617 208.37 113.529 208.422C113.342 208.553 113.15 208.665 112.968 208.768C112.636 208.943 112.289 209.088 111.931 209.202C111.587 209.277 111.248 209.373 110.917 209.492Z" fill="#263238"/>
<path d="M111.062 209.637C111.257 209.323 111.345 208.954 111.314 208.586C111.321 208.184 111.258 207.784 111.128 207.404C111.053 207.178 110.954 206.96 110.833 206.754C110.77 206.613 110.672 206.49 110.547 206.397C110.423 206.305 110.277 206.246 110.123 206.227C110.027 206.233 109.935 206.266 109.858 206.322C109.78 206.378 109.72 206.455 109.684 206.544C109.631 206.673 109.596 206.808 109.581 206.946C109.561 207.185 109.575 207.426 109.623 207.661C109.697 208.064 109.868 208.443 110.123 208.763C110.562 209.31 111.006 209.427 111.015 209.389C111.025 209.352 110.674 209.142 110.333 208.614C110.136 208.309 110.008 207.965 109.96 207.605C109.929 207.397 109.929 207.186 109.96 206.979C109.988 206.75 110.067 206.558 110.151 206.582C110.235 206.605 110.45 206.745 110.544 206.923C110.655 207.107 110.751 207.301 110.829 207.502C110.961 207.846 111.043 208.208 111.072 208.577C111.104 209.226 111.025 209.623 111.062 209.637Z" fill="#263238"/>
<path d="M124.247 42.6678L121.771 63.9577C121.271 67.5831 120.556 72.9557 126.326 73.4837C131.367 73.5584 133.273 69.0173 133.731 65.6302C133.95 64.0277 134.137 62.6869 134.17 62.5234C134.17 62.5234 139.669 62.757 140.799 57.4404C141.346 54.8708 142.042 49.4981 142.612 44.602C142.905 42.0742 142.237 39.5287 140.739 37.4712C139.242 35.4137 137.025 33.995 134.53 33.4969L134.016 33.3941C128.386 32.6092 124.873 37.0382 124.247 42.6678Z" fill="#FFCAAE"/>
<path d="M134.17 62.5274C131.706 62.0299 129.436 60.8366 127.629 59.0889C127.629 59.0889 128.563 63.3216 133.959 63.9009L134.17 62.5274Z" fill="#FF935C"/>
<path d="M133.085 47.1761C133.049 47.3641 132.941 47.5307 132.784 47.6405C132.627 47.7504 132.433 47.7949 132.244 47.7648C132.15 47.7528 132.058 47.7219 131.976 47.674C131.894 47.6261 131.822 47.5621 131.765 47.4858C131.708 47.4095 131.666 47.3225 131.644 47.23C131.621 47.1374 131.617 47.0413 131.632 46.9472C131.667 46.7586 131.775 46.5913 131.932 46.4812C132.09 46.3712 132.284 46.3271 132.473 46.3585C132.568 46.3692 132.66 46.3992 132.743 46.4468C132.826 46.4943 132.899 46.5584 132.956 46.635C133.013 46.7116 133.054 46.7991 133.076 46.8922C133.099 46.9852 133.102 47.0819 133.085 47.1761Z" fill="#263238"/>
<path d="M134.748 52.2263C135.205 52.1645 135.669 52.1645 136.126 52.2263C136.336 52.2263 136.547 52.2263 136.593 52.1096C136.659 51.898 136.659 51.6717 136.593 51.4602C136.495 50.9135 136.397 50.3436 136.29 49.7456C135.883 47.3022 135.636 45.3119 135.734 45.2979C135.832 45.2839 136.243 47.2461 136.668 49.6895C136.762 50.2875 136.855 50.8622 136.939 51.4088C137.022 51.6883 137.002 51.9883 136.883 52.2544C136.839 52.3216 136.779 52.3777 136.71 52.4182C136.64 52.4588 136.562 52.4826 136.481 52.488C136.359 52.5029 136.235 52.5029 136.112 52.488C135.648 52.4592 135.19 52.3713 134.748 52.2263Z" fill="#263238"/>
<path d="M133.309 42.2425C133.197 42.4294 132.496 42.1911 131.627 42.1257C130.759 42.0603 130.025 42.1631 129.946 41.9622C129.913 41.8641 130.072 41.6959 130.389 41.5557C130.802 41.3817 131.252 41.3126 131.698 41.3548C132.142 41.3888 132.572 41.5299 132.95 41.7659C133.235 41.9575 133.361 42.149 133.309 42.2425Z" fill="#263238"/>
<path d="M123.881 46.7788C123.793 46.7227 120.214 44.9708 119.677 48.8391C119.139 52.7074 123.129 52.4505 123.153 52.3383C123.176 52.2262 123.881 46.7788 123.881 46.7788Z" fill="#FFCAAE"/>
<path d="M122.176 50.7079C122.176 50.7079 122.101 50.7453 121.98 50.7827C121.81 50.8292 121.629 50.8074 121.475 50.722C121.088 50.5164 120.835 49.8203 120.91 49.1195C120.95 48.7879 121.061 48.469 121.237 48.1851C121.286 48.0642 121.364 47.9577 121.466 47.8759C121.567 47.7941 121.688 47.7397 121.816 47.7179C121.896 47.7078 121.977 47.7261 122.044 47.7697C122.112 47.8133 122.162 47.8794 122.185 47.9562C122.223 48.073 122.185 48.1477 122.209 48.1571C122.232 48.1664 122.298 48.101 122.288 47.9375C122.281 47.8393 122.24 47.7467 122.171 47.6759C122.125 47.6281 122.069 47.5903 122.007 47.5646C121.945 47.539 121.879 47.526 121.812 47.5264C121.649 47.5339 121.49 47.584 121.353 47.6717C121.215 47.7594 121.103 47.8816 121.027 48.0263C120.816 48.3373 120.683 48.6947 120.639 49.0681C120.555 49.853 120.854 50.6379 121.391 50.8761C121.489 50.924 121.597 50.9489 121.707 50.9489C121.816 50.9489 121.924 50.924 122.022 50.8761C122.153 50.8014 122.185 50.7173 122.176 50.7079Z" fill="#FF935C"/>
<path d="M134.567 54.8055C134.59 54.7074 133.838 54.6046 133.231 54.0066C132.974 53.7425 132.752 53.4456 132.572 53.1236C132.423 52.876 132.32 52.7172 132.278 52.7359C132.236 52.7546 132.278 52.9321 132.385 53.2031C132.523 53.5788 132.742 53.92 133.025 54.2028C133.315 54.4862 133.677 54.6849 134.072 54.7775C134.385 54.8616 134.562 54.8382 134.567 54.8055Z" fill="#263238"/>
<path d="M140.873 48.5444C140.836 48.7324 140.728 48.899 140.571 49.0088C140.414 49.1186 140.221 49.1632 140.032 49.133C139.938 49.1222 139.848 49.0927 139.767 49.0463C139.685 48.9999 139.614 48.9376 139.557 48.8631C139.5 48.7886 139.458 48.7034 139.434 48.6125C139.411 48.5217 139.406 48.427 139.42 48.3341C139.455 48.1465 139.562 47.98 139.718 47.87C139.874 47.7601 140.067 47.7154 140.256 47.7455C140.349 47.7564 140.44 47.7859 140.521 47.8322C140.603 47.8785 140.675 47.9407 140.733 48.0151C140.79 48.0895 140.832 48.1747 140.856 48.2656C140.88 48.3565 140.886 48.4513 140.873 48.5444Z" fill="#263238"/>
<path d="M150.483 40.6821C150.443 40.4581 150.319 40.2577 150.137 40.1214C149.729 39.8745 149.264 39.7392 148.787 39.729C147.615 39.5611 146.496 39.1281 145.517 38.4629C145.904 38.3333 146.267 38.1408 146.591 37.8929C146.932 37.6435 147.199 37.3063 147.364 36.9172C147.528 36.528 147.584 36.1015 147.526 35.6831C147.517 35.6039 147.49 35.5278 147.447 35.4606C147.404 35.3934 147.346 35.3369 147.278 35.2954C147.049 35.1926 146.811 35.3981 146.624 35.5663C146.376 35.8277 146.062 36.0174 145.715 36.1152C145.368 36.2131 145.001 36.2155 144.652 36.1223C144.166 36.0306 143.706 35.8311 143.307 35.5383L143.27 35.4776L142.793 34.8422C141.578 33.2958 140.509 32.1979 139.345 31.5719C137.64 30.6375 134.673 29.9601 132.744 30.217C130.814 30.474 128.946 31.7821 128.446 33.6649C127.511 32.6464 125.928 32.4595 124.587 32.8146H124.559C123.068 33.1463 122.073 34.5479 121.475 35.9448L121.377 36.1784C120.804 36.8864 120.068 37.4458 119.233 37.8088C119.083 37.8743 118.915 37.949 118.878 38.1078C118.873 38.1867 118.889 38.2653 118.923 38.3363C118.958 38.4074 119.009 38.4686 119.074 38.5143C119.386 38.8032 119.76 39.0173 120.167 39.1403C119.995 39.4686 119.795 39.7812 119.569 40.0747C119.373 40.327 119.144 40.6307 119.247 40.9297C119.297 41.0421 119.382 41.1362 119.488 41.1989C119.594 41.2616 119.717 41.29 119.84 41.2801C120.086 41.258 120.325 41.1848 120.541 41.0652L119.924 42.1444C120.43 42.2973 120.965 42.3277 121.485 42.2331C121.573 43.6195 121.738 44.9998 121.98 46.3678C122.573 46.4425 123.152 46.3678 123.479 46.7462C123.947 47.2554 124.04 48.1477 124.909 47.9095C125.348 47.802 125.843 46.9751 126.04 46.5546C127.335 43.8091 128.024 40.8165 128.058 37.7808C128.73 37.2272 129.5 36.8055 130.328 36.5381L130.258 36.5895C131.823 36.2531 133.589 35.9541 134.93 36.8371C135.967 37.5192 136.477 38.7479 137.187 39.771C137.812 40.6919 138.621 41.473 139.564 42.0649C140.506 42.6568 141.561 43.0466 142.662 43.2096C142.662 44.8587 142.242 46.8957 142.134 48.4187L143.835 46.1529C143.961 45.9847 144.069 45.8165 144.176 45.6483L144.213 45.5969C144.377 45.3187 144.555 45.049 144.746 44.7887C144.818 44.8896 144.909 44.9754 145.014 45.0412C145.119 45.1069 145.235 45.1514 145.358 45.172C145.48 45.1926 145.605 45.1889 145.725 45.1613C145.846 45.1336 145.96 45.0824 146.061 45.0106C146.162 44.9388 146.248 44.8478 146.314 44.7429C146.379 44.638 146.424 44.5211 146.444 44.399C146.465 44.2768 146.461 44.1519 146.434 44.0311C146.406 43.9104 146.355 43.7964 146.283 43.6954C146.179 43.5038 146.045 43.3303 145.886 43.1815C146.049 43.3832 146.262 43.5394 146.503 43.6351C146.745 43.7309 147.007 43.7629 147.264 43.7281C147.52 43.6823 147.755 43.5538 147.931 43.3623C148.107 43.1708 148.216 42.9268 148.241 42.6676C148.241 42.4914 148.196 42.3181 148.109 42.1648C148.022 42.0115 147.897 41.8837 147.745 41.794C148.406 41.9307 149.092 41.8672 149.717 41.6118C150.133 41.4856 150.548 41.1726 150.483 40.6821Z" fill="#263238"/>
<path d="M130.076 34.4775C129.865 34.6018 129.665 34.744 129.478 34.9027C128.988 35.363 128.626 35.9425 128.427 36.5846C128.28 37.0232 128.178 37.4756 128.123 37.9347C128.058 38.43 128.03 38.9672 127.997 39.5279C127.975 40.1212 127.915 40.7126 127.819 41.2985C127.765 41.6159 127.685 41.9283 127.581 42.2329C127.492 42.5547 127.324 42.8489 127.091 43.0878C126.984 43.1806 126.855 43.2441 126.717 43.2719C126.578 43.2998 126.435 43.2911 126.301 43.2467C126.042 43.1673 125.818 43.0026 125.666 42.7795C125.423 42.3413 125.302 41.846 125.315 41.3452L125.427 41.3733C125.214 41.7585 124.947 42.1109 124.633 42.4198C124.331 42.7032 123.931 42.8603 123.517 42.8589C123.324 42.8524 123.137 42.7943 122.975 42.6907C122.823 42.5904 122.707 42.445 122.643 42.2749C122.581 42.1176 122.562 41.9468 122.587 41.7797C122.614 41.6271 122.694 41.4886 122.811 41.3873L122.862 41.4433C122.497 41.7702 122.067 42.0169 121.601 42.1675C121.477 42.2055 121.35 42.2367 121.223 42.2609C121.179 42.2671 121.135 42.2671 121.092 42.2609L121.218 42.2235C121.343 42.1931 121.466 42.1557 121.587 42.1114C122.04 41.9488 122.456 41.6979 122.811 41.3733L122.862 41.4293C122.76 41.5309 122.691 41.6622 122.667 41.8047C122.643 41.9471 122.664 42.0936 122.727 42.2235C122.786 42.3756 122.891 42.506 123.026 42.5973C123.174 42.6885 123.343 42.7385 123.517 42.7421C123.904 42.7389 124.277 42.5887 124.558 42.3217C124.862 42.0177 125.12 41.6715 125.325 41.2938L125.423 41.135V41.3219C125.409 41.7995 125.524 42.2721 125.754 42.6907C125.89 42.891 126.089 43.0392 126.32 43.1112C126.434 43.1516 126.556 43.1603 126.675 43.1364C126.793 43.1126 126.903 43.057 126.992 42.9757C127.214 42.7536 127.374 42.4786 127.46 42.1768C127.56 41.8841 127.638 41.5842 127.693 41.2798C127.791 40.7003 127.852 40.1151 127.875 39.5279C127.913 38.9626 127.941 38.4253 128.011 37.9254C128.076 37.4612 128.185 37.0044 128.338 36.5612C128.547 35.9087 128.928 35.3245 129.44 34.87C129.629 34.7046 129.844 34.5719 130.076 34.4775Z" fill="#455A64"/>
<path d="M146.065 41.8082L146.013 41.8409L145.868 41.9204C145.79 41.9665 145.707 42.0056 145.621 42.0371C145.508 42.0887 145.393 42.1339 145.275 42.1726C144.518 42.4041 143.716 42.4474 142.939 42.2988C141.774 42.073 140.699 41.5167 139.842 40.6963C138.813 39.6818 138.001 38.4691 137.454 37.1317C137.141 36.4309 136.908 35.7301 136.632 35.062C136.387 34.4226 136.052 33.8216 135.637 33.2773C135.26 32.786 134.767 32.3959 134.203 32.1421C133.947 32.0357 133.676 31.9695 133.399 31.9459C133.143 31.9292 132.885 31.9465 132.633 31.9972C132.197 32.0888 131.785 32.2701 131.423 32.5298C131.152 32.7288 130.916 32.9702 130.722 33.2446C130.566 33.4858 130.439 33.7445 130.344 34.0155C130.344 34.0155 130.344 34.0155 130.344 33.9594L130.39 33.8006C130.457 33.5943 130.552 33.3979 130.671 33.2166C131.121 32.546 131.815 32.0769 132.605 31.9085C132.864 31.8547 133.13 31.8343 133.394 31.8477C133.683 31.8707 133.967 31.9368 134.235 32.044C134.818 32.3013 135.327 32.6995 135.716 33.2026C136.135 33.7481 136.473 34.3506 136.721 34.9919C136.997 35.66 137.235 36.3655 137.543 37.0569C138.077 38.3777 138.871 39.5774 139.879 40.5842C140.715 41.3985 141.768 41.9549 142.911 42.1866C143.685 42.3449 144.486 42.316 145.247 42.1026C145.525 42.0202 145.798 41.922 146.065 41.8082Z" fill="#455A64"/>
<path d="M146.849 39.4722C146.786 39.5196 146.717 39.5574 146.643 39.5843C146.446 39.6709 146.243 39.7443 146.036 39.8039C145.73 39.8913 145.418 39.9522 145.101 39.9861C144.71 40.0238 144.316 40.0238 143.924 39.9861C143.533 39.9469 143.147 39.8719 142.77 39.7618C142.464 39.6689 142.166 39.5517 141.878 39.4114C141.685 39.3155 141.499 39.2062 141.322 39.0844C141.196 38.9956 141.13 38.9443 141.135 38.9349C141.14 38.9256 141.429 39.1078 141.92 39.3274C142.206 39.4568 142.501 39.5645 142.803 39.6497C143.175 39.7522 143.554 39.8226 143.938 39.86C144.322 39.8927 144.708 39.8927 145.092 39.86C145.407 39.832 145.719 39.7805 146.026 39.7058C146.531 39.5983 146.839 39.4722 146.849 39.4722Z" fill="#455A64"/>
<path d="M129.595 47.5967L135.575 48.7086C135.575 48.7086 135.626 51.0913 134.173 52.1191C132.72 53.1469 130.501 51.9556 129.927 50.7689C129.525 49.7626 129.41 48.6644 129.595 47.5967Z" fill="#455A64"/>
<path d="M137.402 49.0498L143.378 50.1664C143.378 50.1664 143.434 52.5491 141.976 53.5722C140.519 54.5953 138.304 53.4087 137.725 52.2267C137.327 51.2175 137.216 50.1183 137.402 49.0498Z" fill="#455A64"/>
<path d="M135.575 48.709L137.509 49.0734V49.648C137.197 49.4307 136.838 49.2875 136.462 49.2292C136.086 49.171 135.701 49.1991 135.337 49.3117L135.575 48.709Z" fill="#455A64"/>
<path d="M130.179 48.1855L134.851 49.0545C134.851 49.0545 134.893 50.9233 133.762 51.7082C132.632 52.493 130.903 51.582 130.455 50.657C130.136 49.8745 130.041 49.019 130.179 48.1855Z" fill="#263238"/>
<path d="M138.121 49.6611L142.793 50.5301C142.793 50.5301 142.835 52.3989 141.705 53.1837C140.574 53.9686 138.845 53.0576 138.397 52.1326C138.078 51.3501 137.983 50.4946 138.121 49.6611Z" fill="#263238"/>
<path d="M129.596 47.5964L123.742 46.9844C123.78 47.1696 123.858 47.3446 123.969 47.4977C124.08 47.6508 124.223 47.7784 124.387 47.872L129.61 48.9886L129.596 47.5964Z" fill="#455A64"/>
<path d="M134.528 49.4793C134.561 49.4793 134.57 49.6755 134.505 49.9745C134.425 50.3744 134.25 50.7493 133.996 51.0677C133.737 51.3935 133.377 51.6237 132.972 51.7218C132.659 51.7919 132.463 51.7218 132.468 51.7218C132.473 51.7218 132.65 51.6657 132.935 51.5629C133.273 51.4246 133.57 51.2028 133.799 50.9182C134.318 50.2174 134.435 49.4512 134.528 49.4793Z" fill="white"/>
<path d="M142.704 50.4464C142.737 50.4464 142.775 50.6613 142.704 51.007C142.627 51.4587 142.445 51.886 142.172 52.2544C141.901 52.6242 141.545 52.9237 141.135 53.128C140.822 53.2822 140.607 53.3056 140.593 53.2729C141.102 52.9479 141.56 52.5496 141.952 52.0909C142.574 51.292 142.62 50.437 142.704 50.4464Z" fill="white"/>
<path d="M133.328 45.6859C133.216 45.784 132.637 45.2514 131.749 45.172C130.861 45.0926 130.174 45.4803 130.09 45.3635C130.006 45.2467 130.17 45.1206 130.469 44.9337C130.876 44.6998 131.347 44.6001 131.814 44.6487C132.275 44.6895 132.71 44.8799 133.052 45.1907C133.305 45.4336 133.379 45.6392 133.328 45.6859Z" fill="#263238"/>
<path d="M141.14 45.5738C141.038 45.728 140.356 45.5038 139.519 45.4243C138.683 45.3449 137.982 45.4243 137.903 45.2328C137.87 45.1487 138.02 45.0132 138.319 44.9058C138.722 44.774 139.15 44.7326 139.571 44.7843C139.998 44.8251 140.412 44.9556 140.785 45.1674C141.061 45.3356 141.187 45.4991 141.14 45.5738Z" fill="#263238"/>
<path d="M141.168 47.0589C141.056 47.157 140.476 46.6244 139.593 46.545C138.71 46.4656 138.014 46.8534 137.93 46.7366C137.846 46.6198 138.01 46.4936 138.313 46.3067C138.719 46.0729 139.188 45.9732 139.654 46.0218C140.116 46.0639 140.552 46.254 140.897 46.5637C141.149 46.8066 141.224 47.0122 141.168 47.0589Z" fill="#263238"/>
<path d="M148.791 72.6426C148.791 72.6426 152.384 76.011 153.206 79.3841C154.028 82.7572 156.477 103.813 156.033 107.004C155.589 110.195 152.01 127.598 152.01 127.598L148.684 120.492L148.282 104.468L145.596 88.6765V79.5103L148.791 72.6426Z" fill="#FFCAAE"/>
<path opacity="0.3" d="M110.786 126.794C110.786 126.794 124.835 130.915 130.352 129.654C135.87 128.392 150.974 123.706 150.974 123.706L150.623 122.305C150.623 122.305 124.928 126.977 124.802 127.042C124.676 127.107 115.902 125.804 115.902 125.804L111.085 124.767L110.786 126.794Z" fill="black"/>
<path d="M121.802 62.3223L109.711 65.8822L110.645 97.9782L110.435 119.628L110.024 124.935C110.024 124.935 116.864 128.243 127.221 128.103C137.579 127.962 150.637 122.319 150.637 122.319C150.637 122.319 147.507 109.378 147.091 107.032C146.675 104.687 146.063 91.4328 146.063 91.4328V87.8121L145.409 68.1902L134.061 64.3732C134.061 64.3732 131.902 68.0173 128.529 67.751C126.979 67.6717 125.493 67.1039 124.284 66.1287C123.076 65.1536 122.207 63.8212 121.802 62.3223Z" fill="#2C6E49"/>
<path d="M145.419 68.1758C145.699 68.2459 151.399 70.4603 152.689 76.7814C153.492 80.7338 154.992 88.7555 154.992 88.7555C151.953 90.4451 148.553 91.3792 145.078 91.4792L145.419 68.1758Z" fill="#2C6E49"/>
<g opacity="0.3">
<path d="M153.311 82.2156C152.971 82.0339 152.58 81.9682 152.199 82.0288C149.863 82.1502 147.527 82.281 145.304 83.0472C142.93 83.8788 140.884 85.3832 138.824 86.8408C133.171 90.7932 127.186 94.2504 121.215 97.703C119.454 98.7168 117.454 99.7726 115.488 99.254C113.619 98.7588 112.563 96.6938 110.652 97.0255L110.605 100.936C112.526 102.94 114.81 104.557 117.567 104.888C120.043 105.183 122.514 104.318 124.729 103.174C131.783 99.5344 137.343 92.9563 145.042 90.9941C146.444 90.6391 147.892 90.4382 149.149 89.7374C151.129 88.6348 152.269 86.5044 153.302 84.4862C153.68 83.748 154.007 82.6922 153.311 82.2156Z" fill="black"/>
</g>
<path d="M107.647 67.074C107.647 67.074 102.101 69.7183 104.311 79.7862C105.974 87.378 107.979 92.092 110.931 98.6373C113.155 103.575 116.823 103.674 119.397 103.057C122.2 102.389 143.35 88.6394 143.35 88.6394L140.481 82.4258L120.597 91.0548L114.482 74.8714C114.482 74.8714 111.025 65.3407 107.647 67.074Z" fill="#FFCAAE"/>
<path d="M109.711 65.8818C109.048 66.1248 102.442 68.4374 103.297 75.4078C104.086 81.841 106.03 92.0912 106.03 92.0912C108.632 91.6847 111.198 91.0692 113.701 90.2504C115.963 89.4528 118.032 88.1891 119.775 86.541L112.93 66.8629L109.711 65.8818Z" fill="#2C6E49"/>
<path d="M106.03 92.0919C106.122 92.0576 106.218 92.0341 106.315 92.0218L107.128 91.8629C107.838 91.7415 108.857 91.5219 110.104 91.2229C111.566 90.8656 113.002 90.4098 114.402 89.8587C116.12 89.2133 117.713 88.276 119.112 87.0883C119.327 86.8938 119.525 86.6795 119.7 86.4482V86.5557L116.612 77.609C116.238 76.4924 115.935 75.5814 115.71 74.918L115.482 74.1845C115.448 74.1007 115.426 74.0127 115.416 73.9229C115.458 74.0029 115.493 74.0856 115.524 74.1705C115.598 74.3573 115.687 74.5956 115.799 74.8899C116.037 75.544 116.369 76.4457 116.771 77.5529L119.929 86.4762L119.953 86.5323L119.915 86.5837C119.729 86.8296 119.521 87.0579 119.294 87.2658C117.872 88.4748 116.247 89.4237 114.496 90.0689C113.084 90.6123 111.635 91.0541 110.16 91.3911C108.899 91.6714 107.871 91.8583 107.156 91.9564L106.334 92.0685C106.234 92.0889 106.132 92.0968 106.03 92.0919Z" fill="#263238"/>
<path d="M145.078 75.0723C145.104 75.1715 145.12 75.2733 145.124 75.3759C145.124 75.6049 145.18 75.8945 145.218 76.2543C145.292 77.0158 145.381 78.123 145.479 79.4919C145.671 82.2249 145.886 86.0045 146.101 90.1765C146.316 94.3485 146.507 98.1187 146.652 100.87C146.727 102.216 146.787 103.314 146.834 104.108C146.834 104.473 146.867 104.762 146.881 104.991C146.893 105.094 146.893 105.197 146.881 105.299C146.851 105.201 146.834 105.099 146.83 104.996C146.83 104.767 146.778 104.477 146.736 104.117C146.666 103.356 146.573 102.249 146.479 100.88C146.283 98.1468 146.073 94.3672 145.858 90.1905C145.643 86.0138 145.447 82.2483 145.306 79.5012C145.232 78.1557 145.171 77.0578 145.124 76.2636C145.124 75.8992 145.087 75.6095 145.078 75.3806C145.065 75.2782 145.065 75.1747 145.078 75.0723Z" fill="#263238"/>
<path d="M139.757 82.8228C139.836 82.692 141.658 79.3703 141.658 79.3703L145.989 73.9229C145.989 73.9229 147.335 74.2779 146.704 76.0813C146.073 77.8846 144.835 78.6742 144.835 79.3516C144.835 80.029 145.228 80.3841 146.732 80.5056C148.236 80.627 156.683 80.6083 157.543 81.0241C158.402 81.4399 158.286 82.4257 157.585 82.5705C156.884 82.7154 151.044 82.7527 150.839 82.734C150.65 82.7396 150.463 82.7711 150.283 82.8275C150.283 82.8275 151.549 83.2947 151.362 84.2898C151.323 84.5638 151.185 84.814 150.974 84.9931C150.763 85.1722 150.494 85.2677 150.217 85.2615C150.376 85.4182 150.491 85.6131 150.552 85.8274C150.613 86.0417 150.618 86.2681 150.565 86.4847C150.513 86.7013 150.406 86.9008 150.254 87.0638C150.102 87.2268 149.911 87.3479 149.699 87.4153C149.781 87.5151 149.84 87.6323 149.871 87.7581C149.902 87.8839 149.904 88.0151 149.877 88.1417C149.85 88.2684 149.795 88.3874 149.715 88.4897C149.636 88.5921 149.534 88.6751 149.418 88.7328C148.54 89.3495 148.381 89.6671 146.942 89.5924C145.503 89.5176 142.116 89.4429 142.116 89.4429L139.757 82.8228Z" fill="#FFCAAE"/>
<path d="M146.59 118.988C146.499 119.059 146.4 119.12 146.296 119.17L145.432 119.638C145.058 119.848 144.591 120.105 144.03 120.348C143.469 120.591 142.857 120.922 142.161 121.198L141.045 121.665C140.657 121.819 140.241 121.955 139.816 122.109C138.97 122.427 138.036 122.688 137.064 122.983C132.809 124.169 128.399 124.704 123.983 124.571C122.964 124.52 121.997 124.487 121.1 124.38C120.633 124.328 120.217 124.3 119.802 124.239L118.606 124.062C117.844 123.964 117.167 123.805 116.569 123.684C115.971 123.562 115.457 123.445 115.046 123.328L114.111 123.072C113.999 123.047 113.889 123.011 113.784 122.964C113.899 122.976 114.013 122.996 114.125 123.025L115.088 123.24C115.508 123.338 116.022 123.455 116.62 123.553C117.218 123.651 117.895 123.805 118.657 123.894L119.848 124.053C120.259 124.109 120.694 124.132 121.142 124.179C122.039 124.277 123.011 124.3 124.011 124.347C126.205 124.386 128.399 124.279 130.58 124.029C132.756 123.753 134.912 123.33 137.032 122.763C138.003 122.483 138.933 122.226 139.779 121.918C140.199 121.768 140.615 121.642 141.007 121.488L142.124 121.044C142.839 120.778 143.465 120.474 144.021 120.226C144.577 119.979 145.049 119.759 145.422 119.558L146.31 119.119C146.4 119.069 146.494 119.026 146.59 118.988Z" fill="#263238"/>
<path d="M111.066 124.968C110.842 124.912 105.319 173.752 105.319 173.752L109.557 213.211H122.339L121.302 174.616L130.178 137.498L134.299 213.183H146.306L152.319 128.257L150.048 120.492L111.066 124.968Z" fill="#263238"/>
<path d="M151.414 129.56C149.647 128.749 148.183 127.398 147.232 125.701C147.293 125.659 148.027 126.72 149.185 127.785C150.344 128.85 151.451 129.495 151.414 129.56Z" fill="#455A64"/>
<path d="M129.838 136.681C129.605 135.57 129.449 134.445 129.371 133.312C129.21 132.187 129.129 131.052 129.128 129.916C129.365 131.026 129.521 132.152 129.595 133.284C129.76 134.409 129.842 135.544 129.838 136.681Z" fill="#455A64"/>
<path d="M131.852 129.641C131.947 129.622 132.045 129.634 132.132 129.673C132.382 129.765 132.593 129.94 132.73 130.169C132.841 130.335 132.912 130.525 132.938 130.723C132.964 130.922 132.944 131.124 132.88 131.313C132.774 131.538 132.607 131.728 132.397 131.862C132.187 131.995 131.944 132.066 131.696 132.066C131.447 132.066 131.204 131.995 130.994 131.862C130.784 131.728 130.617 131.538 130.511 131.313C130.445 131.125 130.423 130.924 130.447 130.725C130.47 130.527 130.539 130.336 130.647 130.169C130.782 129.94 130.989 129.763 131.235 129.664C131.413 129.603 131.516 129.622 131.516 129.631C131.211 129.751 130.956 129.97 130.792 130.253C130.711 130.402 130.663 130.566 130.65 130.735C130.637 130.904 130.66 131.074 130.717 131.234C130.811 131.412 130.952 131.561 131.124 131.665C131.297 131.768 131.494 131.823 131.696 131.823C131.897 131.823 132.094 131.768 132.267 131.665C132.439 131.561 132.58 131.412 132.674 131.234C132.729 131.074 132.749 130.904 132.734 130.736C132.719 130.568 132.668 130.405 132.586 130.257C132.418 129.974 132.159 129.757 131.852 129.641Z" fill="#455A64"/>
<path d="M114.239 127.057C114.281 127.475 114.259 127.897 114.174 128.309C114.013 129.313 113.676 130.281 113.179 131.168C112.674 132.046 112.045 132.845 111.31 133.541C111.023 133.847 110.698 134.114 110.343 134.335C110.603 134.013 110.886 133.708 111.188 133.424C111.876 132.705 112.477 131.907 112.978 131.046C113.46 130.181 113.808 129.246 114.01 128.276C114.16 127.529 114.202 127.052 114.239 127.057Z" fill="#455A64"/>
<path d="M144.287 140.595C144.133 140.621 143.975 140.621 143.82 140.595C143.403 140.558 142.992 140.468 142.596 140.329C141.264 139.886 140.135 138.978 139.418 137.771C138.701 136.563 138.442 135.138 138.691 133.756C138.759 133.343 138.877 132.94 139.041 132.555C139.092 132.41 139.166 132.275 139.26 132.153C139.09 132.687 138.956 133.232 138.859 133.784C138.666 135.122 138.939 136.486 139.63 137.648C140.321 138.81 141.389 139.7 142.657 140.17C143.189 140.352 143.734 140.494 144.287 140.595Z" fill="#455A64"/>
<path d="M144.288 182.18C144.241 182.227 142.527 180.55 140.457 178.443C138.387 176.336 136.748 174.565 136.799 174.519C136.85 174.472 138.56 176.154 140.63 178.256C142.7 180.358 144.339 182.134 144.288 182.18Z" fill="#455A64"/>
</g>
<defs>
<clipPath id="clip0_3615_34880">
<path d="M0 16C0 7.16344 7.16344 0 16 0H309C317.837 0 325 7.16344 325 16V236H0V16Z" fill="white"/>
</clipPath>
</defs>
</svg>
