<svg width="325" height="236" viewBox="0 0 325 236" fill="none" xmlns="http://www.w3.org/2000/svg">
<g clip-path="url(#clip0_3615_35416)">
<path d="M0 16C0 7.16344 7.16344 0 16 0H309C317.837 0 325 7.16344 325 16V236H0V16Z" fill="#FEFEE3"/>
<path fill-rule="evenodd" clip-rule="evenodd" d="M243.267 282.14C220.974 295.651 184.963 266.641 157.442 271.273C137.122 274.692 131.304 299.386 111.584 304.299C91.9005 309.204 66.4119 310.04 48.3223 298.462C28.1825 285.572 32.4084 256.369 13.8199 241.726C-2.71717 228.699 -28.8592 233.988 -47.2547 223.174C-67.5638 211.234 -99.0507 196.334 -97.1541 176.485C-94.826 152.119 -39.2483 154.281 -38.3233 129.698C-37.2699 101.703 -95.884 82.376 -92.5734 54.7493C-90.0161 33.4094 -45.6289 43.5766 -26.5503 31.4546C-7.503 19.3525 -6.65205 -14.4925 18.0648 -15.5471C45.2386 -16.7064 62.2635 21.2628 89.6969 26.495C114.603 31.2452 134.717 5.73456 159.489 11.426C182.531 16.7201 199.984 36.9056 213.199 54.8701C225.982 72.2468 227.284 92.8321 233.609 112.188C239.291 129.572 246.677 146.495 248.902 164.115C251.178 182.135 247.706 199.297 246.856 217.082C245.811 238.978 262.937 270.219 243.267 282.14Z" fill="#DBF2C3"/>
<path fill-rule="evenodd" clip-rule="evenodd" d="M105.802 -35.8965C138.584 -49.8713 155.349 -82.3683 191.308 -88.1801C225.322 -93.6774 257.174 -79.6977 275.859 -63.3809C293.943 -47.5881 294.287 -24.0278 289.983 -2.00888C286.375 16.4517 263.833 32.3747 253.591 50.5462C244.295 67.0396 251.14 86.3605 232.588 99.824C214.034 113.289 184.15 110.936 159.993 118.472C134.006 126.579 111.46 146.406 85.1503 145.818C59.0517 145.235 48.513 126.094 30.246 115.573C11.7709 104.932 -15.4551 99.4842 -23.1806 83.4251C-31.0032 67.1641 -20.6409 47.4896 -11.2224 29.3718C-2.09455 11.813 8.12684 -7.16845 30.3602 -19.5687C51.9604 -31.6159 82.2993 -25.8775 105.802 -35.8965Z" fill="#B9CFC2"/>
<path d="M45.7267 99.1113L47.8176 103.164C48.267 104.042 48.8078 104.87 49.4312 105.634L39.1133 224.949H41.689L62.1884 110.906H94.2253L82.7711 224.949H85.3468L108.46 105.634C109.28 104.871 110.04 104.045 110.732 103.164L113.952 99.1113H45.7267Z" fill="#263238"/>
<path opacity="0.5" d="M45.7267 99.1113L47.8176 103.164C48.267 104.042 48.8078 104.87 49.4312 105.634L39.1133 224.949H41.689L62.1884 110.906H94.2253L82.7711 224.949H85.3468L108.46 105.634C109.28 104.871 110.04 104.045 110.732 103.164L113.952 99.1113H45.7267Z" fill="white"/>
<path d="M193.298 222.653H188.738L166.208 146.534H174.049L193.298 222.653Z" fill="#2C6E49"/>
<path d="M111.922 222.653H116.482L139.012 146.534H131.171L111.922 222.653Z" fill="#2C6E49"/>
<path d="M234.35 222.653H229.789L207.26 146.534H215.108L234.35 222.653Z" fill="#2C6E49"/>
<path d="M187.488 53.136C158.891 59.2873 158.406 96.7408 161.3 121.179C161.589 123.582 161.365 126.018 160.644 128.327C159.923 130.637 158.72 132.767 157.115 134.577C155.51 136.388 153.539 137.837 151.333 138.83C149.127 139.823 146.735 140.337 144.315 140.338H116.172C115.205 140.341 114.268 140.674 113.516 141.282C112.764 141.889 112.241 142.735 112.035 143.68C111.828 144.624 111.95 145.611 112.38 146.477C112.81 147.344 113.522 148.037 114.4 148.444C123.649 152.694 142.217 157.034 179.466 157.034C236.123 157.034 233.82 126.399 239.82 96.7408C249.206 50.3937 238.388 42.1894 187.488 53.136Z" fill="#2C6E49"/>
<path opacity="0.3" d="M187.488 53.136C158.891 59.2873 158.406 96.7408 161.3 121.179C161.589 123.582 161.365 126.018 160.644 128.327C159.923 130.637 158.72 132.767 157.115 134.577C155.51 136.388 153.539 137.837 151.333 138.83C149.127 139.823 146.735 140.337 144.315 140.338H116.172C115.205 140.341 114.268 140.674 113.516 141.282C112.764 141.889 112.241 142.735 112.035 143.68C111.828 144.624 111.95 145.611 112.38 146.477C112.81 147.344 113.522 148.037 114.4 148.444C123.649 152.694 142.217 157.034 179.466 157.034C236.123 157.034 233.82 126.399 239.82 96.7408C249.206 50.3937 238.388 42.1894 187.488 53.136Z" fill="black"/>
<path d="M152.753 54.6575C151.623 54.116 150.397 53.8027 149.145 53.7354C147.893 53.6682 146.641 53.8483 145.459 54.2655C144.277 54.6828 143.188 55.3289 142.256 56.167C141.324 57.005 140.566 58.0186 140.026 59.1498L139.776 59.6801L139.42 60.4376L138.988 61.3088L138.079 63.0891C137.451 64.2709 136.829 65.4602 136.155 66.5965C136.678 64.8466 137.246 63.0891 137.829 61.3391C138.413 59.5892 139.042 57.665 139.685 55.8317C140.935 52.1727 142.291 48.4531 143.557 44.8396L143.602 44.7184C143.984 43.6356 143.963 42.4511 143.542 41.3828C143.12 40.3145 142.327 39.4344 141.309 38.9043C140.29 38.3742 139.114 38.2298 137.997 38.4977C136.881 38.7657 135.898 39.4279 135.231 40.3625C132.799 43.7563 130.686 47.1805 128.572 50.6804C126.459 54.1803 124.565 57.8089 122.739 61.5285C120.882 65.3199 119.246 69.2151 117.838 73.1948C117.141 75.2554 116.482 77.3765 115.936 79.634C115.334 82.072 114.979 84.5642 114.876 87.0732C114.797 89.0497 115.435 90.9881 116.67 92.5327C117.906 94.0773 119.657 95.1245 121.603 95.4821L122.224 95.5957C124.847 96.0673 127.537 96.0339 130.148 95.4972C132.538 94.9855 134.837 94.1146 136.966 92.9139C140.527 90.8693 143.714 88.2332 146.39 85.1187C147.617 83.748 148.765 82.3089 149.829 80.8082C150.867 79.3462 151.859 77.8841 152.746 76.3766C153.632 74.869 154.496 73.3463 155.261 71.8312C155.647 71.0737 156.018 70.2783 156.389 69.4753L156.912 68.2556L157.48 66.8768C158.396 64.6211 158.417 62.1008 157.539 59.8301C156.661 57.5594 154.949 55.7094 152.753 54.6575Z" fill="#263238"/>
<path d="M135.027 30.734L134.822 34.5218C134.757 36.0311 135.016 37.5369 135.58 38.9383L137.095 42.8246C137.444 43.7092 138.038 44.4765 138.806 45.0371C139.575 45.5977 140.487 45.9285 141.436 45.9911C142.725 46.0786 143.999 45.6624 144.988 44.8302C145.977 43.998 146.604 42.8147 146.739 41.5291C146.853 39.5847 146.677 37.634 146.216 35.7414L145.792 30.931C145.72 30.1424 145.371 29.4049 144.806 28.8499C144.242 28.295 143.498 27.9586 142.708 27.9008L138.61 27.5902C138.168 27.5593 137.724 27.6164 137.304 27.758C136.884 27.8996 136.496 28.1231 136.163 28.4153C135.83 28.7076 135.558 29.063 135.363 29.461C135.168 29.859 135.054 30.2916 135.027 30.734Z" fill="#FFB573"/>
<path opacity="0.2" d="M146.225 35.7338L145.8 30.9309C145.728 30.1441 145.379 29.4084 144.816 28.8538C144.253 28.2993 143.512 27.9617 142.725 27.9007L138.755 27.5977C138.308 33.7944 141.482 40.6882 144.959 44.8699C145.465 44.4609 145.883 43.9543 146.189 43.3804C146.495 42.8065 146.682 42.1769 146.74 41.5291C146.86 39.5824 146.686 37.6287 146.225 35.7338Z" fill="black"/>
<path d="M180.321 46.2718C169.382 47.09 155.685 47.9839 145.86 52.658C141.012 54.9685 139.709 59.8244 140.428 65.15C141.572 73.6043 142.557 80.3541 144.663 87.4903C149.542 103.952 139.762 115.739 150.724 128.489C155.534 133.959 185.026 139.095 205.911 132.231C208.941 119.77 205.025 88.7781 200.836 60.5668C199.374 50.605 190.374 45.5218 180.321 46.2718Z" fill="#2C6E49"/>
<path d="M166.746 33.0215C167.276 37.6577 169.571 44.4605 173.495 46.5817C173.921 46.8153 174.285 47.1479 174.555 47.5514C174.826 47.9549 174.995 48.4175 175.049 48.9003C175.104 49.383 175.041 49.8717 174.867 50.3251C174.692 50.7786 174.412 51.1835 174.048 51.5058C171.738 53.5285 168.17 55.2936 163.382 56.286C157.14 57.5586 155.806 55.6723 155.897 53.733C155.99 52.797 156.372 51.913 156.988 51.2028C159.003 48.718 156.988 46.7862 155.738 45.3317L166.746 33.0215Z" fill="#FFB573"/>
<path opacity="0.2" d="M163.943 40.0144C163.821 39.7544 163.684 39.5015 163.534 39.2568L155.746 45.3551C156.504 46.3021 157.685 47.4611 157.829 48.8323C161.852 46.4157 165.125 42.5295 163.943 40.0144Z" fill="black"/>
<path d="M115.414 199.88C116.929 198.327 126.565 195.335 126.565 195.335C129.09 202.586 131.174 209.983 132.807 217.486L120.331 218.758C120.331 218.758 118.262 206.115 115.414 199.88Z" fill="#FFB573"/>
<path d="M170.594 122.391C134.512 122.906 87.0283 120.974 98.2098 153.859C102.998 167.935 102.611 173.109 108.21 190.161C110.619 197.502 111.437 199.661 113.187 204.744C115.103 209.29 126.588 208.456 130.83 206.676C135.928 203.964 131.588 196.638 131.019 192.517C128.118 172.397 134.141 164.708 127.807 151.519C139.322 153.185 171.692 152.019 176.511 132.231C176.511 132.231 183.147 124.345 170.594 122.391Z" fill="#263238"/>
<path d="M116.127 207.168L117.642 210.198C117.733 210.379 117.88 210.527 118.062 210.618C118.243 210.71 118.449 210.74 118.649 210.706C120.695 210.35 126.786 209.372 130.331 209.804C130.459 209.818 130.588 209.805 130.711 209.768C130.834 209.73 130.948 209.668 131.046 209.585C131.145 209.502 131.225 209.401 131.283 209.286C131.341 209.171 131.375 209.046 131.384 208.918C131.452 207.721 131.437 206.168 131.422 205.191C131.414 204.942 131.31 204.706 131.132 204.532C130.954 204.359 130.716 204.261 130.467 204.259C125.853 204.306 121.254 204.813 116.74 205.774C116.597 205.808 116.463 205.875 116.35 205.969C116.236 206.064 116.146 206.183 116.087 206.318C116.027 206.453 116 206.6 116.007 206.748C116.014 206.895 116.055 207.039 116.127 207.168Z" fill="#2C6E49"/>
<path d="M135.482 225.41L134.179 216.614C134.131 216.41 134.011 216.23 133.842 216.106C133.672 215.983 133.464 215.924 133.255 215.94L120.46 215.993C119.433 215.922 118.412 216.188 117.551 216.751C114.672 219.13 110.21 221.41 103.725 222.667C101.672 223.069 102.543 227.144 107.354 227.122C115.308 227.084 114.975 226.834 121.747 226.811C127.55 226.811 129.005 227.076 133.611 227.122C133.848 227.139 134.086 227.108 134.31 227.03C134.534 226.953 134.741 226.83 134.916 226.67C135.091 226.509 135.232 226.315 135.329 226.098C135.426 225.881 135.478 225.647 135.482 225.41Z" fill="#263238"/>
<path d="M162.299 20.8555C165.685 28.6129 168.064 32.9764 166.253 39.0368C163.541 48.1956 152.542 50.2562 146.913 43.8473C141.853 38.0747 137.163 26.3478 142.959 19.0147C148.671 11.8028 158.913 13.0906 162.299 20.8555Z" fill="#FFB573"/>
<path d="M156.073 39.5061C156.491 39.4964 156.909 39.5192 157.323 39.5743C157.351 39.5779 157.379 39.5874 157.404 39.6021C157.429 39.6168 157.451 39.6365 157.468 39.6599C157.485 39.6834 157.497 39.71 157.503 39.7383C157.509 39.7665 157.51 39.7958 157.505 39.8243C157.502 39.8527 157.493 39.8802 157.479 39.9051C157.465 39.93 157.446 39.9517 157.424 39.9689C157.401 39.986 157.375 39.9981 157.347 40.0045C157.319 40.011 157.29 40.0115 157.262 40.0061C156.343 39.8503 155.4 39.9153 154.511 40.1959C153.622 40.4765 152.812 40.9645 152.149 41.6197C152.107 41.6608 152.052 41.684 151.993 41.684C151.935 41.684 151.879 41.6608 151.838 41.6197C151.818 41.5999 151.802 41.5763 151.791 41.5503C151.78 41.5243 151.774 41.4964 151.774 41.4681C151.774 41.4399 151.78 41.412 151.791 41.386C151.802 41.36 151.818 41.3364 151.838 41.3166C152.96 40.1848 154.479 39.5353 156.073 39.5061Z" fill="#263238"/>
<path d="M152.581 30.2573C152.194 30.477 152.164 31.1361 152.505 31.7269L153.899 30.9164C153.558 30.3255 152.967 30.03 152.581 30.2573Z" fill="#263238"/>
<path d="M145.33 34.3706C144.943 34.5903 144.905 35.2493 145.254 35.8402L146.648 35.0296C146.262 34.4388 145.678 34.1433 145.33 34.3706Z" fill="#263238"/>
<path d="M150.686 26.576C150.734 26.5139 150.799 26.4673 150.873 26.4417C150.947 26.4161 151.027 26.4128 151.103 26.432C151.586 26.5695 152.095 26.5897 152.588 26.4909C153.081 26.3921 153.543 26.1771 153.936 25.8639C153.973 25.8265 154.018 25.7969 154.066 25.7767C154.115 25.7565 154.167 25.7461 154.22 25.7461C154.273 25.7461 154.325 25.7565 154.374 25.7767C154.423 25.7969 154.467 25.8265 154.504 25.8639C154.542 25.9011 154.571 25.9454 154.591 25.9942C154.612 26.0429 154.622 26.0952 154.622 26.1479C154.622 26.2007 154.612 26.253 154.591 26.3017C154.571 26.3505 154.542 26.3947 154.504 26.432C154.012 26.8355 153.431 27.115 152.809 27.2468C152.186 27.3787 151.542 27.359 150.929 27.1896C150.826 27.1628 150.739 27.0969 150.685 27.0062C150.631 26.9155 150.615 26.8072 150.641 26.7047C150.649 26.6596 150.664 26.6162 150.686 26.576Z" fill="#263238"/>
<path d="M144.384 30.1349C144.46 30.0785 144.555 30.0541 144.649 30.0668C144.754 30.0764 144.851 30.1271 144.919 30.208C144.988 30.2888 145.021 30.3932 145.013 30.4986C144.974 31.1338 144.784 31.7504 144.457 32.2963C144.13 32.8423 143.676 33.3014 143.134 33.6348C143.04 33.6832 142.931 33.6928 142.831 33.6616C142.73 33.6304 142.646 33.5609 142.596 33.4682C142.571 33.4225 142.555 33.3722 142.549 33.3204C142.544 33.2685 142.548 33.216 142.563 33.166C142.578 33.1159 142.602 33.0693 142.635 33.0289C142.668 32.9884 142.709 32.9549 142.755 32.9303C143.179 32.6591 143.531 32.2908 143.784 31.8561C144.037 31.4214 144.183 30.9326 144.21 30.4304C144.216 30.3715 144.234 30.3145 144.264 30.2635C144.294 30.2125 144.335 30.1686 144.384 30.1349Z" fill="#263238"/>
<path opacity="0.2" d="M146.913 34.8027C146.943 35.3899 146.825 35.9751 146.569 36.5046C146.314 37.0341 145.929 37.4909 145.451 37.8329C148.981 37.2572 146.913 34.8027 146.913 34.8027Z" fill="black"/>
<path opacity="0.2" d="M151.625 32.1816C152.13 32.4692 152.698 32.6267 153.278 32.6399C153.859 32.6531 154.434 32.5217 154.951 32.2574C153.026 34.6891 151.625 32.1816 151.625 32.1816Z" fill="black"/>
<path d="M168.701 21.1133C168.322 17.6134 167.398 14.9998 166.17 13.2271C166.706 13.3982 167.256 13.5199 167.814 13.5908C164.693 8.85606 159.602 9.7424 157.966 11.659C155.974 7.30308 153.156 10.2121 149.951 10.7651C146.747 11.3181 140.785 9 140.785 9C140.785 9 142.095 11.2727 144.232 11.6211C140.088 13.4923 138.557 16.7119 137.459 19.1967C136.361 21.6814 133.027 24.6586 133.027 24.6586C134.418 24.6732 135.766 24.1773 136.815 23.2647C136.398 25.795 134.649 30.5145 133.785 31.5978C136.058 30.8403 138.186 28.06 138.186 28.06C138.186 28.06 138.595 32.6054 140.732 35.681C140.292 31.7493 146.588 23.8783 146.588 23.8783C146.308 25.5663 146.308 27.2887 146.588 28.9767C149.428 26.5752 154.057 18.7118 154.057 18.7118C154.116 20.9964 154.438 23.2665 155.019 25.4768C155.288 24.154 155.841 22.9055 156.64 21.8178C155.807 24.6359 157.928 31.1508 157.928 31.1508C157.822 29.4495 157.931 27.7415 158.254 26.0677C158.852 28.007 162.526 30.1433 164.034 30.363C164.019 30.3781 169.769 30.8251 168.701 21.1133Z" fill="#263238"/>
<path d="M168.625 28.1729C168.505 30.2375 167.574 32.171 166.034 33.5516C163.974 35.3621 161.762 33.8091 161.345 31.2789C160.966 28.9684 161.58 25.2185 164.118 24.4231C166.655 23.6276 168.746 25.6427 168.625 28.1729Z" fill="#FFB573"/>
<path d="M148.921 33.9609C148.921 33.9609 150.065 38.0441 149.845 40.5895C151.504 40.7638 152.875 39.1199 152.875 39.1199L148.921 33.9609Z" fill="#ED893E"/>
<path opacity="0.2" d="M144.754 151.624C144.315 146.617 143.678 141.61 142.83 136.655C142.45 134.392 141.719 132.201 140.663 130.163C116.422 126.936 114.278 147.087 130.3 185.396C129.452 170.351 133.33 163.026 127.815 151.518C133.439 152.202 139.122 152.238 144.754 151.624Z" fill="black"/>
<path opacity="0.2" d="M165.785 26.9696L167.399 30.3255C168.028 31.5995 168.349 33.0031 168.338 34.4239L168.255 38.2117C168.217 39.0901 167.886 39.9305 167.314 40.5991C166.743 41.2676 165.965 41.7259 165.103 41.9009C163.775 42.2188 162.381 42.1026 161.123 41.5695C159.866 41.0364 158.813 40.1145 158.119 38.9389C157.288 37.2717 156.733 35.4809 156.475 33.636L155.104 29.2422C154.989 28.8961 154.95 28.5297 154.988 28.1671C155.025 27.8046 155.14 27.4542 155.323 27.1391C155.506 26.824 155.754 26.5515 156.051 26.3394C156.347 26.1274 156.686 25.9807 157.043 25.909L161.02 24.8333C161.939 24.6124 162.905 24.7022 163.767 25.0887C164.629 25.4753 165.339 26.1367 165.785 26.9696Z" fill="black"/>
<path d="M166.709 27.4162L167.951 30.9995C168.45 32.42 168.634 33.9324 168.489 35.4311L168.087 39.5977C167.998 40.5439 167.642 41.4453 167.06 42.1965C166.478 42.9477 165.694 43.5178 164.8 43.84C163.583 44.289 162.239 44.2468 161.052 43.7222C159.866 43.1976 158.93 42.2319 158.444 41.0295C157.791 39.1943 157.418 37.2713 157.338 35.3251L156.413 30.5828C156.259 29.8033 156.387 28.9943 156.774 28.3004C157.161 27.6065 157.783 27.0729 158.527 26.795L162.383 25.3633C162.801 25.2089 163.247 25.1396 163.692 25.1596C164.138 25.1796 164.575 25.2884 164.978 25.4796C165.381 25.6709 165.741 25.9407 166.039 26.2733C166.336 26.6058 166.564 26.9944 166.709 27.4162Z" fill="#FFB573"/>
<path d="M192.245 50.6121C189.796 49.9977 187.203 50.3812 185.036 51.6782C182.87 52.9753 181.307 55.0796 180.692 57.5286L180.503 58.2862L180.154 59.7104L179.722 61.3164C179.412 62.4148 179.109 63.5209 178.753 64.6117C178.078 66.7935 177.275 68.8995 176.435 70.8918L176.389 70.9979C175.548 68.4601 174.768 65.8162 174.071 63.1269C173.556 61.2255 173.064 59.2937 172.609 57.3544C172.154 55.415 171.67 53.4605 171.238 51.4909C170.344 47.5819 169.511 43.5669 168.662 39.6731V39.5594C168.413 38.4367 167.766 37.442 166.841 36.7588C165.915 36.0757 164.774 35.7502 163.628 35.8425C162.482 35.9348 161.407 36.4386 160.603 37.261C159.799 38.0834 159.32 39.1688 159.253 40.317C158.996 44.6199 159.003 48.7713 159.109 53.0136C159.215 57.2559 159.511 61.4679 159.973 65.7329C160.2 67.8692 160.511 70.0131 160.859 72.1721C161.208 74.3311 161.617 76.5205 162.185 78.7325C162.744 81.0485 163.453 83.3259 164.306 85.5505C164.79 86.8138 165.357 88.0437 166.003 89.2322C166.785 90.6784 167.722 92.0349 168.798 93.2775C170.103 94.764 171.894 95.738 173.851 96.0253C175.808 96.3125 177.803 95.8944 179.48 94.8457L179.995 94.5199C181.565 93.5312 183.05 92.4137 184.434 91.1791C185.735 90.0072 186.948 88.7412 188.063 87.3913C189.125 86.0978 190.118 84.75 191.04 83.3536C191.927 81.9673 192.714 80.5734 193.457 79.1643C194.192 77.7793 194.857 76.3584 195.449 74.9069C196.04 73.4751 196.608 72.0433 197.078 70.5888C197.548 69.1343 198.002 67.6874 198.366 66.2026C198.548 65.445 198.737 64.6875 198.888 63.9299L199.116 62.8315L199.343 61.4982C199.751 59.1229 199.247 56.681 197.93 54.6621C196.614 52.6432 194.583 51.1966 192.245 50.6121Z" fill="#263238"/>
<path d="M151.451 199.191C152.777 197.494 162.057 193.562 162.057 193.562C165.3 200.522 168.121 207.672 170.504 214.971L158.216 217.478C158.216 217.478 154.921 205.123 151.451 199.191Z" fill="#FFB573"/>
<path d="M175.223 119.974C139.762 122.39 112.347 122.466 127.982 153.48C134.679 166.753 136.005 173.866 143.3 190.259C146.436 197.32 147.474 199.388 149.724 204.274C152.095 208.615 163.436 206.607 167.474 204.411C172.269 201.191 167.239 194.343 166.231 190.305C161.315 170.608 166.33 163.571 158.815 151.018C170.428 151.617 201.109 152.018 205.927 132.231C205.935 132.231 200.155 119.974 175.223 119.974Z" fill="#263238"/>
<path d="M152.906 206.381L154.747 209.26C154.858 209.431 155.02 209.563 155.211 209.635C155.402 209.708 155.611 209.717 155.808 209.661C157.8 209.101 163.762 207.518 167.338 207.578C167.466 207.579 167.593 207.554 167.711 207.505C167.83 207.455 167.937 207.382 168.026 207.29C168.115 207.198 168.185 207.089 168.23 206.969C168.276 206.849 168.297 206.721 168.292 206.593C168.239 205.396 168.072 203.851 167.951 202.889C167.923 202.64 167.797 202.412 167.601 202.256C167.405 202.1 167.155 202.028 166.906 202.056C162.319 202.568 157.797 203.543 153.406 204.965C153.268 205.01 153.142 205.086 153.038 205.187C152.934 205.289 152.855 205.413 152.807 205.55C152.759 205.687 152.742 205.833 152.76 205.977C152.777 206.121 152.827 206.26 152.906 206.381Z" fill="#2C6E49"/>
<path d="M174.026 222.009L171.473 213.123C171.398 212.926 171.253 212.763 171.066 212.666C170.879 212.568 170.663 212.542 170.458 212.593L157.807 214.502C156.778 214.585 155.806 215.006 155.042 215.699C151.826 219.424 147.41 221.908 142.557 222.721C140.512 223.123 141.383 227.198 146.186 227.176C154.148 227.138 153.799 226.123 160.511 225.146C165.587 224.388 167.738 224.388 172.329 223.949C172.572 223.945 172.811 223.89 173.032 223.788C173.252 223.686 173.449 223.539 173.609 223.356C173.769 223.174 173.889 222.959 173.96 222.727C174.032 222.495 174.055 222.25 174.026 222.009Z" fill="#263238"/>
<path d="M35 99.1113L289 99.1113V94.4145L35 94.4145V99.1113Z" fill="#2C6E49"/>
<path opacity="0.5" d="M35 99.1113L289 99.1113V94.4145L35 94.4145V99.1113Z" fill="white"/>
<path opacity="0.3" d="M220.093 99.1113L288.992 99.1113V94.4145L220.093 94.4145V99.1113Z" fill="#2C6E49"/>
<path d="M282.303 224.949H284.879L274.561 105.634C275.186 104.871 275.727 104.043 276.174 103.164L278.265 99.1113H210.002L213.222 103.164C213.924 104.048 214.697 104.874 215.532 105.634L238.645 224.949H241.221L229.767 110.906H261.803L282.303 224.949Z" fill="#263238"/>
<path opacity="0.6" d="M282.303 224.949H284.879L274.561 105.634C275.186 104.871 275.727 104.043 276.174 103.164L278.265 99.1113H210.002L213.222 103.164C213.924 104.048 214.697 104.874 215.532 105.634L238.645 224.949H241.221L229.767 110.906H261.803L282.303 224.949Z" fill="white"/>
<path d="M100.819 74.5137H40.5029V94.4979H100.819V74.5137Z" fill="#2C6E49"/>
<path opacity="0.8" d="M100.819 74.5137H40.5029V94.4979H100.819V74.5137Z" fill="white"/>
<path opacity="0.3" d="M100.818 74.5137H70.6602V94.4979H100.818V74.5137Z" fill="#2C6E49"/>
<path opacity="0.3" d="M50.7666 81.998L70.5918 83.6647L95.2728 81.998H50.7666Z" fill="#2C6E49"/>
<path opacity="0.3" d="M41.9873 86.709L53.5173 87.5044L67.8653 86.709H41.9873Z" fill="#2C6E49"/>
<path d="M70.6605 70.9756C62.5547 74.8543 39.6387 71.8771 39.6387 71.8771C39.6387 71.8771 42.6689 74.5134 45.6385 74.5134H98.3945C98.3945 74.5134 100.402 73.8391 100.402 73.127C86.9554 75.1345 73.2968 72.5664 70.6605 70.9756Z" fill="#2C6E49"/>
<path opacity="0.4" d="M70.6605 70.9756C62.5547 74.8543 39.6387 71.8771 39.6387 71.8771C39.6387 71.8771 42.6689 74.5134 45.6385 74.5134H98.3945C98.3945 74.5134 100.402 73.8391 100.402 73.127C86.9554 75.1345 73.2968 72.5664 70.6605 70.9756Z" fill="white"/>
<path d="M283.95 83.8076H219.876V94.4891H283.95V83.8076Z" fill="#2C6E49"/>
<path opacity="0.8" d="M283.95 83.8076H219.876V94.4891H283.95V83.8076Z" fill="white"/>
<path opacity="0.3" d="M283.941 83.8076H251.904V94.4891H283.941V83.8076Z" fill="#2C6E49"/>
<path opacity="0.3" d="M268.722 90.0209L247.662 89.127L221.443 90.0209H268.722Z" fill="#2C6E49"/>
<path opacity="0.3" d="M278.048 87.4897L265.799 87.0654L250.557 87.4897H278.048Z" fill="#2C6E49"/>
<path d="M246.026 77.7471C244.163 84.3075 218.951 81.1712 218.951 81.1712C218.951 81.1712 222.156 83.8075 225.322 83.8075H281.381C281.381 83.8075 288.017 82.2924 288.017 81.5803C273.715 83.5954 251.912 82.1788 246.026 77.7471Z" fill="#2C6E49"/>
<g opacity="0.4">
<path d="M246.026 77.748C244.163 84.3085 218.951 81.1722 218.951 81.1722C218.951 81.1722 222.156 83.8085 225.322 83.8085H281.381C281.381 83.8085 288.017 82.2934 288.017 81.5813C273.715 83.5964 251.912 82.1797 246.026 77.748Z" fill="white"/>
</g>
</g>
<defs>
<clipPath id="clip0_3615_35416">
<path d="M0 16C0 7.16344 7.16344 0 16 0H309C317.837 0 325 7.16344 325 16V236H0V16Z" fill="white"/>
</clipPath>
</defs>
</svg>
