<svg width="72" height="72" viewBox="0 0 72 72" fill="none" xmlns="http://www.w3.org/2000/svg">
<circle cx="36" cy="36" r="36" fill="#DEFBFA" fill-opacity="0.5"/>
<circle cx="36" cy="36" r="24" fill="#B9CFC2"/>
<g clip-path="url(#clip0_4805_45712)">
<path d="M39.9995 40L35.9995 36M35.9995 36L31.9995 40M35.9995 36V45M44.3895 42.39C45.3648 41.8583 46.1353 41.0169 46.5793 39.9986C47.0234 38.9804 47.1157 37.8432 46.8417 36.7667C46.5677 35.6901 45.943 34.7355 45.0661 34.0534C44.1893 33.3714 43.1103 33.0007 41.9995 33H40.7395C40.4368 31.8292 39.8726 30.7423 39.0894 29.821C38.3062 28.8996 37.3243 28.1678 36.2176 27.6806C35.1108 27.1933 33.908 26.9633 32.6996 27.0079C31.4912 27.0524 30.3085 27.3703 29.2406 27.9376C28.1728 28.505 27.2474 29.3071 26.5341 30.2836C25.8208 31.26 25.3382 32.3855 25.1225 33.5754C24.9067 34.7652 24.9636 35.9885 25.2887 37.1532C25.6138 38.318 26.1987 39.3938 26.9995 40.3" stroke="#2C6E49" stroke-width="2" stroke-linecap="round" stroke-linejoin="round"/>
</g>
<defs>
<clipPath id="clip0_4805_45712">
<rect width="24" height="24" fill="white" transform="translate(24 24)"/>
</clipPath>
</defs>
</svg>
