<svg width="129" height="128" viewBox="0 0 129 128" fill="none" xmlns="http://www.w3.org/2000/svg">
<path d="M61.6195 73.2267C69.8964 73.2267 76.6061 66.517 76.6061 58.2401C76.6061 49.9632 69.8964 43.2534 61.6195 43.2534C53.3426 43.2534 46.6328 49.9632 46.6328 58.2401C46.6328 66.517 53.3426 73.2267 61.6195 73.2267Z" stroke="#6C6F6D" stroke-width="1.5" stroke-linecap="round" stroke-linejoin="round"/>
<path d="M89.2995 107.734C89.2995 95.3069 76.9261 85.1733 61.6194 85.1733C46.3128 85.1733 33.9395 95.2536 33.9395 107.734" stroke="#6C6F6D" stroke-width="1.5" stroke-linecap="round" stroke-linejoin="round"/>
<path d="M112.499 66.6667C112.499 94.6667 89.8327 117.333 61.8327 117.333C33.8327 117.333 11.166 94.6667 11.166 66.6667C11.166 38.6667 33.8327 16 61.8327 16C68.8194 16 75.486 17.3866 81.566 19.9466C80.8727 22.0799 80.4994 24.32 80.4994 26.6667C80.4994 30.6667 81.6194 34.4533 83.5927 37.6533C84.6594 39.4667 86.046 41.1198 87.646 42.5065C91.3794 45.9198 96.3394 48 101.833 48C104.179 48 106.419 47.6266 108.499 46.8799C111.059 52.9599 112.499 59.68 112.499 66.6667Z" stroke="#6C6F6D" stroke-width="1.5" stroke-linecap="round" stroke-linejoin="round"/>
<path d="M123.167 26.6668C123.167 28.3735 122.953 30.0268 122.527 31.6268C122.047 33.7601 121.193 35.8402 120.073 37.6535C117.513 41.9735 113.407 45.3334 108.5 46.88C106.42 47.6267 104.18 48.0002 101.833 48.0002C96.34 48.0002 91.38 45.92 87.6467 42.5067C86.0467 41.12 84.66 39.4668 83.5933 37.6535C81.62 34.4535 80.5 30.6668 80.5 26.6668C80.5 24.3202 80.8733 22.0801 81.5667 19.9468C82.58 16.8534 84.2867 14.0803 86.5267 11.7869C90.42 7.78695 95.86 5.3335 101.833 5.3335C108.127 5.3335 113.833 8.05359 117.673 12.4269C121.087 16.2136 123.167 21.2268 123.167 26.6668Z" stroke="#6C6F6D" stroke-width="1.5" stroke-miterlimit="10" stroke-linecap="round" stroke-linejoin="round"/>
<path d="M109.78 26.5601H93.8867" stroke="#6C6F6D" stroke-width="1.5" stroke-miterlimit="10" stroke-linecap="round" stroke-linejoin="round"/>
<path d="M101.834 18.7734V34.7201" stroke="#6C6F6D" stroke-width="1.5" stroke-miterlimit="10" stroke-linecap="round" stroke-linejoin="round"/>
</svg>
